<svg xmlns="http://www.w3.org/2000/svg" xmlns:xlink="http://www.w3.org/1999/xlink" viewBox="0 0 500 414.23"><defs><style>.cls-1{isolation:isolate;}.cls-17,.cls-18,.cls-19,.cls-2{fill:#fff;}.cls-10,.cls-100,.cls-101,.cls-102,.cls-11,.cls-12,.cls-13,.cls-14,.cls-15,.cls-16,.cls-17,.cls-18,.cls-20,.cls-21,.cls-22,.cls-23,.cls-24,.cls-25,.cls-26,.cls-27,.cls-28,.cls-29,.cls-3,.cls-30,.cls-31,.cls-32,.cls-39,.cls-4,.cls-40,.cls-41,.cls-42,.cls-43,.cls-44,.cls-45,.cls-46,.cls-47,.cls-48,.cls-49,.cls-5,.cls-50,.cls-51,.cls-52,.cls-53,.cls-54,.cls-6,.cls-63,.cls-64,.cls-65,.cls-66,.cls-67,.cls-68,.cls-69,.cls-7,.cls-70,.cls-71,.cls-72,.cls-73,.cls-74,.cls-77,.cls-78,.cls-79,.cls-8,.cls-80,.cls-81,.cls-82,.cls-83,.cls-84,.cls-85,.cls-86,.cls-87,.cls-88,.cls-89,.cls-9,.cls-90,.cls-93,.cls-95,.cls-96,.cls-97{fill-rule:evenodd;}.cls-3{fill:url(#_ÂÁ_Ï_ÌÌ_È_ËÂÌÚ_92);}.cls-4{fill:url(#_ÂÁ_Ï_ÌÌ_È_ËÂÌÚ_2);}.cls-5{fill:#694aa1;}.cls-6{fill:#cf3151;}.cls-7{fill:url(#_ÂÁ_Ï_ÌÌ_È_ËÂÌÚ_143);}.cls-8{fill:url(#_ÂÁ_Ï_ÌÌ_È_ËÂÌÚ_98);}.cls-9{fill:#9272cc;}.cls-12,.cls-15,.cls-16,.cls-20,.cls-22,.cls-24,.cls-28,.cls-30,.cls-43,.cls-46,.cls-50,.cls-51,.cls-53,.cls-54,.cls-63,.cls-81,.cls-83,.cls-84,.cls-85,.cls-87,.cls-88,.cls-9{mix-blend-mode:multiply;}.cls-50,.cls-9{opacity:0.5;}.cls-10{fill:url(#_ÂÁ_Ï_ÌÌ_È_ËÂÌÚ_4);}.cls-11{fill:url(#_ÂÁ_Ï_ÌÌ_È_ËÂÌÚ_4-2);}.cls-12,.cls-15,.cls-16,.cls-28,.cls-30,.cls-51,.cls-53,.cls-54,.cls-81,.cls-82,.cls-83,.cls-84,.cls-87{opacity:0.58;}.cls-12{fill:url(#_ÂÁ_Ï_ÌÌ_È_ËÂÌÚ_139);}.cls-13{fill:url(#_ÂÁ_Ï_ÌÌ_È_ËÂÌÚ_4-3);}.cls-14{fill:url(#_ÂÁ_Ï_ÌÌ_È_ËÂÌÚ_4-4);}.cls-15{fill:url(#_ÂÁ_Ï_ÌÌ_È_ËÂÌÚ_139-2);}.cls-16{fill:url(#_ÂÁ_Ï_ÌÌ_È_ËÂÌÚ_127);}.cls-18,.cls-19{mix-blend-mode:soft-light;}.cls-20,.cls-22,.cls-24,.cls-43,.cls-46,.cls-63,.cls-85,.cls-88{opacity:0.79;}.cls-20{fill:url(#_ÂÁ_Ï_ÌÌ_È_ËÂÌÚ_146);}.cls-21{fill:url(#_ÂÁ_Ï_ÌÌ_È_ËÂÌÚ_91);}.cls-22{fill:url(#_ÂÁ_Ï_ÌÌ_È_ËÂÌÚ_146-2);}.cls-23{fill:url(#_ÂÁ_Ï_ÌÌ_È_ËÂÌÚ_2-2);}.cls-24{fill:url(#_ÂÁ_Ï_ÌÌ_È_ËÂÌÚ_146-3);}.cls-100,.cls-101,.cls-102,.cls-25,.cls-31,.cls-33,.cls-82,.cls-91,.cls-92,.cls-93,.cls-94,.cls-95,.cls-96,.cls-97,.cls-98,.cls-99{mix-blend-mode:screen;}.cls-25{fill:url(#_ÂÁ_Ï_ÌÌ_È_ËÂÌÚ_122);}.cls-26{fill:url(#_ÂÁ_Ï_ÌÌ_È_ËÂÌÚ_101);}.cls-27{fill:url(#_ÂÁ_Ï_ÌÌ_È_ËÂÌÚ_92-2);}.cls-28{fill:url(#_ÂÁ_Ï_ÌÌ_È_ËÂÌÚ_139-3);}.cls-29{fill:url(#_ÂÁ_Ï_ÌÌ_È_ËÂÌÚ_77);}.cls-30{fill:url(#_ÂÁ_Ï_ÌÌ_È_ËÂÌÚ_139-4);}.cls-31{fill:url(#_ÂÁ_Ï_ÌÌ_È_ËÂÌÚ_122-2);}.cls-32{fill:url(#_ÂÁ_Ï_ÌÌ_È_ËÂÌÚ_2-3);}.cls-33{fill:url(#_ÂÁ_Ï_ÌÌ_È_ËÂÌÚ_122-3);}.cls-34{fill:#bbf9ff;}.cls-35{fill:#80eeff;}.cls-36{fill:#7bdaff;}.cls-37{fill:#62ffff;}.cls-38{fill:#d9ffff;}.cls-39{fill:url(#_ÂÁ_Ï_ÌÌ_È_ËÂÌÚ_92-3);}.cls-40{fill:url(#_ÂÁ_Ï_ÌÌ_È_ËÂÌÚ_77-2);}.cls-41{fill:url(#_ÂÁ_Ï_ÌÌ_È_ËÂÌÚ_91-2);}.cls-42{fill:url(#_ÂÁ_Ï_ÌÌ_È_ËÂÌÚ_101-2);}.cls-43{fill:url(#_ÂÁ_Ï_ÌÌ_È_ËÂÌÚ_146-4);}.cls-44{fill:url(#_ÂÁ_Ï_ÌÌ_È_ËÂÌÚ_2-4);}.cls-45{fill:url(#_ÂÁ_Ï_ÌÌ_È_ËÂÌÚ_101-3);}.cls-46{fill:url(#_ÂÁ_Ï_ÌÌ_È_ËÂÌÚ_139-5);}.cls-47{fill:url(#_ÂÁ_Ï_ÌÌ_È_ËÂÌÚ_143-2);}.cls-48{fill:url(#_ÂÁ_Ï_ÌÌ_È_ËÂÌÚ_98-2);}.cls-49{fill:url(#_ÂÁ_Ï_ÌÌ_È_ËÂÌÚ_4-5);}.cls-50{fill:#7c4f90;}.cls-51{fill:url(#_ÂÁ_Ï_ÌÌ_È_ËÂÌÚ_139-6);}.cls-52{fill:url(#_ÂÁ_Ï_ÌÌ_È_ËÂÌÚ_5);}.cls-53{fill:#9743ba;}.cls-54{fill:url(#_ÂÁ_Ï_ÌÌ_È_ËÂÌÚ_127-2);}.cls-55{fill:#aeecff;}.cls-56{fill:#73e1ff;}.cls-57{fill:#64cbff;}.cls-58{fill:#4db7ff;}.cls-59{fill:#55fffa;}.cls-60{fill:#cff;}.cls-61{fill:#9ff;}.cls-62{fill:url(#_ÂÁ_Ï_ÌÌ_È_ËÂÌÚ_213);}.cls-63{fill:url(#_ÂÁ_Ï_ÌÌ_È_ËÂÌÚ_156);}.cls-64{fill:url(#_ÂÁ_Ï_ÌÌ_È_ËÂÌÚ_4-6);}.cls-65{fill:url(#_ÂÁ_Ï_ÌÌ_È_ËÂÌÚ_56);}.cls-66{fill:url(#_ÂÁ_Ï_ÌÌ_È_ËÂÌÚ_46);}.cls-67{fill:url(#_ÂÁ_Ï_ÌÌ_È_ËÂÌÚ_77-3);}.cls-68{fill:url(#_ÂÁ_Ï_ÌÌ_È_ËÂÌÚ_77-4);}.cls-69{fill:#4f5195;}.cls-70{fill:url(#_ÂÁ_Ï_ÌÌ_È_ËÂÌÚ_91-3);}.cls-71{fill:url(#_ÂÁ_Ï_ÌÌ_È_ËÂÌÚ_101-4);}.cls-72{fill:url(#_ÂÁ_Ï_ÌÌ_È_ËÂÌÚ_92-4);}.cls-73{fill:#a19ddd;}.cls-74{fill:url(#_ÂÁ_Ï_ÌÌ_È_ËÂÌÚ_118);}.cls-75{fill:url(#_ÂÁ_Ï_ÌÌ_È_ËÂÌÚ_109);}.cls-76{fill:#180833;}.cls-77{fill:#220d33;}.cls-78{fill:#b64f6d;}.cls-79{fill:url(#_ÂÁ_Ï_ÌÌ_È_ËÂÌÚ_101-5);}.cls-80{fill:#b5526f;}.cls-81{fill:url(#_ÂÁ_Ï_ÌÌ_È_ËÂÌÚ_29);}.cls-82{fill:url(#_ÂÁ_Ï_ÌÌ_È_ËÂÌÚ_132);}.cls-83{fill:url(#_ÂÁ_Ï_ÌÌ_È_ËÂÌÚ_127-3);}.cls-84{fill:url(#_ÂÁ_Ï_ÌÌ_È_ËÂÌÚ_127-4);}.cls-85{fill:url(#_ÂÁ_Ï_ÌÌ_È_ËÂÌÚ_139-7);}.cls-86{fill:url(#_ÂÁ_Ï_ÌÌ_È_ËÂÌÚ_3);}.cls-87{fill:url(#_ÂÁ_Ï_ÌÌ_È_ËÂÌÚ_127-5);}.cls-88{fill:url(#_ÂÁ_Ï_ÌÌ_È_ËÂÌÚ_139-8);}.cls-89{fill:url(#_ÂÁ_Ï_ÌÌ_È_ËÂÌÚ_2-5);}.cls-90{fill:#ff63b8;}.cls-91{fill:url(#_ÂÁ_Ï_ÌÌ_È_ËÂÌÚ_122-4);}.cls-92{fill:url(#_ÂÁ_Ï_ÌÌ_È_ËÂÌÚ_122-5);}.cls-93{fill:url(#_ÂÁ_Ï_ÌÌ_È_ËÂÌÚ_122-6);}.cls-94{fill:url(#_ÂÁ_Ï_ÌÌ_È_ËÂÌÚ_122-7);}.cls-95{fill:url(#_ÂÁ_Ï_ÌÌ_È_ËÂÌÚ_122-8);}.cls-96{fill:url(#_ÂÁ_Ï_ÌÌ_È_ËÂÌÚ_122-9);}.cls-97{fill:url(#_ÂÁ_Ï_ÌÌ_È_ËÂÌÚ_122-10);}.cls-98{fill:url(#_ÂÁ_Ï_ÌÌ_È_ËÂÌÚ_122-11);}.cls-99{fill:url(#_ÂÁ_Ï_ÌÌ_È_ËÂÌÚ_122-12);}.cls-100{fill:url(#_ÂÁ_Ï_ÌÌ_È_ËÂÌÚ_122-13);}.cls-101{fill:url(#_ÂÁ_Ï_ÌÌ_È_ËÂÌÚ_122-14);}.cls-102{fill:url(#_ÂÁ_Ï_ÌÌ_È_ËÂÌÚ_122-15);}.cls-103{mix-blend-mode:color;opacity:0.2;fill:url(#linear-gradient);}</style><linearGradient id="_ÂÁ_Ï_ÌÌ_È_ËÂÌÚ_92" x1="572.86" y1="104.6" x2="572.86" y2="12.69" gradientTransform="translate(125.77 793.21) rotate(-71.74)" gradientUnits="userSpaceOnUse"><stop offset="0.03" stop-color="#84a1ff"/><stop offset="0.98" stop-color="#5b72ec"/></linearGradient><linearGradient id="_ÂÁ_Ï_ÌÌ_È_ËÂÌÚ_2" x1="587.03" y1="80.86" x2="587.03" y2="-4.27" gradientTransform="translate(125.77 793.21) rotate(-71.74)" gradientUnits="userSpaceOnUse"><stop offset="0.02" stop-color="#5bc9ec"/><stop offset="0.97" stop-color="#84a1ff"/></linearGradient><linearGradient id="_ÂÁ_Ï_ÌÌ_È_ËÂÌÚ_143" x1="270.84" y1="383" x2="270.84" y2="262.62" gradientUnits="userSpaceOnUse"><stop offset="0" stop-color="#c0c9ec"/><stop offset="1" stop-color="#bdabeb"/></linearGradient><linearGradient id="_ÂÁ_Ï_ÌÌ_È_ËÂÌÚ_98" x1="275.79" y1="394.24" x2="306.94" y2="394.24" gradientUnits="userSpaceOnUse"><stop offset="0.02" stop-color="#ff7740"/><stop offset="0.97" stop-color="#ff515e"/></linearGradient><linearGradient id="_ÂÁ_Ï_ÌÌ_È_ËÂÌÚ_4" x1="169.6" y1="218.15" x2="169.6" y2="216.88" gradientUnits="userSpaceOnUse"><stop offset="0.02" stop-color="#e4deec"/><stop offset="1" stop-color="#cfbfeb"/></linearGradient><linearGradient id="_ÂÁ_Ï_ÌÌ_È_ËÂÌÚ_4-2" x1="250.88" y1="387.71" x2="250.88" y2="208.68" xlink:href="#_ÂÁ_Ï_ÌÌ_È_ËÂÌÚ_4"/><linearGradient id="_ÂÁ_Ï_ÌÌ_È_ËÂÌÚ_139" x1="295.03" y1="406.74" x2="295.03" y2="159.66" gradientUnits="userSpaceOnUse"><stop offset="0" stop-color="#fff"/><stop offset="0.99" stop-color="#8259ac"/></linearGradient><linearGradient id="_ÂÁ_Ï_ÌÌ_È_ËÂÌÚ_4-3" x1="304.75" y1="212.2" x2="304.75" y2="211.31" xlink:href="#_ÂÁ_Ï_ÌÌ_È_ËÂÌÚ_4"/><linearGradient id="_ÂÁ_Ï_ÌÌ_È_ËÂÌÚ_4-4" x1="326.38" y1="280.56" x2="326.38" y2="214.65" xlink:href="#_ÂÁ_Ï_ÌÌ_È_ËÂÌÚ_4"/><linearGradient id="_ÂÁ_Ï_ÌÌ_È_ËÂÌÚ_139-2" x1="311.44" y1="280.56" x2="311.44" y2="181.97" xlink:href="#_ÂÁ_Ï_ÌÌ_È_ËÂÌÚ_139"/><linearGradient id="_ÂÁ_Ï_ÌÌ_È_ËÂÌÚ_127" x1="268.43" y1="342.91" x2="268.43" y2="288.86" gradientUnits="userSpaceOnUse"><stop offset="0" stop-color="#cad6ff"/><stop offset="0.99" stop-color="#9775ba"/></linearGradient><linearGradient id="_ÂÁ_Ï_ÌÌ_È_ËÂÌÚ_146" x1="324.19" y1="309.81" x2="324.19" y2="192.91" gradientTransform="matrix(1, 0, -0.04, 1, 14.47, -0.72)" gradientUnits="userSpaceOnUse"><stop offset="0" stop-color="#fff"/><stop offset="0.99" stop-color="#943bac"/></linearGradient><linearGradient id="_ÂÁ_Ï_ÌÌ_È_ËÂÌÚ_91" x1="328.87" y1="324.07" x2="328.87" y2="189.45" gradientUnits="userSpaceOnUse"><stop offset="0.03" stop-color="#d36fff"/><stop offset="0.98" stop-color="#a240ec"/></linearGradient><linearGradient id="_ÂÁ_Ï_ÌÌ_È_ËÂÌÚ_146-2" x1="619.44" y1="15.07" x2="672.64" y2="15.07" gradientTransform="matrix(0.18, -0.91, 0.98, 0.12, 203.16, 822.3)" xlink:href="#_ÂÁ_Ï_ÌÌ_È_ËÂÌÚ_146"/><linearGradient id="_ÂÁ_Ï_ÌÌ_È_ËÂÌÚ_2-2" x1="618.83" y1="15.1" x2="671.75" y2="15.1" gradientTransform="matrix(0.12, -0.99, 0.99, 0.12, 236.99, 874.33)" xlink:href="#_ÂÁ_Ï_ÌÌ_È_ËÂÌÚ_2"/><linearGradient id="_ÂÁ_Ï_ÌÌ_È_ËÂÌÚ_146-3" x1="325.15" y1="295.84" x2="325.15" y2="189.45" gradientTransform="matrix(1, 0, 0, 1, 0, 0)" xlink:href="#_ÂÁ_Ï_ÌÌ_È_ËÂÌÚ_146"/><radialGradient id="_ÂÁ_Ï_ÌÌ_È_ËÂÌÚ_122" cx="545.31" cy="61.34" r="6.89" gradientTransform="translate(125.77 793.21) rotate(-71.74)" gradientUnits="userSpaceOnUse"><stop offset="0" stop-color="#ff4300"/><stop offset="0.08" stop-color="#e03b00"/><stop offset="0.28" stop-color="#9d2900"/><stop offset="0.46" stop-color="#651b00"/><stop offset="0.63" stop-color="#390f00"/><stop offset="0.78" stop-color="#1a0700"/><stop offset="0.91" stop-color="#070200"/><stop offset="1"/></radialGradient><linearGradient id="_ÂÁ_Ï_ÌÌ_È_ËÂÌÚ_101" x1="301.14" y1="219.41" x2="301.14" y2="183.63" gradientUnits="userSpaceOnUse"><stop offset="0.02" stop-color="#ff7288"/><stop offset="0.97" stop-color="#ff11a1"/></linearGradient><linearGradient id="_ÂÁ_Ï_ÌÌ_È_ËÂÌÚ_92-2" x1="321.93" y1="224.37" x2="321.93" y2="195.51" gradientTransform="matrix(1, 0, 0, 1, 0, 0)" xlink:href="#_ÂÁ_Ï_ÌÌ_È_ËÂÌÚ_92"/><linearGradient id="_ÂÁ_Ï_ÌÌ_È_ËÂÌÚ_139-3" x1="243.67" y1="175.3" x2="384.31" y2="235.53" xlink:href="#_ÂÁ_Ï_ÌÌ_È_ËÂÌÚ_139"/><linearGradient id="_ÂÁ_Ï_ÌÌ_È_ËÂÌÚ_77" x1="310.68" y1="219.37" x2="310.68" y2="188.16" gradientUnits="userSpaceOnUse"><stop offset="0.02" stop-color="#ffa451"/><stop offset="0.97" stop-color="#ff515e"/></linearGradient><linearGradient id="_ÂÁ_Ï_ÌÌ_È_ËÂÌÚ_139-4" x1="303.49" y1="234.34" x2="303.49" y2="163.7" xlink:href="#_ÂÁ_Ï_ÌÌ_È_ËÂÌÚ_139"/><radialGradient id="_ÂÁ_Ï_ÌÌ_È_ËÂÌÚ_122-2" cx="614.98" cy="-5.24" r="6.89" xlink:href="#_ÂÁ_Ï_ÌÌ_È_ËÂÌÚ_122"/><linearGradient id="_ÂÁ_Ï_ÌÌ_È_ËÂÌÚ_2-3" x1="618.83" y1="28.89" x2="671.75" y2="28.89" gradientTransform="matrix(0.12, -0.99, 0.99, 0.12, 236.99, 874.33)" xlink:href="#_ÂÁ_Ï_ÌÌ_È_ËÂÌÚ_2"/><radialGradient id="_ÂÁ_Ï_ÌÌ_È_ËÂÌÚ_122-3" cx="560.32" cy="45.57" r="18.22" gradientTransform="matrix(0.97, -0.25, 0.25, 0.97, -209.28, 371.74)" xlink:href="#_ÂÁ_Ï_ÌÌ_È_ËÂÌÚ_122"/><linearGradient id="_ÂÁ_Ï_ÌÌ_È_ËÂÌÚ_92-3" x1="55.26" y1="337.09" x2="55.26" y2="237.82" gradientTransform="matrix(1, 0, 0, 1, 0, 0)" xlink:href="#_ÂÁ_Ï_ÌÌ_È_ËÂÌÚ_92"/><linearGradient id="_ÂÁ_Ï_ÌÌ_È_ËÂÌÚ_77-2" x1="90.5" y1="261.61" x2="90.5" y2="192.95" xlink:href="#_ÂÁ_Ï_ÌÌ_È_ËÂÌÚ_77"/><linearGradient id="_ÂÁ_Ï_ÌÌ_È_ËÂÌÚ_91-2" x1="61.12" y1="314.97" x2="61.12" y2="218.61" xlink:href="#_ÂÁ_Ï_ÌÌ_È_ËÂÌÚ_91"/><linearGradient id="_ÂÁ_Ï_ÌÌ_È_ËÂÌÚ_101-2" x1="77.65" y1="268.03" x2="77.65" y2="207.52" xlink:href="#_ÂÁ_Ï_ÌÌ_È_ËÂÌÚ_101"/><linearGradient id="_ÂÁ_Ï_ÌÌ_È_ËÂÌÚ_146-4" x1="68.06" y1="312.01" x2="68.06" y2="197.51" gradientTransform="matrix(1, 0, 0, 1, 0, 0)" xlink:href="#_ÂÁ_Ï_ÌÌ_È_ËÂÌÚ_146"/><linearGradient id="_ÂÁ_Ï_ÌÌ_È_ËÂÌÚ_2-4" x1="68.39" y1="311.46" x2="68.39" y2="229.6" gradientTransform="matrix(1, 0, 0, 1, 0, 0)" xlink:href="#_ÂÁ_Ï_ÌÌ_È_ËÂÌÚ_2"/><linearGradient id="_ÂÁ_Ï_ÌÌ_È_ËÂÌÚ_101-3" x1="82.22" y1="135" x2="82.22" y2="92.4" xlink:href="#_ÂÁ_Ï_ÌÌ_È_ËÂÌÚ_101"/><linearGradient id="_ÂÁ_Ï_ÌÌ_È_ËÂÌÚ_139-5" x1="83.05" y1="135" x2="83.05" y2="93.58" xlink:href="#_ÂÁ_Ï_ÌÌ_È_ËÂÌÚ_139"/><linearGradient id="_ÂÁ_Ï_ÌÌ_È_ËÂÌÚ_143-2" x1="138.11" y1="386.6" x2="138.11" y2="256.58" xlink:href="#_ÂÁ_Ï_ÌÌ_È_ËÂÌÚ_143"/><linearGradient id="_ÂÁ_Ï_ÌÌ_È_ËÂÌÚ_98-2" x1="143.46" y1="398.74" x2="177.1" y2="398.74" xlink:href="#_ÂÁ_Ï_ÌÌ_È_ËÂÌÚ_98"/><linearGradient id="_ÂÁ_Ï_ÌÌ_È_ËÂÌÚ_4-5" x1="161.85" y1="391.69" x2="161.85" y2="146.7" xlink:href="#_ÂÁ_Ï_ÌÌ_È_ËÂÌÚ_4"/><linearGradient id="_ÂÁ_Ï_ÌÌ_È_ËÂÌÚ_139-6" x1="167.14" y1="391.69" x2="167.14" y2="146.7" xlink:href="#_ÂÁ_Ï_ÌÌ_È_ËÂÌÚ_139"/><linearGradient id="_ÂÁ_Ï_ÌÌ_È_ËÂÌÚ_5" x1="127.04" y1="217.9" x2="127.04" y2="90.15" gradientUnits="userSpaceOnUse"><stop offset="0" stop-color="#cfbfeb"/><stop offset="0.98" stop-color="#e4deec"/></linearGradient><linearGradient id="_ÂÁ_Ï_ÌÌ_È_ËÂÌÚ_127-2" x1="131.99" y1="217.9" x2="131.99" y2="90.15" xlink:href="#_ÂÁ_Ï_ÌÌ_È_ËÂÌÚ_127"/><linearGradient id="_ÂÁ_Ï_ÌÌ_È_ËÂÌÚ_213" x1="90.28" y1="114.35" x2="90.28" gradientUnits="userSpaceOnUse"><stop offset="0" stop-color="#ff8757"/><stop offset="0.98" stop-color="#ffb34c"/></linearGradient><linearGradient id="_ÂÁ_Ï_ÌÌ_È_ËÂÌÚ_156" x1="90.42" y1="114.35" x2="90.42" y2="0.19" gradientUnits="userSpaceOnUse"><stop offset="0" stop-color="#fff"/><stop offset="0.99" stop-color="#b10bac"/></linearGradient><linearGradient id="_ÂÁ_Ï_ÌÌ_È_ËÂÌÚ_4-6" x1="177.09" y1="168.73" x2="177.09" y2="114.46" gradientTransform="translate(-15.01 -28.1) rotate(-6.21)" xlink:href="#_ÂÁ_Ï_ÌÌ_È_ËÂÌÚ_4"/><linearGradient id="_ÂÁ_Ï_ÌÌ_È_ËÂÌÚ_56" x1="141.93" y1="124.93" x2="141.93" y2="59.18" gradientUnits="userSpaceOnUse"><stop offset="0.02" stop-color="#a272ec"/><stop offset="0.97" stop-color="#d36fff"/></linearGradient><linearGradient id="_ÂÁ_Ï_ÌÌ_È_ËÂÌÚ_46" x1="151.33" y1="114.36" x2="151.33" y2="69.93" gradientUnits="userSpaceOnUse"><stop offset="0.02" stop-color="#5b72ec"/><stop offset="0.97" stop-color="#84a1ff"/></linearGradient><linearGradient id="_ÂÁ_Ï_ÌÌ_È_ËÂÌÚ_77-3" x1="68.9" y1="125.74" x2="68.9" y2="94.38" xlink:href="#_ÂÁ_Ï_ÌÌ_È_ËÂÌÚ_77"/><linearGradient id="_ÂÁ_Ï_ÌÌ_È_ËÂÌÚ_77-4" x1="201.2" y1="266.41" x2="201.2" y2="217.89" xlink:href="#_ÂÁ_Ï_ÌÌ_È_ËÂÌÚ_77"/><linearGradient id="_ÂÁ_Ï_ÌÌ_È_ËÂÌÚ_91-3" x1="185.47" y1="288.13" x2="185.47" y2="160.23" xlink:href="#_ÂÁ_Ï_ÌÌ_È_ËÂÌÚ_91"/><linearGradient id="_ÂÁ_Ï_ÌÌ_È_ËÂÌÚ_101-4" x1="192.52" y1="254.19" x2="192.52" y2="174.65" xlink:href="#_ÂÁ_Ï_ÌÌ_È_ËÂÌÚ_101"/><linearGradient id="_ÂÁ_Ï_ÌÌ_È_ËÂÌÚ_92-4" x1="184.5" y1="223.58" x2="184.5" y2="114.36" gradientTransform="matrix(1, 0, 0, 1, 0, 0)" xlink:href="#_ÂÁ_Ï_ÌÌ_È_ËÂÌÚ_92"/><linearGradient id="_ÂÁ_Ï_ÌÌ_È_ËÂÌÚ_118" x1="130.23" y1="171.32" x2="130.23" y2="143.02" gradientUnits="userSpaceOnUse"><stop offset="0" stop-color="#fff"/><stop offset="1" stop-color="#bdbfff"/></linearGradient><linearGradient id="_ÂÁ_Ï_ÌÌ_È_ËÂÌÚ_109" x1="133.48" y1="168.71" x2="133.48" y2="142.29" gradientTransform="translate(149.05 -48.84) rotate(45)" gradientUnits="userSpaceOnUse"><stop offset="0.01" stop-color="#634f90"/><stop offset="1" stop-color="#3b0643"/></linearGradient><linearGradient id="_ÂÁ_Ï_ÌÌ_È_ËÂÌÚ_101-5" x1="112.93" y1="126.54" x2="139.82" y2="126.54" xlink:href="#_ÂÁ_Ï_ÌÌ_È_ËÂÌÚ_101"/><linearGradient id="_ÂÁ_Ï_ÌÌ_È_ËÂÌÚ_29" x1="88.47" y1="190.94" x2="96.6" y2="190.94" gradientUnits="userSpaceOnUse"><stop offset="0.01" stop-color="#9775ba"/><stop offset="1" stop-color="#ffeadb"/></linearGradient><linearGradient id="_ÂÁ_Ï_ÌÌ_È_ËÂÌÚ_132" x1="67.96" y1="179.13" x2="107.32" y2="179.13" gradientUnits="userSpaceOnUse"><stop offset="0" stop-color="#ffeadb"/><stop offset="0.99"/></linearGradient><linearGradient id="_ÂÁ_Ï_ÌÌ_È_ËÂÌÚ_127-3" x1="137.98" y1="337.09" x2="137.98" y2="282.95" xlink:href="#_ÂÁ_Ï_ÌÌ_È_ËÂÌÚ_127"/><linearGradient id="_ÂÁ_Ï_ÌÌ_È_ËÂÌÚ_127-4" x1="122.69" y1="296.92" x2="164.5" y2="296.92" xlink:href="#_ÂÁ_Ï_ÌÌ_È_ËÂÌÚ_127"/><linearGradient id="_ÂÁ_Ï_ÌÌ_È_ËÂÌÚ_139-7" x1="142.15" y1="124.93" x2="142.15" y2="59.3" xlink:href="#_ÂÁ_Ï_ÌÌ_È_ËÂÌÚ_139"/><linearGradient id="_ÂÁ_Ï_ÌÌ_È_ËÂÌÚ_3" x1="175.7" y1="121.79" x2="175.7" y2="70.84" gradientUnits="userSpaceOnUse"><stop offset="0.02" stop-color="#ff9fa6"/><stop offset="1" stop-color="#ff88c7"/></linearGradient><linearGradient id="_ÂÁ_Ï_ÌÌ_È_ËÂÌÚ_127-5" x1="176.31" y1="111.11" x2="176.31" y2="70.84" xlink:href="#_ÂÁ_Ï_ÌÌ_È_ËÂÌÚ_127"/><linearGradient id="_ÂÁ_Ï_ÌÌ_È_ËÂÌÚ_139-8" x1="187.55" y1="288.05" x2="187.55" y2="114.36" xlink:href="#_ÂÁ_Ï_ÌÌ_È_ËÂÌÚ_139"/><linearGradient id="_ÂÁ_Ï_ÌÌ_È_ËÂÌÚ_2-5" x1="193.81" y1="199.14" x2="193.81" y2="138.24" gradientTransform="matrix(1, 0, 0, 1, 0, 0)" xlink:href="#_ÂÁ_Ï_ÌÌ_È_ËÂÌÚ_2"/><radialGradient id="_ÂÁ_Ï_ÌÌ_È_ËÂÌÚ_122-4" cx="167.56" cy="147.59" r="10.36" gradientTransform="translate(290.12 -39.06) rotate(81.92)" xlink:href="#_ÂÁ_Ï_ÌÌ_È_ËÂÌÚ_122"/><radialGradient id="_ÂÁ_Ï_ÌÌ_È_ËÂÌÚ_122-5" cx="130.23" cy="237.82" r="10.36" gradientTransform="matrix(1, 0, 0, 1, 0, 0)" xlink:href="#_ÂÁ_Ï_ÌÌ_È_ËÂÌÚ_122"/><radialGradient id="_ÂÁ_Ï_ÌÌ_È_ËÂÌÚ_122-6" cx="25.5" cy="290.37" r="7.44" gradientTransform="matrix(1, 0, 0, 1, 0, 0)" xlink:href="#_ÂÁ_Ï_ÌÌ_È_ËÂÌÚ_122"/><radialGradient id="_ÂÁ_Ï_ÌÌ_È_ËÂÌÚ_122-7" cx="50.24" cy="270.53" r="19.68" gradientTransform="matrix(1, 0, 0, 1, 0, 0)" xlink:href="#_ÂÁ_Ï_ÌÌ_È_ËÂÌÚ_122"/><radialGradient id="_ÂÁ_Ï_ÌÌ_È_ËÂÌÚ_122-8" cx="170.7" cy="160.23" r="6.74" gradientTransform="matrix(1, 0, 0, 1, 0, 0)" xlink:href="#_ÂÁ_Ï_ÌÌ_È_ËÂÌÚ_122"/><radialGradient id="_ÂÁ_Ï_ÌÌ_È_ËÂÌÚ_122-9" cx="160.28" cy="274.21" r="12.11" gradientTransform="matrix(1, 0, 0, 1, 0, 0)" xlink:href="#_ÂÁ_Ï_ÌÌ_È_ËÂÌÚ_122"/><radialGradient id="_ÂÁ_Ï_ÌÌ_È_ËÂÌÚ_122-10" cx="185.13" cy="254.76" r="12.65" gradientTransform="matrix(1, 0, 0, 1, 0, 0)" xlink:href="#_ÂÁ_Ï_ÌÌ_È_ËÂÌÚ_122"/><radialGradient id="_ÂÁ_Ï_ÌÌ_È_ËÂÌÚ_122-11" cx="124.53" cy="63.87" r="12.65" gradientTransform="translate(26.72 -36.23) rotate(18.51)" xlink:href="#_ÂÁ_Ï_ÌÌ_È_ËÂÌÚ_122"/><radialGradient id="_ÂÁ_Ï_ÌÌ_È_ËÂÌÚ_122-12" cx="127.04" cy="105.26" r="12.65" gradientTransform="translate(200.18 -42.62) rotate(76.68)" xlink:href="#_ÂÁ_Ï_ÌÌ_È_ËÂÌÚ_122"/><radialGradient id="_ÂÁ_Ï_ÌÌ_È_ËÂÌÚ_122-13" cx="211.88" cy="230.72" r="6.74" gradientTransform="matrix(1, 0, 0, 1, 0, 0)" xlink:href="#_ÂÁ_Ï_ÌÌ_È_ËÂÌÚ_122"/><radialGradient id="_ÂÁ_Ï_ÌÌ_È_ËÂÌÚ_122-14" cx="167.56" cy="260.94" r="4.92" gradientTransform="matrix(1, 0, 0, 1, 0, 0)" xlink:href="#_ÂÁ_Ï_ÌÌ_È_ËÂÌÚ_122"/><radialGradient id="_ÂÁ_Ï_ÌÌ_È_ËÂÌÚ_122-15" cx="176.31" cy="129.97" r="3.64" gradientTransform="matrix(1, 0, 0, 1, 0, 0)" xlink:href="#_ÂÁ_Ï_ÌÌ_È_ËÂÌÚ_122"/><linearGradient id="linear-gradient" x1="403.58" y1="493.89" x2="50.75" y2="141.05" gradientUnits="userSpaceOnUse"><stop offset="0" stop-color="#0bc59f"/><stop offset="0.16" stop-color="#0cae9c"/><stop offset="0.51" stop-color="#0f7393"/><stop offset="1" stop-color="#131586"/></linearGradient></defs><g class="cls-1"><g id="Layer_1" data-name="Layer 1"><path class="cls-2" d="M362.11,319.06h0l.34.17q1.88,1,3.78,1.8v0A73.72,73.72,0,0,0,389,326.31s-12.34-5-18-21.89v0c-4.55-20.38-3.75-42.21,1.1-65.59s-11.2-24.83-24.52-26.47c-7-.86-14.9-6.68-20.85-12l-.06-.07a24.13,24.13,0,0,0-5.54-5.35s0,0-.05,0h0c-2.2-2.28-3.52-3.85-3.52-3.85s.92,1.24,2.39,3.13a15.05,15.05,0,0,0-1.51-.75h0a16.65,16.65,0,0,0-4.65-2.71h0c-8.14-6.26-15.21-4.88-15.21-4.88s-10.74,3.15-15.49,11.07a12.6,12.6,0,0,0-1.24,2.72,9,9,0,0,0-.33,4.51c.05.26.11.52.18.76l.07.25a4.56,4.56,0,0,0,.18.52,10.2,10.2,0,0,0,2,3.2,88.9,88.9,0,0,0-18.26.9c-1.21.17-2.42.37-3.63.58l-.49.08c-1.21.22-2.42.45-3.62.69l-.23.05c-12.11,2.44-24.43,6.1-40,7.91-.1-.73-.16-1.14-.16-1.14l-.11.41a68.42,68.42,0,0,0-1.26-16.52c-1.65-8.63-5.75-17.5-9.89-24.82,11.7-4.46,10.22-13.79-1.76-19.19-13.56-6.12-17.76-19.53-17.76-19.53h0c-3.77-11.39-6.91-23.88-6.91-23.88l-.51.42a30.87,30.87,0,0,0,2.39-2.45,21.09,21.09,0,0,0,4.51-6.88,24.5,24.5,0,0,0,1.58-4.63c3-12.82,6.62-36.95,6.62-36.95-15.83,1.16-28.66,12.85-35.08,21.5h0s-2-2.1-5-5l-2.26-2.29a41.52,41.52,0,0,1-15.16,3c-10.84,0,7.74-14.86.7-21.8-15.39-5.15-29.31,8.35-26.39,16,1.41,3.68-.87.67-1.12,2.8A86.71,86.71,0,0,0,93.44,58.64c2.82-23.76-20-33.65-20-33.65-1-9.47-7.4-16.78-12.14-21-1.76-.13.94-3.65-.73-4-4.92,5.32-3.86,24.19,3.95,40.28C65.89,43,66.83,46,68.2,48.66c1.19,2.47,2,3.87,2,3.87-.6,27.34,11.7,33.63,11.7,33.63l0,2.22a44.14,44.14,0,0,0,.49,5.46c-.23.31-.51.66-.84,1.06-1.09,1-4.8,3.47-17,5.93-16.05,3.24-14,10.25-12.13,20.15,0,0-.48-7.29,9.27-12.24,3.91-2,7.67-3.52,10.9-5.12-.68.56-1.38,1.14-2.15,1.73a8.55,8.55,0,0,0-2,2.19c-5.5,8.56,4.89,25.24,6.21,27.25l.07.13a.17.17,0,0,0,0,.07c-.64,11.22,3.77,28.66,3.31,33.2-.44,4.11-10.2,11.93-12.19,20.33-.15.43-.28.86-.38,1.27l.17,0a10.87,10.87,0,0,0-.12,2.35c.52,7.79,7.5,16.53,12.32,21.29A53.17,53.17,0,0,0,70,216s24.77-9.75,0,0c-24.3,9.57-29.37,44.4-26.9,43.43a3,3,0,0,0,1.46-2.15c-.22.16,11.32-21.42,20.21-27.24S77.24,223.78,83.1,223c-.27.28-.53.55-.78.84h0c-6.24,6.75-13.14,16.3-21.38,23.29-12,6.27-23.76,15.06-33,20.34l-1.12.61,0,0,0,0-.11.05-.05,0C-1.86,281.15,0,315,0,315c.63-2.85.58-5.46,2-7.83,0,.14,0,.27-.07.41-.24,1.49-.41,3-.51,4.46l0,0A68.08,68.08,0,0,0,4.8,337.09s-.06-14.28,15.33-25.63h0c19.31-11.33,42-17.65,67.66-20.33s19.65-18,16.67-32.2,9.06-29.32,9.06-29.32l-.21.17a21.54,21.54,0,0,1,3.17-2.4l1.47-3.61,0,0,2.11-5.13c-1.22,3-2.48,6-3.6,8.76-4.43,10.72-5.7,14.31-6.44,21.3a53.9,53.9,0,0,0,.18,10.49c.54,6.19,2.06,22.63,4.43,38.95,3,20.66,19.84,60.54,20.41,68s.2,18.54.2,18.54l.78.22s-.46,13.6.23,21.25a54.84,54.84,0,0,0,7.35.91c-.13,1.51-.21,3-.2,4.51,0,0,2.86,3.9,13.79,2.27S173.37,402,175,397.9s1.82-14.66,1.82-14.66h0c2.51-1.65,4.33-3.14,4.7-4,1.17-2.72-.69-24.23,1.08-30.08s7.9-12.74,10.62-21.41c.75-2.4,1.58-5.92,2.45-9.89a102.19,102.19,0,0,0,19.65,1.39c12.39-.29,25.49-3.27,36.37-6.47,5.32,19.67,15.91,45.56,16.34,51.25.53,6.92.19,17.16.19,17.16s.25.08.72.2h0s-.43,12.6.21,19.68a50.18,50.18,0,0,0,6.8.84c-.12,1.41-.19,2.81-.19,4.18,0,0,2.65,3.61,12.77,2.11s14.94-11,16.41-14.76,1.69-13.57,1.69-13.57h0c2.32-1.52,4-2.9,4.35-3.69,1.08-2.51-.64-22.42,1-27.84s7.31-11.8,9.83-19.83c1.77-5.67,4-17.89,6.24-27,1.51-3.58,2.94-6.87,4.24-9.71.22-.5.44-1,.65-1.49A17.3,17.3,0,0,0,336,292c.36,1.31.77,2.58,1.23,3.8,7.92,20.6,29.91,27.92,30.89,28.23A25.64,25.64,0,0,1,362.11,319.06Zm-260.4-45.58c-.8,8.71-11.46,11.89-24.21,14.19,9.86-4.64,17.22-10.19,18.76-18a150.74,150.74,0,0,1,4.08-16.1C100.41,259.33,102.49,265.08,101.71,273.48Zm6.33-38A43.78,43.78,0,0,1,112,231,45.54,45.54,0,0,0,108,235.47ZM155.37,91.84c-.26.65-.53,1.23-.8,1.79l-.15,0c.35-.67.71-1.33,1.07-2Zm44.4,74.83c-2.54-3.73-4.41-6.11-4.66-6.42a20.24,20.24,0,0,0-1.35-5.11c4.19,4.6,8.56,5.1,9.2,7C203.49,163.8,202.11,165.18,199.77,166.67ZM355.57,225a143.32,143.32,0,0,1-13-8.41c5.1,1.67,10.74,1.57,17.91,4.77,7.44,3.31,7.24,13.64,5.68,25.54C364.84,236.79,362,228.65,355.57,225Z"/><path class="cls-3" d="M332.65,206.57l0,0A131.42,131.42,0,0,0,357.62,225c15.45,8.92,9.54,43.53,12.34,69a52.91,52.91,0,0,0,2.19,10.45l0,0c5.48,16.93,17.77,21.89,17.77,21.89a73.18,73.18,0,0,1-22.7-5.26v0c-1.26-.54-2.52-1.14-3.76-1.8l-.34-.17a33.93,33.93,0,0,1-10.64-8.69c-10.41-13.29-3.39-41.73-8.42-62.52a39.61,39.61,0,0,0-2.22-6.81c-.48-1.13-1-2.22-1.39-3.3a121.83,121.83,0,0,1-6.17-19.65,71.52,71.52,0,0,1-1.58-10.53v0C332.66,206.91,332.65,206.57,332.65,206.57Z"/><path class="cls-4" d="M319.94,191s16.5,19.7,29.8,21.34,29.35,3.09,24.24,26.47-6.14,45.23-1.81,65.61a70.23,70.23,0,0,1-6.75-41.11c2.41-17.69,7.86-37.2-2.86-42s-18.06-2.14-25.19-9.25S319.94,191,319.94,191Z"/><path class="cls-5" d="M339.27,251.45a66.14,66.14,0,0,1-5.73,36.94c-9.07,19.46-25,59.72-27.11,71.1s-19.12,13.28-30.64.5-21.59-77-21.59-77S325.55,242,339.27,251.45Z"/><path class="cls-5" d="M339.27,253.16a66.14,66.14,0,0,1-5.73,36.94c-9.07,19.46-25,59.72-27.11,71.11s-19.12,13.27-30.64.5-21.59-77-21.59-77S325.55,243.74,339.27,253.16Z"/><path class="cls-5" d="M339.27,254.88a66.1,66.1,0,0,1-5.73,36.93c-9.07,19.47-25,59.73-27.11,71.11s-19.12,13.28-30.64.5-21.59-77-21.59-77S325.55,245.46,339.27,254.88Z"/><path class="cls-6" d="M269.23,381.41s-.56,12.6,0,19.68c0,0,9.59,2,15.62,0s10.41-19.68,10.41-19.68S276,381.54,269.23,381.41Z"/><path class="cls-7" d="M246.41,262.62s1.32,19.33,3.88,38.45,17.77,56.05,18.22,63,0,17.16,0,17.16,16.82,5.12,24.3-2a52.12,52.12,0,0,1,2.2-10.84c1.66-4.66-5.27-16.74-8.28-33.76s-3.8-29-3.8-29Z"/><path class="cls-8" d="M279.83,383.71s-3.94,12.16-4,22.4c0,0,2.61,3.61,12.75,2.11s15-11,16.56-14.76,1.84-13.57,1.84-13.57S298.42,386.8,279.83,383.71Z"/><path class="cls-9" d="M279,386.66s-.7,2.77,8.25,5,19.55-8.7,19.55-8.7l.18-3.11-27.11,3.82Z"/><path class="cls-10" d="M165.56,216.88a52.44,52.44,0,0,1,8.07,1.27C171,217.79,168.34,217.36,165.56,216.88Z"/><path class="cls-11" d="M333.91,287.13a38.79,38.79,0,0,1-1.8,5.26c-3.21,6.82-6.84,28.1-9.45,36.14s-8.33,14.41-10,19.83-.19,25.33-1.3,27.84-15.57,10.73-21.17,11.45-10.75-4.32-10.75-4.32c.61-3.62,2.6-9.24,4.21-16.08s4-15.48,2.42-19.35c-1.75-4.34-3-37.82-9.89-43-6.86,2.25-34.83,13.79-59.86,14.37S171.2,311.52,172,305s-12.89-9.31-8.69-19.25c1.08-2.52,17.68-56.74,18.84-59.5,1.89-4.49-3.39-6.91-8.47-8.14,46.54,6.55,69.43-4.87,94.2-8.43a89,89,0,0,1,18.27-.9l.55,0a93.52,93.52,0,0,1,19.85,3.34c1.51.43,2.95.91,4.35,1.42l.72.28A55.65,55.65,0,0,1,321.91,219a41,41,0,0,1,10,8.76,31.83,31.83,0,0,1,6.77,14c.21,1.2.36,2.26.45,3.17C340.08,256.08,336.86,276.5,333.91,287.13Z"/><path class="cls-12" d="M339.14,244.91c-.09-.91-.24-2-.45-3.17a31.83,31.83,0,0,0-6.77-14,41,41,0,0,0-10-8.76,59.13,59.13,0,0,0-15.41-6.81,93.52,93.52,0,0,0-19.85-3.34l-.55,0a89,89,0,0,0-18.27.9c-5.69.81-11.28,2.05-17.08,3.38,18.24-4.6,96.7-4.42,77.12,71.19a49.16,49.16,0,0,1-3.78,10c-.3,3.68-.62,7.36-.69,11.06-.4,21.7-17.34,37.81-37.93,40.14a13.49,13.49,0,0,0,.56,2.43c1.56,3.87-.8,12.53-2.42,19.35s-3.6,12.46-4.21,16.08c0,0,5.12,5,10.75,4.32s20.07-8.95,21.17-11.45-.4-22.42,1.3-27.84,7.44-11.8,10-19.83,6.24-29.32,9.45-36.14S340.29,258.45,339.14,244.91Z"/><path class="cls-13" d="M306.34,212.17a.41.41,0,0,1,.16,0l-3.14-.39-.36,0s0-.07,0-.1.05-.24.08-.36a4.31,4.31,0,0,1,.62.15C304.61,211.67,305.49,211.91,306.34,212.17Z"/><path class="cls-14" d="M335.5,280.56c-.39-3.05-.85-6.37-1.37-9.91,0,0,0-.1,0-.15,5.32-21.07,1.55-37.37-10.85-50.12l-9.8-5.73a53.43,53.43,0,0,1,7.75,3.93c.24.14.46.27.7.43s.38.24.56.37a40.53,40.53,0,0,1,9.45,8.39,31.83,31.83,0,0,1,6.77,14c.21,1.2.36,2.26.45,3.17C339.91,254.08,337.89,269.47,335.5,280.56Z"/><path class="cls-15" d="M335.5,280.56c-.39-3.05-.85-6.37-1.37-9.91,0,0,0-.1,0-.15,5.32-21.07,1.55-37.37-10.85-50.12l-9.8-5.73a64.34,64.34,0,0,0-7-2.45l-3.14-.39-.36,0s0-.07,0-.1.05-.24.08-.36c-.58-.15-1.16-.29-1.76-.41-1.44-.33-2.91-.62-4.46-.86-2-.34-4-.62-6.17-.82-1.32-.16-2.67-.28-4.06-.36l-.55,0a10,10,0,0,1-2-3.2,4.51,4.51,0,0,1-.17-.52l-.07-.25c-.07-.24-.12-.5-.17-.76a9,9,0,0,1,.37-4.51c.55-.46,1.1-.92,1.63-1.4l.69.22c.8.28,1.61.53,2.45.76s1.58.42,2.38.61c1,.23,1.94.43,2.93.62s2.15.36,3.24.5c2.18.27,4.55.65,6.95,1l1.92.22c.54.05,1.09.12,1.64.15l.41,0,.05.07c1.48,1.78,3.18,4,4.68,6,2,2.69,3.72,5,4,5.35.06.06.12.15.18.22,1.5,1.8,3,3.5,4.65,5.11.41.41.82.82,1.23,1.2h0a97,97,0,0,0,8.76,7.55c1.35,1.06,2.74,2.09,4.15,3.12,1.18,4.23,2.09,8,2.62,10.85.21,1.2.36,2.26.45,3.17C339.91,254.08,337.89,269.47,335.5,280.56Z"/><path class="cls-16" d="M252.73,312.79c21.92-6.57,25.4,5.48,31.4,30.12-1.28-40.56-9.76-34.65-16.76-54.05C269.19,307.18,269.41,305.32,252.73,312.79Z"/><path class="cls-17" d="M263.38,246a74.17,74.17,0,0,0,.25,33.07c4.27,18.12,20.93,28.51,20.93,28.51a29.51,29.51,0,0,1-21-18.91C257.73,272.48,258.11,259,263.38,246Z"/><path class="cls-18" d="M318.62,333.84s-6.22,7.93-7.93,12.75-.5,20.63-1.3,26.4-15.16,12.15-15.16,12.15,10.14-5.72,11.14-15-1.05-18.19,1.57-23.59S318.62,333.84,318.62,333.84Z"/><path class="cls-18" d="M255.13,311.67c-.35.1-.71.19-1.07.27,1.29,5,3.41,12.06,6.89,21.9,9.34,26.35,10.18,34.48,9.76,45.33a48.15,48.15,0,0,0,2.34-22.44C271.48,346.33,262.37,334.09,255.13,311.67Z"/><path class="cls-19" d="M276.76,405.22s10.75,2,17.47-2.11S304.87,390,304.87,390s-2.06,10.74-11.14,16.11C286,410.62,276.76,405.22,276.76,405.22Z"/><path class="cls-20" d="M333.91,287.13c-.09-.71-.14-1.43-.2-2.15v-.05s0-.07,0-.1v0h0a1.13,1.13,0,0,0,0-.26.56.56,0,0,1,0-.17c0-.11,0-.23,0-.38s0-.29,0-.46c-.09-1.19-.17-2.41-.27-3.69-.25-3.06-.57-6.39-.92-9.92a.86.86,0,0,1,0-.16c6.24-21.09,3.2-37.41-8.6-50.18l0,0a16.53,16.53,0,0,0-1.94-1.76,31.21,31.21,0,0,0-7-3.95A52.26,52.26,0,0,1,325,218.92a38.33,38.33,0,0,1,9.61,8.77,30.42,30.42,0,0,1,6.14,14c.15,1.2.26,2.27.3,3.18C341.46,256.05,337.33,276.49,333.91,287.13Z"/><path class="cls-21" d="M369.07,324.07c-1-.31-22.89-7.63-30.58-28.23a41.44,41.44,0,0,1-2.39-10.12v-.05s0-.07,0-.1v0h0a1.14,1.14,0,0,0,0-.26.61.61,0,0,1,0-.17,3.53,3.53,0,0,0,0-.38c0-.14,0-.29-.05-.46-.14-1.18-.27-2.4-.43-3.69-.39-3.05-.85-6.37-1.37-9.91,0,0,0-.1,0-.15,5.32-21.07,1.55-37.37-10.85-50.12l0,0a18.33,18.33,0,0,0-2-1.76,35.56,35.56,0,0,0-9.07-4.7c-.26-.12-.52-.2-.77-.31h-.07c-1.27-.45-2.54-.86-3.82-1.24l-1-.29c-.89-.26-1.8-.5-2.67-.7-.23-.07-.45-.12-.67-.17-.62-.16-1.22-.3-1.82-.43-1.59-.35-3.14-.65-4.54-.89-2-.38-3.82-.64-5.19-.83-1.82-.24-2.92-.34-2.92-.34a17.79,17.79,0,0,1,.4-2.78,24,24,0,0,1,.9-3.24,23.51,23.51,0,0,1,1.27-2.88,17.19,17.19,0,0,1,8.68-8.07A27.89,27.89,0,0,1,310,189.45c1,0,1.3.19,1.22.54a1.72,1.72,0,0,1-.55.78,9.73,9.73,0,0,1-1.17.95,71.18,71.18,0,0,1-6.65,4c.48-.09,5.32-1.12,9.58-1.9.9-.18,1.75-.33,2.54-.47a34.07,34.07,0,0,1,3.7-.46,5.66,5.66,0,0,1,2.08.48h0a17,17,0,0,1,1.54.77c.36.21.72.45,1.09.7,0,0,0,0,.06,0a23.79,23.79,0,0,1,5.48,5.35,26.76,26.76,0,0,1,2.71,4.28c.34.65.67,1.34,1,2.06v0c.93,1.23,2,2.5,3.16,3.82.5.53,1,1.1,1.54,1.64l.09.09c1.15,1.17,2.41,2.37,3.82,3.57l.84.68a5.75,5.75,0,0,0,.57.46c.82.69,1.68,1.34,2.57,2,16.32,12,23.12,17,15.41,44.31-6.23,21.93-7.68,41.47.61,53.5l0,.05.05.07a17.43,17.43,0,0,0,1.77,2.26A25.17,25.17,0,0,0,369.07,324.07Z"/><path class="cls-22" d="M344.23,262.54c-.18,0-.43-.1-.74-.19-3.44-.93-13.87-4.33-20.34-12.67a18.74,18.74,0,0,1-3.32-7v0c-2.34-9.25,1.09-20.07-.31-26.37a20.77,20.77,0,0,0-.59-2.14,27.4,27.4,0,0,0,1.95-3.91l3,2.56h0A11.87,11.87,0,0,1,327,221c0,1.36-.37,3.62-.71,6.35-.31,2.49-.64,5.37-.77,8.29,0,.07,0,.14,0,.2-.22,5.47.27,11.1,2.89,14.68a36.39,36.39,0,0,0,10.51,9.12c1.82,1.12,3.42,1.93,4.46,2.44l.83.38c.19.1.32.15.38.18Z"/><path class="cls-23" d="M347.32,264.23c-.19,0-.44-.11-.75-.2-3.51-1-14.18-4.56-21.19-13.58a22.3,22.3,0,0,1-3.78-7.56v0c-2.94-10.05-1.46-18.09-1.94-25.16-.09-1.49-11.79-5.33-12.17-5.38.68-1.38-1.14-3.29,4.7-4.79s11.57,2.75,11.57,2.75h0a14.26,14.26,0,0,1,3.61,8.85c.06,1.48-.13,4-.3,6.93-.15,2.71-.29,5.85-.23,9a1.48,1.48,0,0,0,0,.22c.13,6,1,12.09,3.84,16a40.51,40.51,0,0,0,11.12,9.82c1.9,1.2,3.55,2.07,4.62,2.61l.86.41.4.19A2.51,2.51,0,0,1,347.32,264.23Z"/><path class="cls-24" d="M359,255.93c4.71-13.28-14.5-30.82-18.09-25.87s1.77,12.59,1.5,23.23c-4.58,16.16-6.57,31-4,42.55a41.44,41.44,0,0,1-2.39-10.12v-.05s0-.07,0-.1v0h0a1.14,1.14,0,0,0,0-.26.61.61,0,0,1,0-.17,3.53,3.53,0,0,0,0-.38c0-.14,0-.29-.05-.46-.14-1.18-.27-2.4-.43-3.69-.39-3.05-.85-6.37-1.37-9.91,0,0,0-.1,0-.15,5.32-21.07,1.55-37.37-10.85-50.12l0,0a18.33,18.33,0,0,0-2-1.76,35.56,35.56,0,0,0-9.07-4.7c-.26-.12-.52-.2-.77-.31h-.07c-1.27-.45-2.54-.86-3.82-1.24l-1-.29c-.46-.51-.94-1-1.44-1.54-.2-.21-.41-.41-.63-.62a9.57,9.57,0,0,0-.83-.7,19.35,19.35,0,0,0-2.34-1.68,29.63,29.63,0,0,0-2.94-1.63c-.73-.38-1.52-.72-2.31-1.05-1-.43-2-.82-3-1.16s-2-.69-3-1a23.51,23.51,0,0,1,1.27-2.88,17.19,17.19,0,0,1,8.68-8.07A27.89,27.89,0,0,1,310,189.45c.1.21.21.42.31.64a7.59,7.59,0,0,0,.36.68c.26.5.53,1,.86,1.56s.58,1,.9,1.5l.88,1.3c.31.48.65,1,1,1.44a.62.62,0,0,0,.08.12s0,0,0,0a1.25,1.25,0,0,1,.12.17c.1.14.22.31.33.5s.37.62.6,1a14.41,14.41,0,0,0,1.57,2.37c.24.25.41.32.48.05a.45.45,0,0,0,0-.24c0-1.41,2.4-.65,6,1.63a94.67,94.67,0,0,1,12.1,9.49C349.4,224.1,364.92,243.55,359,255.93Z"/><path class="cls-18" d="M338.87,273.35s-4.45,15.46,1.84,26.5S360,319.7,360,319.7s-13.06-12.56-18.16-24.23A40.2,40.2,0,0,1,338.87,273.35Z"/><path class="cls-25" d="M357,288a6.89,6.89,0,1,1-8.7,4.38A6.89,6.89,0,0,1,357,288Z"/><path class="cls-17" d="M355.18,293.59a1.29,1.29,0,1,1-1.63.82A1.29,1.29,0,0,1,355.18,293.59Z"/><path class="cls-26" d="M318.7,192.9a18.26,18.26,0,0,0-2.58.79,13.68,13.68,0,0,0-2.78,1.44,10.92,10.92,0,0,0-2.78,2.62,9.27,9.27,0,0,0-.82,1.25,11,11,0,0,0-1,2.13,9.93,9.93,0,0,0-.4,1.2,26.12,26.12,0,0,0-.77,5c-.08,1.72-.07,3.4-.05,5l-.08,0-1-.12-3.14-.39-.36,0s0-.07,0-.1.05-.24.08-.36c-.58-.15-1.16-.29-1.76-.41-1.44-.33-2.91-.62-4.46-.86-2-.34-4-.62-6.17-.82-1.32-.16-2.67-.28-4.06-.36l-.55,0a10,10,0,0,1-2-3.2,4.51,4.51,0,0,1-.17-.52l-.07-.25c-.07-.24-.12-.5-.17-.76a9,9,0,0,1,.37-4.51,13.33,13.33,0,0,1,1.27-2.72c4.84-7.92,15.62-11.07,15.62-11.07s7.08-1.38,15.15,4.88h0C317,191.34,317.85,192.08,318.7,192.9Z"/><path class="cls-27" d="M342.72,216.92c-.21-.18-.39-.35-.6-.52l-.84-.68c-1.89-1.51-3.74-2.88-5.57-4.07-8.08-5.19-15.69-6.87-22.65-3.32a15.42,15.42,0,0,0-1.76,1,23.59,23.59,0,0,0-3.74,3l-.08,0-1.14-.15-2.82-.43h0l-.48-.07c0-.12.05-.24.08-.36-.58-.15-1.16-.29-1.76-.41,0-.05,0-.1,0-.17s-.07-.41-.1-.65a9.79,9.79,0,0,1,0-2.59,7.62,7.62,0,0,1,.41-1.7,8.39,8.39,0,0,1,2.71-3.94,6.62,6.62,0,0,1,.56-.47,13.37,13.37,0,0,1,2.62-1.49l.5-.2c.6-.26,1.17-.5,1.7-.69a24.83,24.83,0,0,1,2.4-.87,20.43,20.43,0,0,1,2.78-.74c3.25-.62,5.29,0,8.14,1.22a25.84,25.84,0,0,1,5.26,3.17c1.06.77,2.19,1.7,3.36,2.74a75.18,75.18,0,0,1,9.7,10.6c.43.56.86,1.14,1.31,1.74C342.7,216.88,342.7,216.9,342.72,216.92Z"/><path class="cls-28" d="M324.69,196.23c-.3-.06-.59-.09-.88-.14a.27.27,0,0,1-.12,0,19.62,19.62,0,0,0-7.83.41c-.45.12-.86.26-1.27.41a13.71,13.71,0,0,0-2.45,1.24,13.39,13.39,0,0,0-3.36,3c-.31.36-.58.73-.86,1.09a23.76,23.76,0,0,0-2.33,4.39c-.5,1.24-.87,2.37-1.18,3.26a12.47,12.47,0,0,1-.6,1.46.3.3,0,0,1-.09.13,1.2,1.2,0,0,1-.2.28h0c-.05,0-.09.07-.14.07l-.36,0s0-.07,0-.1.05-.24.08-.36c-.58-.15-1.16-.29-1.76-.41-1.44-.33-2.91-.62-4.46-.86-2-.34-4-.62-6.17-.82l.88-.21c1.08-.25,2-.6,1.9-1s-.21-.86-.34-1.44a7.29,7.29,0,0,1-.19-2.95,6,6,0,0,1,.36-1.34,19.31,19.31,0,0,1,.85-1.92c2.58-5.12,7.05-8.91,11.3-9.77a10.73,10.73,0,0,1,1.63.41c.67.17,1.49.41,2.43.69l2,.61,3.44,1c.38.12.74.23,1.12.33,3,.92,5.84,1.78,7.42,2.23a.49.49,0,0,0,.19.05C324.19,196.11,324.51,196.19,324.69,196.23Z"/><path class="cls-29" d="M325.51,198.18a.15.15,0,0,0-.09,0,29.68,29.68,0,0,0-9.56-1.68,14.2,14.2,0,0,0-1.49.09,11,11,0,0,0-3.81,1.18,9.65,9.65,0,0,0-2.52,1.94,11,11,0,0,0-1.76,2.38,22.31,22.31,0,0,0-1.86,4.22q-.45,1.36-.84,2.88c-.15.63-.3,1.3-.44,2a.42.42,0,0,0,0,.15c-.58-.15-1.16-.29-1.76-.41-1.44-.33-2.91-.62-4.46-.86l-.1-.2a7.21,7.21,0,0,1-.93-3.47,8.77,8.77,0,0,1,.14-1.56,13.53,13.53,0,0,1,1.42-3.92c2.83-5.3,6-8.35,9.69-9.86a16.21,16.21,0,0,1,2.64-.84,4,4,0,0,1,.6-.1,5.63,5.63,0,0,1,.91-.1,10.82,10.82,0,0,1,4.88.68h0a16.42,16.42,0,0,1,4.63,2.71h0a27.31,27.31,0,0,1,2.74,2.54l.15.15.77.84C324.81,197.31,325.15,197.73,325.51,198.18Z"/><path class="cls-30" d="M323.26,220.38l-9.8-5.73-1.32-.77-.26-.15-.51-.16h-.07l-4.8-1.36-3.14-.39-.36,0s0-.07,0-.1.05-.24.08-.36c-.58-.15-1.16-.29-1.76-.41-1.44-.33-2.91-.62-4.46-.86-2-.34-4-.62-6.17-.82-1.32-.16-2.67-.28-4.06-.36l-.55,0a10,10,0,0,1-2-3.2,4.51,4.51,0,0,1-.17-.52l-.07-.25c-.07-.24-.12-.5-.17-.76.75.26,1.51.55,2.29.83l.23.08c.92.33,1.87.64,2.83.89a15.81,15.81,0,0,0,4.08.71,11.21,11.21,0,0,0,2.7-.23c.19,0,.4-.08.59-.13a12.28,12.28,0,0,1,1.86-.38,14.47,14.47,0,0,1,3.35-.07,15.18,15.18,0,0,1,2.77.5,11.19,11.19,0,0,1,1.17.32c.69.23,1.35.48,2,.77a27.62,27.62,0,0,1,3.69,1.94,41.41,41.41,0,0,1,6,4.58,52.18,52.18,0,0,1,5.21,5.48l.67.83h0a.42.42,0,0,0,.07.12Z"/><path class="cls-31" d="M315.62,201a6.89,6.89,0,1,1-8.71,4.39A6.89,6.89,0,0,1,315.62,201Z"/><path class="cls-17" d="M313.77,206.57a1.29,1.29,0,1,1-1.62.82A1.28,1.28,0,0,1,313.77,206.57Z"/><path class="cls-18" d="M286.17,205.19s-2.37-3.4.79-7.63,9.82-6.39,9.82-6.39A25.12,25.12,0,0,0,286.17,205.19Z"/><path class="cls-18" d="M311.19,201s1.9-3.49,6.89-2.58,9.68,5.7,9.68,5.7A24.12,24.12,0,0,0,311.19,201Z"/><path class="cls-32" d="M346.43,263.72c-1.07-.54-2.72-1.42-4.62-2.61a45.23,45.23,0,0,1-8.73-7c-1,.46-1.94.88-2.92,1.27A44.94,44.94,0,0,0,346.57,264c.31.09.56.16.75.2a2.51,2.51,0,0,0,.37.09l-.4-.19Z"/><circle class="cls-33" cx="344.59" cy="275.36" r="18.22" transform="matrix(0.54, -0.84, 0.84, 0.54, -73.48, 416)"/><path class="cls-17" d="M345.43,272.82a3.41,3.41,0,1,1-4.3,2.17A3.4,3.4,0,0,1,345.43,272.82Z"/><path class="cls-34" d="M230.24,76.05C235,28.66,209.81,6.15,207,4c20.56.92,53.68,39.41,43.3,86.09,8.52-23.33,6.8-42.58,11.93-39.83,7.91,4.23,22,43.43.73,71.83,16.27-16.7,15-39.11,20.28-34.54,8.78,7.55,14.68,46.57-24,71.68,20.11-6.77,30.76-24.21,33.24-21.58,7.42,7.89-13.68,62.62-71.11,52.9C196.61,156.19,219.14,125.21,230.24,76.05Z"/><path class="cls-35" d="M201.05,137.51c22.22-35.09,26.11-64.59,36.78-65.17s6.61,36.92-10.72,55.64c17.22-16.16,25.44-36.54,35.15-31.75s-8,38.82-36.46,55.74c22.33-8.6,43-34,47.64-26.92s-7.82,32.92-49.22,44c17.46.67,46.66-12.73,49.54-3.35s-22.42,20.38-53.28,18.58c15.3,7.21,38.39,1.33,37.43,9.79s-45.46,29.46-54.87,3.68S201.05,137.51,201.05,137.51Z"/><path class="cls-36" d="M201,165.69c-3.67,34.42,24.12,61.78-7.33,71.71,9.57-3.32,11.38-20.35-5.57-40-20.37-23.57-14.13-50,8.79-81,33.76-45.69,35.2-92.82,3.73-112.74C196.57.46,204-2.4,217.25,12.06,267.83,67.39,205.34,125,201,165.69Z"/><path class="cls-36" d="M194.94,153.91c7-20.17,25.6-31.56,31.67-24.88s-13.77,24.41-22.18,27.73c17.61-8.82,29.73-9.93,31.5-3.33s-13.3,14.84-22.91,16c11.24-.93,27.23-.25,29.19,7.11s-20,12.52-31,10.73c16.48.31,30.18,8.72,26.2,15.33s-19.21,4-27-1c6.88,3.51,17.28,17.2,10.26,21S206,214.25,198.2,199.21,194.94,153.91,194.94,153.91Z"/><path class="cls-37" d="M213,92.16c-5.16,1.84-2.26,10.88,1.72,6.29S216.75,90.82,213,92.16Z"/><path class="cls-38" d="M233.88,29.85c-3.36,1.48.63,9.78,4.67,7S240.66,26.88,233.88,29.85Z"/><path class="cls-38" d="M245.94,87.79c-3.09-1.22-6.31,4-2.14,4.89S249,89,245.94,87.79Z"/><path class="cls-38" d="M251.49,58c-3.09-1.22-6.31,4-2.14,4.89S254.58,59.23,251.49,58Z"/><path class="cls-38" d="M256.33,128.73c1.53-5.72,8.49-5.07,7.11-.14S254.9,134.12,256.33,128.73Z"/><path class="cls-38" d="M285.08,142.9c-2.93-1.2-5.2,4.15-1.38,5S288.6,144.33,285.08,142.9Z"/><path class="cls-38" d="M274.43,47c-7.31,2.47-3,14.71,4.82,9.87S281.13,44.77,274.43,47Z"/><path class="cls-38" d="M290.58,66.9c-10,3.37-4.1,20.13,6.6,13.5S299.75,63.81,290.58,66.9Z"/><path class="cls-38" d="M270,10.16c-8.48.31-6.63,10-.07,8.87S276,10,270,10.16Z"/><path class="cls-38" d="M302.53,30.91c3.82-5,9.39,1.85,6.36,5.37S299.63,34.7,302.53,30.91Z"/><path class="cls-38" d="M302.24,93.37c-3.84,3.19-1.08,9.5,3.54,7.24S306.62,89.72,302.24,93.37Z"/><path class="cls-38" d="M357.54,24.93c-3.84,3.19-1.07,9.5,3.54,7.24S361.92,21.28,357.54,24.93Z"/><path class="cls-38" d="M234.74,52.53c-3.84,3.19-1.08,9.5,3.54,7.24S239.12,48.88,234.74,52.53Z"/><path class="cls-39" d="M108.23,237.82l0,0a142.07,142.07,0,0,0-10.39,31.8c-3.91,18.86-41.42,24.51-66.57,36a56.32,56.32,0,0,0-10,5.78l0,0C5.73,322.81,4.8,337.09,4.8,337.09A79.14,79.14,0,0,1,2.51,312l0,0c.12-1.47.31-3,.57-4.46,0-.14,0-.27.07-.41a36.55,36.55,0,0,1,5.3-13.85c10.11-15.18,41.66-17.6,61.29-29.79A43.68,43.68,0,0,0,76,258.92c1-.88,2-1.74,2.92-2.54A130.12,130.12,0,0,1,97,243.4a75,75,0,0,1,10.26-5.18l0,0C107.88,237.94,108.23,237.82,108.23,237.82Z"/><path class="cls-40" d="M138.08,193,133,200.52l-8.54,12.77,0,0A22.92,22.92,0,0,1,111,220.74c-2.35.36-6.32.53-11.09.82-4.34.28-9.37.64-14.43,1.34l-.35,0c-9.47,1.34-19.07,3.87-24.7,9.14-6.22,5.78-10.68,13.47-13.55,19.57-1.54,3.24-2.62,6-3.27,7.84-.21.6-.38,1.08-.5,1.44s-.19.57-.22.67A4.14,4.14,0,0,1,43,261c0-.31.09-.72.18-1.23.89-5.77,4.6-23.44,17.63-36.31A35.88,35.88,0,0,1,72.13,216l.05,0c15.45-6.57,34.79-4.46,45.37-8.63a54.17,54.17,0,0,0,16-9.86A40.24,40.24,0,0,0,138.08,193Z"/><path class="cls-41" d="M122.22,218.61l-2.17,5.13v0l-1.51,3.61s-5,2.81-10.3,10.45l0,0c-.94,1.36-1.91,2.85-2.85,4.52-.41.72-.82,1.48-1.24,2.27a70.18,70.18,0,0,0-4.24,10.26c-6.83,20.82-9.66,29.49-40.23,30.8-24.6,1-45.14,6.16-54.68,18.74,0,0,0,0,0,.05s0,.06-.06.07a22.59,22.59,0,0,0-1.71,2.58A27,27,0,0,0,0,315s-.45-33.82,28.18-46.83l.05,0,.11-.05s0,0,0,0l0,0,.26-.1.15-.09.38-.17.46-.2c3.92-1.81,8.43-4,13.32-6.46l.16-.07c18.4-9.22,42-22,58.66-31.07C113.86,223.28,122.22,218.61,122.22,218.61Z"/><path class="cls-42" d="M126.89,207.52l-2.42,5.77,0,0-2.23,5.3-2.17,5.13v0c-.48.22-7.61,3.69-12.79,14.44l0,0c-.41.82-.79,1.68-1.17,2.59-.22.53-.44,1-.7,1.56-.41.72-.82,1.48-1.24,2.27-5,8.22-14.18,12.3-28.13,14.28q-5.31.75-11.57,1.13A120.7,120.7,0,0,0,36.57,265c-.27.07-.55.18-.82.26l-.24.07c-2.64.88-4.62,1.63-5.84,2.15l-.46.2-.38.17-.15.09-.26.1c1.13-.61,7.11-3.79,14.75-8.25a4.62,4.62,0,0,1,.48-.28c4.29-2.52,9.08-5.42,13.83-8.5,10.7-6.9,19.28-19.09,26.88-27.2h0c.26-.3.52-.57.79-.85a34.28,34.28,0,0,1,6.8-5.76C107.57,207.85,126.89,207.52,126.89,207.52Z"/><path class="cls-43" d="M133.58,197.51l-.57,3-8.54,12.77,0,0-2.23,5.3,0,0-2.15,5.11v0l-1.51,3.61s-5,2.81-10.3,10.45l0,0a142.07,142.07,0,0,0-10.39,31.8c-3.91,18.86-41.42,24.51-66.57,36a56.32,56.32,0,0,0-10,5.78c.65-.76,11.38-12.77,21.63-17.72,10.56-5.08,24.87-7.14,0-4.65C23.51,291,8.32,305.66,2.53,312c.12-1.47.31-3,.57-4.46.55-1,1.13-2,1.78-3,0,0,0-.05.06-.07s0,0,0-.05C11.65,294.33,23.66,285.58,40,283c21.84-3.48,43.23-16.14,29.74-19.45l-.14,0c-13.41-3.16-40,4.27-41.36,4.65l.11-.05s0,0,0,0l0,0,.26-.1c2.31-1,4.58-1.84,6.83-2.61l.24-.07c.27-.08.55-.19.82-.26,16.74-5.56,31.59-6,42.34-8.61a30,30,0,0,0,9.9-4,28.19,28.19,0,0,0,8.16-9,37,37,0,0,0,4.84-13.53c.49-3.84,0-6.93-1.6-8.14l-.26-.17c-4.75-3.14-14.43,1.34-14.43,1.34a8.7,8.7,0,0,1-1.14.9c.26-.3.52-.57.79-.85-9.47,1.34-19.07,3.87-24.7,9.14-6.22,5.78-10.68,13.47-13.55,19.57l-.05.05s7.69-17.29,16-24.43,25.8-9,22.11-11.26c-3.54-2.15-12.14-.17-12.84,0,15.45-6.57,34.79-4.46,45.37-8.63A54.17,54.17,0,0,0,133.58,197.51Z"/><path class="cls-44" d="M115.54,229.6s-12.19,15.12-9.38,29.32,8.7,29.52-17,32.2-48.46,9-67.9,20.34c0,0,14.45-16.11,39.88-20.83,19-3.51,40.82-4.53,42.12-17.15s-3.92-19.25,1-29A48.42,48.42,0,0,1,115.54,229.6Z"/><path class="cls-45" d="M94.31,108c-11.75,9.37-16.5,27-16.5,27a.22.22,0,0,1,0-.08l-.07-.13c-1.3-2-11.51-18.69-5.91-27.25a8.46,8.46,0,0,1,2-2.19c7.28-5.65,10.83-9.83,12.25-11.77a12.94,12.94,0,0,0,.82-1.18L91.42,102Z"/><path class="cls-46" d="M94.31,108c-11.75,9.37-16.5,27-16.5,27a.22.22,0,0,1,0-.08l-.07-.13c-.4-.91-1.75-4.81.17-13.12,2.22-9.65,8-18.71,3.47-18.35s-9.55,4.22-9.55,4.22a8.46,8.46,0,0,1,2-2.19c7.28-5.65,10.83-9.83,12.25-11.77L91.42,102Z"/><path class="cls-5" d="M212,244.52a71.42,71.42,0,0,1-6.18,39.89c-9.8,21-27,64.51-29.28,76.8s-20.65,14.34-33.1.54-23.31-83.21-23.31-83.21S197.21,234.34,212,244.52Z"/><path class="cls-6" d="M136.38,384.89s-.61,13.6,0,21.25c0,0,10.36,2.19,16.87,0s11.25-21.25,11.25-21.25S143.74,385,136.38,384.89Z"/><path class="cls-47" d="M111.73,256.58s1.43,20.88,4.19,41.53,19.19,60.54,19.68,68,0,18.54,0,18.54,18.17,5.53,26.24-2.12a56.57,56.57,0,0,1,2.38-11.7c1.79-5.05-5.69-18.09-8.94-36.47s-4.11-31.31-4.11-31.31Z"/><path class="cls-48" d="M147.83,387.36s-4.26,13.14-4.37,24.2c0,0,2.82,3.9,13.77,2.27S173.49,402,175.12,397.9s2-14.66,2-14.66S167.91,390.71,147.83,387.36Z"/><path class="cls-9" d="M146.89,390.55s-.76,3,8.91,5.45,21.12-9.4,21.12-9.4l.18-3.36-29.27,4.12Z"/><path class="cls-49" d="M204.29,288.74c-3.47,7.36-7.38,30.35-10.2,39s-9,15.56-10.85,21.41-.2,27.36-1.4,30.08S165,390.84,159,391.62s-11.6-4.67-11.6-4.67c.65-3.9,2.81-10,4.55-17.36s1.73-16.48,2.6-20.91,7.59-39.82,7.59-39.82-40-20.18-44.89-29.45-6.18-23.74-5.37-30.74,2.13-10.58,6.68-21.3l3.69-8.76c3.69-8.77,7.24-17.27,7.24-17.27,34.7-10.18,53.39-54.64,53.39-54.64s27.5,73.08,29,90.76C213.13,252.09,207.76,281.35,204.29,288.74Z"/><path class="cls-50" d="M128.7,203.55s24.88,1.53,42,0,23.4-32.23,23.4-32.23l-8-21.8Z"/><path class="cls-51" d="M204.29,288.74c-3.47,7.36-7.38,30.35-10.2,39s-9,15.56-10.85,21.41-.2,27.36-1.4,30.08S165,390.84,159,391.62s-11.6-4.67-11.6-4.67c.65-3.9,2.81-10,4.55-17.36s1.73-16.48,2.6-20.91c0,0,28.72.5,35.3-20.48s11.57-46.27,11.14-51.48-1.67-10.62-18-7.53-30.3,15.8-30.3,15.8c2-12.56,25.41-55.39,25.41-55.39-26.67,5.92-55.82-11-55.82-11,3.69-8.77,7.24-17.27,7.24-17.27,34.7-10.18,53.39-54.64,53.39-54.64s27.5,73.08,29,90.76C213.13,252.09,207.76,281.35,204.29,288.74Z"/><path class="cls-52" d="M167.29,193.39c-11.17,6.91-32.66,8.09-38.59,10.16S112.05,216,106.2,217.37,94,216.9,94,216.9s-7.33,1.08-9.72,0S68.58,203,68,192.12c-.53-9.71,12.23-19.24,12.78-23.93s-4-23-2.88-34.18,16.52-33.95,38.87-40.66c30.46-9.11,60.25,1.45,67.2,28.56S180.05,185.47,167.29,193.39Z"/><path class="cls-53" d="M152.63,285s24.31-22.84,56.85-17c0,0,3.21-13.19,3-17.39s-14.21-.58-14.21-.58S158.13,271.69,152.63,285Z"/><path class="cls-54" d="M167.29,193.39c-11.17,6.91-32.66,8.09-38.59,10.16S112.05,216,106.2,217.37,94,216.9,94,216.9s-7.33,1.08-9.72,0c20.26-1.92,28.9-13.81,33.34-16.81s35.32.5,41.61-9.17,12.06-39.46-1.61-52.33S105.4,123.1,93.16,124.92C83.88,126.3,77.87,134,77.87,134c1.08-11.15,16.52-33.95,38.87-40.66,30.46-9.11,60.25,1.45,67.2,28.56S180.05,185.47,167.29,193.39Z"/><path class="cls-55" d="M321.7,120.46c33.17-42.6,22.8-79.49,21.41-83.31,19,13.36,27.27,70.41-10.81,108.92,22.2-17.22,32.19-36.75,35.42-31,5,8.86-5.33,55-42.72,69.38,25.59-6.14,37.88-28.44,40.18-20.83C369,176.2,351,217.24,299,217.85c23.23,5.7,43.9-4.57,44.67-.53,2.3,12.07-50.86,51.79-99.65,7.6C241.27,177,281.44,160.91,321.7,120.46Z"/><path class="cls-56" d="M256.78,161.73c42.36-20.18,63.89-46.14,74.39-40.22s-16,39.45-43.82,46.9c26.16-5.06,46.29-19.63,52.64-9.13s-31.08,32.4-68.38,31.36c26.44,5.3,61.52-6.52,61.6,3.09s-27.33,26.85-73.45,12.38c16.22,11.24,52.1,16.11,49.17,26.86s-33.64,5.94-61.93-14.51c10.21,16.2,35.74,24.57,29.72,32.11s-61.08.68-54.45-29.78S256.78,161.73,256.78,161.73Z"/><path class="cls-57" d="M239.72,188.75c-24.3,30.81-14.38,73.95-50.31,64.38,11.11,2.62,23.13-12.62,18.85-41.76-5.14-35,16.76-56.56,57.31-72.41C325.31,115.61,355.16,71.24,337.24,33c-1.91-5.55,6.93-3.76,10.77,18.14C362.71,135,268.41,152.36,239.72,188.75Z"/><path class="cls-57" d="M241.06,173.76c18.84-15.12,43.44-14.75,45.18-4.65s-27.85,15.07-37.87,13.15c22.1,2.23,34.3,8.52,32,15.93s-21.62,6.17-31.46,1.44c11.26,5.93,26.06,16.29,23.48,24.54s-26.55-.09-35.95-8.49c15.51,10.3,23.46,26.69,15.68,30.62s-20.69-7.83-25.11-17.4c4.43,7.54,6.06,27-2.91,26.36s-9-16.88-7.29-36S241.06,173.76,241.06,173.76Z"/><path class="cls-36" d="M343.06,55.58c-1.63,24.34-21.94,63-80.79,85.11S203.71,196.44,210.8,221c3,5.09,1.38-34.84,33.11-56.15S349.42,120.9,343.06,55.58Z"/><path class="cls-58" d="M238.72,173.5c3.24-7.76,42-17.24,34.87-2.64C269.31,179.61,234.58,183.41,238.72,173.5Z"/><path class="cls-58" d="M232.63,184.78c3-7.74,42,3.5,34.16,11.91S230.22,190.91,232.63,184.78Z"/><path class="cls-58" d="M228.34,195.39c4-2.61,38,12.6,28.15,20.72C248.13,223,223.12,198.81,228.34,195.39Z"/><path class="cls-58" d="M225,210.49c3.67-4.8,24.11,15.36,18,23.3C238.26,239.93,219.86,217.28,225,210.49Z"/><path class="cls-59" d="M295.56,125.45c-6-1.36-8.73,9.07-2.17,7.08S300,126.45,295.56,125.45Z"/><path class="cls-60" d="M353.09,78.33c-4.1-.62-5.31,9.77.23,9.53S361.34,79.59,353.09,78.33Z"/><path class="cls-60" d="M329.55,141.26c-2.2-3-8.42,0-5,3.4S331.75,144.31,329.55,141.26Z"/><path class="cls-60" d="M352.84,116.05c-2.21-3-8.42,0-5,3.39S355,119.1,352.84,116.05Z"/><path class="cls-60" d="M314.71,186.87c4.91-4.56,11.14.28,6.85,4.18S310.08,191.17,314.71,186.87Z"/><path class="cls-60" d="M333.51,217.93c-2.07-2.93-7.45.82-4.34,3.95S336,221.43,333.51,217.93Z"/><path class="cls-60" d="M381.3,119.44c-8.44-2.08-11.73,12.29-1.37,12.39S389.05,121.34,381.3,119.44Z"/><path class="cls-60" d="M428.27,61.94c-11.57-2.84-16.07,16.83-1.88,17S438.87,64.54,428.27,61.94Z"/><path class="cls-60" d="M392.66,81.35c-8.27-4.85-12.38,5.61-5.43,8.47S398.5,84.79,392.66,81.35Z"/><path class="cls-60" d="M417.79,121c6.65-2.48,7.82,7.47,2.8,9S412.74,122.91,417.79,121Z"/><path class="cls-60" d="M379.76,180.8c-5.58.73-6.75,8.46-1,9.1S386.14,180,379.76,180.8Z"/><path class="cls-60" d="M452.05,148.16c-5.58.74-6.76,8.47-1,9.1S458.42,147.32,452.05,148.16Z"/><path class="cls-60" d="M340.2,100.62c-5.58.74-6.76,8.46-1,9.1S346.57,99.78,340.2,100.62Z"/><path class="cls-61" d="M386.47,206.36c-.15-.93-7.93-.9-7.93-.9s-2.75-7-3.94-6.94-3.3,7.26-3.3,7.26-7.51.62-7.82,1.61,5.89,5.38,5.89,5.38-1.6,7.45-.89,7.93,6.94-3.93,6.94-3.93,6.47,3.82,7.26,3.29-1.59-7.81-1.59-7.81S386.61,207.29,386.47,206.36Z"/><path class="cls-61" d="M494.56,100.3c-.61-.49-5.35,3.93-5.35,3.93s-5.65-2.72-6.33-2,2.08,6.3,2.08,6.3-4.24,4.62-3.87,5.4,6.64,0,6.64,0,3.24,5.45,3.94,5.34,2-6.32,2-6.32,6.12-1.33,6.31-2.1-5.4-3.87-5.4-3.87S495.17,100.78,494.56,100.3Z"/><path class="cls-61" d="M391.16,27.08c-.3.72,5.25,4.06,5.25,4.06s-1.06,6.18-.18,6.63S401.71,34,401.71,34s5.61,2.8,6.26,2.23-1.87-6.37-1.87-6.37,4.35-4.61,4.06-5.26-6.64-.2-6.64-.2-3-5.51-3.75-5.48-2.24,6.25-2.24,6.25S391.46,26.36,391.16,27.08Z"/><path class="cls-62" d="M120,94.8s-7,21.42-25.18,19.42c0,0-9.08-9.07-9.37-25.84V86.16S73.19,79.87,74.09,52.53c0,0-13.68-24.82-13.49-52.53a3.28,3.28,0,0,1,.27.19C62.92,1.52,76.37,10.88,77.7,25c0,0,22.67,9.89,19.59,33.65C97.29,58.64,117.63,75.56,120,94.8Z"/><path class="cls-63" d="M120,94.8s-7,21.42-25.18,19.42c0,0,18.8-17.6,16.18-31.29S99.15,65.42,95.74,67.34s-10.32,21-10.32,21V86.16s10.32-24.58,7.81-35.8S81.28,30,78.78,32.19s-4.43,18.13-4.67,20.13c.22-2.49,2.26-26-.08-35.12C71.81,8.45,62.58,1.42,60.87.19,62.92,1.52,76.37,10.88,77.7,25c0,0,22.67,9.89,19.59,33.65C97.29,58.64,117.63,75.56,120,94.8Z"/><path class="cls-64" d="M152.61,100.85s3.08-1.6,6.26-9,18.84-26.47,39.3-28c0,0-3.89,24.13-7,36.95s-16,20.12-20.44,20.61S151.33,121.49,152.61,100.85Z"/><path class="cls-65" d="M170.71,122.69c-15.84,6.84-51.47-3.06-55.19-15.42a57.63,57.63,0,0,1-1.93-10.65c-1.31-13.08.15-29.62,6.38-33.48,8.16-5,18.59-3.84,18.59-3.84,9.4,11.09,19.94,21.63,21.08,22.79-1.14-1-10.43-8.87-11.61-8.69s-9.89,9.53-2.69,29.14S170.71,122.69,170.71,122.69Z"/><path class="cls-66" d="M162.85,85.37s-8-8.38-15.18-14.68-15.31,28,4.94,43.67c0,0-6.26-26.2-1.28-30.89s10.13,3.85,10.13,3.85Z"/><path class="cls-67" d="M85.44,94.38S84.05,97.59,68,100.83s-16.71,15-14.91,24.91c0,0,2.15-12,12-17S83.75,101.61,85.44,94.38Z"/><path class="cls-68" d="M191.14,261.2l-.48.17a76.89,76.89,0,0,0-12,5,21,21,0,0,1,2.11-2.76l0,0A44.56,44.56,0,0,1,184.4,260a70,70,0,0,1,8.07-6.27c1.73-1.2,3.66-2.41,5.81-3.64a33.08,33.08,0,0,0,8.51-7.26c8.12-9.4,12-22.05,12.68-24.5.08-.26.12-.41.12-.41s1.31,10.4,4,23.35C225.66,251.19,206.71,255.83,191.14,261.2Z"/><path class="cls-69" d="M162.85,85.37s-6.59-6.72-11.17-6.72c-6.2,0-.48,28.89-.48,28.89S157.33,93.1,162.85,85.37Z"/><path class="cls-70" d="M219.47,218.3c-1,14.95-7.94,29.27-26.7,37.7-3,1.33-5.75,2.64-8.37,4-20.07,10-30.4,19.61-33,28.08a.32.32,0,0,0,0,.08,67.77,67.77,0,0,1,8.33-30.21c5.3-9.38,16.6-18.37,25.34-28.62,5.12-6,9.36-12.42,11-19.6a77.36,77.36,0,0,0,2-15.44,63.05,63.05,0,0,0-.92-12.72c0-.21-.07-.4-.11-.59a32,32,0,0,0-.93-3.87l1.84-16.85a0,0,0,0,0,0,0c.76,1,17,21.86,20.53,41.53A67.81,67.81,0,0,1,219.47,218.3Z"/><path class="cls-71" d="M187.09,207.47s-3.24,16.5-1.63,29.09-2.53,17.63-2.53,17.63,30-40.76,14.91-79.54C197.84,174.65,197.73,189.89,187.09,207.47Z"/><path class="cls-72" d="M197.84,174.67v.13c-.23,2-.51,4.06-.91,6.15A80.59,80.59,0,0,1,190.61,201c-.08.17-.15.32-.23.47-.44.89-.91,1.8-1.41,2.72l-.91,1.63c-.24.44-.49.87-.76,1.31l0,0c-.13.19-.19.3-.19.3a45.69,45.69,0,0,1-16.27,16.09l-.08,0h0c.49-1.06,17.81-37.73,15.4-60.42-.65-6-1.39-12.06-2.11-17.68l-.17-1.25c-1.73-13.3-3.42-24.08-3.84-26.68l-.09-.59,3.11-2.6s7.35,30.53,13,39.66a16.71,16.71,0,0,1,1.86,6.23A61.75,61.75,0,0,1,197.84,174.67Z"/><path class="cls-73" d="M118.72,170.76a32.92,32.92,0,0,0,17.26.56c9.71-2.22,11.62-13,11.62-13S134.84,167.73,118.72,170.76Z"/><path class="cls-73" d="M113.14,152.37a21,21,0,0,1,8.63-12c7.07-4.68,23.21.18,26,10.46C147.76,150.84,124.78,148.65,113.14,152.37Z"/><path class="cls-74" d="M115.11,169c2.1,2.34,10.08,3.45,18.89.84s12-7.46,13-9.58,1-8.5.72-9.4-5.84-7-14.21-7.74c-7-.63-17.54,2.07-20.41,9.27C111.54,156.36,113.31,167,115.11,169Z"/><circle class="cls-75" cx="133.48" cy="155.5" r="13.21" transform="translate(-70.86 139.93) rotate(-45)"/><circle class="cls-76" cx="133.93" cy="155.5" r="9.4" transform="translate(-49.69 63.84) rotate(-22.74)"/><path class="cls-77" d="M112.72,154s1.42-7.23,14.32-9.3a24.43,24.43,0,0,1,20.72,6.12,20.65,20.65,0,0,0,8.82-6.39s-6.1,3.1-10,2c0,0-8.9-6.29-20.14-4.14A17.37,17.37,0,0,0,112.72,154Z"/><path class="cls-78" d="M113.59,165.24s.14,5.79,1.16,6.08a56.48,56.48,0,0,0,6.82.19S115.24,170.91,113.59,165.24Z"/><path class="cls-17" d="M122.4,159.52a1.51,1.51,0,1,1-1.51-1.51A1.51,1.51,0,0,1,122.4,159.52Z"/><path class="cls-79" d="M115.16,123.19c-2.35.19-3.36,4.59-.42,6s14.57-.1,17.51,0,6.91,1.13,7.54.61S127.47,122.24,115.16,123.19Z"/><path class="cls-80" d="M84.23,216.89a43.09,43.09,0,0,0,16.67-2.23c9-3,16.68-14.56,16.68-14.56s-5.75,10.6-11.76,14.27C100.36,217.71,86.16,218.3,84.23,216.89Z"/><path class="cls-80" d="M88.47,194.26s-1-3.58,1-5.28,7.15-1.39,7.15-1.39S90.18,187.92,88.47,194.26Z"/><path class="cls-81" d="M88.47,194.26s7.89.93,8.13-6.67C96.6,187.59,88.76,187.68,88.47,194.26Z"/><path class="cls-82" d="M68,189.79s15.25-2.07,24.45-5.94S107.58,170,107.31,169s-25.1-.27-25.1-.27S69.91,181.6,68,189.79Z"/><path class="cls-83" d="M120.15,283l35.65,54.14-4.63-34S128.82,290.4,120.15,283Z"/><path class="cls-84" d="M162.11,308.86,164.5,297s-2.65,3.79-8.7,3.57c-10.27-.37-33.11-15.56-33.11-15.56S144.55,301.3,162.11,308.86Z"/><path class="cls-85" d="M170.71,122.69c-15.84,6.84-51.47-3.06-55.19-15.42a57.63,57.63,0,0,1-1.93-10.65c3.26,26.48,28.33,21.93,28.33,21.93s-9.84-7.92-8.76-25.46a197.46,197.46,0,0,1,5.4-33.79c9.4,11.09,19.94,21.63,21.08,22.79-1.14-1-11.34-11.06-12.51-10.8-3.23.72-10.49,11.87-3.29,31.49S170.71,122.69,170.71,122.69Z"/><path class="cls-86" d="M193.51,87.62a172.59,172.59,0,0,1-4,17.81c-2,6-13.82,17.68-24.32,16.24-8.47-1.16-9.38-6.1-9.38-6.1s.38-1.67,1.16-4.31a1.31,1.31,0,0,0,.05-.15c2-6.8,6.73-19.79,14.51-27.57,10.92-10.92,22.14-13.2,23.74-12.61C196.13,71.23,195,79.26,193.51,87.62Z"/><path class="cls-87" d="M193.51,87.62c-.78-2-3-7-6.07-7.39-3.88-.55-22.73,10.62-30.41,30.88,2-6.8,6.73-19.79,14.51-27.57,10.92-10.92,22.14-13.2,23.74-12.61C196.13,71.23,195,79.26,193.51,87.62Z"/><path class="cls-88" d="M191.14,261.2c5.51-2,27.48-10.31,29.4-14.51s.72-9.78-.48-9.89-6.19,9.06-16.31,14-23,12.83-23,12.83A44.56,44.56,0,0,1,184.4,260c-20.07,10-30.4,19.61-33,28.08.32-1.44,5.77-24.66,13-26.9,4.94-1.52,17.61-3.14,28.13-7.45,5.32-2.18,10.08-5.07,13-9,.45-.59.89-1.24,1.31-1.92,7.9-12.53,11.83-37.86,6.72-37.79-5.38.1-12.33,15.84-12.33,15.84-6,19.6-16.71,31.69-18.11,33.17v0a.16.16,0,0,1-.08.08.07.07,0,0,1,0,0l0,0v0c.14-.25.76-1.5,1.71-3.57a.28.28,0,0,1,0-.12,222.57,222.57,0,0,0,10.83-28.63c5.16-17.47,5.16-28,2.43-27.58-2.4.33-9,10.26-10.52,12.67-.06.08-.1.15-.14.21l0,0c-.13.19-.19.3-.19.3a40.76,40.76,0,0,1-16.14,16l-.13.08-.08,0c14.32-11,26.4-35.79,24.84-53.09s-11.56-25-11.56-25l-.17-1.25-3.74-26.1-.19-1.17,3.11-2.6s7.35,30.53,13,39.66a16.71,16.71,0,0,1,1.86,6.23c.76,1,17,21.86,20.53,41.53a67.81,67.81,0,0,1,1.08,16.52c.08-.26.12-.41.12-.41s1.31,10.4,4,23.35C225.66,251.19,206.71,255.83,191.14,261.2Z"/><path class="cls-89" d="M189.68,138.24s4,13.41,17.54,19.53,13.49,17.27-3.78,20.68-32.74,20.69-32.74,20.69S178,182.84,189,174.65c8-6,18-8.52,16.73-12.48C204.66,158.92,193,159.73,189.68,138.24Z"/><path class="cls-90" d="M138.87,178c-2.22-2.16,10.84-14.08,15.31-13s2.24,10.88-3,13S140.52,179.61,138.87,178Z"/><path class="cls-17" d="M122.69,223.58s-8.65,15.93-7.15,34S132,288.05,132,288.05a29.08,29.08,0,0,1-17.94-21.26C110.69,250.35,115.5,235.31,122.69,223.58Z"/><path class="cls-18" d="M189.73,333.51s-6.72,8.56-8.57,13.77-.54,22.28-1.41,28.51-16.37,13.12-16.37,13.12,11-6.18,12-16.15-1.15-19.65,1.68-25.48S189.73,333.51,189.73,333.51Z"/><path class="cls-18" d="M117.85,298.05s-.49,7,9.59,35.46,11,37.24,10.54,48.95a52,52,0,0,0,2.53-24.23C138.55,345.32,125.87,329.82,117.85,298.05Z"/><path class="cls-18" d="M41.84,266.79s-17.36.67-26.56,10.85S1.45,304.15,1.45,304.15s8.46-17.64,18.71-26.83A43.4,43.4,0,0,1,41.84,266.79Z"/><path class="cls-18" d="M43.15,260.94s16.26-1.48,26.77-10.16S85.1,225.2,85.1,225.2s-9.75,14.2-21,22.44A179.27,179.27,0,0,1,43.15,260.94Z"/><path class="cls-18" d="M77.87,37.09a211.93,211.93,0,0,0,0,22.09c.62,12.49,6.69,24.74,6.69,24.74A35.53,35.53,0,0,1,75.13,60.5C75,46.15,77.87,37.09,77.87,37.09Z"/><path class="cls-18" d="M60.87.19S62,31.33,74.11,52.32C74.11,52.32,67.48,16,60.87.19Z"/><path class="cls-18" d="M93.29,74.6S88.35,84.41,87.43,91s3.83,15.34,3.83,15.34A97.14,97.14,0,0,1,93.29,74.6Z"/><path class="cls-18" d="M127,61.35s-5.82,1-8.87,5.36-8.34,30,1.8,43.35c0,0-5.57-14.82-1.8-31.41S127,61.35,127,61.35Z"/><path class="cls-18" d="M77.87,105.26s-5.13.9-6.08,7.48,3,14.39,3,14.39A31.55,31.55,0,0,1,77.87,105.26Z"/><path class="cls-18" d="M79.84,135a74.7,74.7,0,0,0,0,10.48c.38,6.64,2.83,21.06,2.37,23.23S70,183,68.9,189.79s12,22,12,22-8.56-15.61-7.15-23,12.36-15.94,12.79-20.39S79.46,151.48,79.84,135Z"/><path class="cls-19" d="M144.52,410.59s11.6,2.17,18.86-2.27,11.49-14.21,11.49-14.21-2.22,11.6-12,17.41C154.53,416.43,144.52,410.59,144.52,410.59Z"/><path class="cls-77" d="M143.33,147.59a16.69,16.69,0,0,0,9.2-6.88A44.73,44.73,0,0,1,139.82,146Z"/><path class="cls-18" d="M186.12,254.76s13.95-8.41,21.24-20.95S215.8,211,215.8,211s-1.33,17.94-7.35,28.82S186.12,254.76,186.12,254.76Z"/><circle class="cls-91" cx="167.56" cy="147.59" r="10.36" transform="translate(-2.12 292.73) rotate(-81.92)"/><path class="cls-17" d="M169.08,147.59a1.94,1.94,0,1,1-1.94-1.94A1.93,1.93,0,0,1,169.08,147.59Z"/><circle class="cls-92" cx="130.23" cy="237.82" r="10.36"/><path class="cls-17" d="M131.75,237.82a1.94,1.94,0,1,1-1.94-1.94A1.94,1.94,0,0,1,131.75,237.82Z"/><path class="cls-93" d="M33,290.37a7.45,7.45,0,1,1-7.45-7.44A7.46,7.46,0,0,1,33,290.37Z"/><path class="cls-17" d="M26.59,290.37A1.39,1.39,0,1,1,25.2,289,1.39,1.39,0,0,1,26.59,290.37Z"/><circle class="cls-94" cx="50.24" cy="270.53" r="19.68"/><circle class="cls-2" cx="49.45" cy="270.53" r="3.68"/><path class="cls-95" d="M177.44,160.23a6.74,6.74,0,1,1-6.74-6.73A6.74,6.74,0,0,1,177.44,160.23Z"/><path class="cls-17" d="M171.69,160.23a1.26,1.26,0,1,1-1.26-1.25A1.25,1.25,0,0,1,171.69,160.23Z"/><path class="cls-96" d="M172.39,274.21a12.11,12.11,0,1,1-12.11-12.11A12.11,12.11,0,0,1,172.39,274.21Z"/><path class="cls-17" d="M162.06,274.21a2.27,2.27,0,1,1-2.27-2.26A2.27,2.27,0,0,1,162.06,274.21Z"/><path class="cls-97" d="M197.78,254.76a12.65,12.65,0,1,1-12.65-12.65A12.65,12.65,0,0,1,197.78,254.76Z"/><path class="cls-17" d="M187,254.76a2.37,2.37,0,1,1-2.36-2.36A2.37,2.37,0,0,1,187,254.76Z"/><circle class="cls-98" cx="124.53" cy="63.87" r="12.65" transform="translate(-13.83 42.84) rotate(-18.51)"/><path class="cls-17" d="M126.38,63.87A2.37,2.37,0,1,1,124,61.5,2.36,2.36,0,0,1,126.38,63.87Z"/><circle class="cls-99" cx="127.04" cy="105.26" r="12.65" transform="translate(-4.66 204.61) rotate(-76.68)"/><path class="cls-17" d="M128.89,105.26a2.37,2.37,0,1,1-2.36-2.37A2.36,2.36,0,0,1,128.89,105.26Z"/><path class="cls-100" d="M218.61,230.72a6.74,6.74,0,1,1-6.73-6.73A6.73,6.73,0,0,1,218.61,230.72Z"/><path class="cls-17" d="M212.87,230.72a1.26,1.26,0,1,1-1.26-1.26A1.26,1.26,0,0,1,212.87,230.72Z"/><path class="cls-101" d="M172.48,260.94a4.92,4.92,0,1,1-4.92-4.92A4.92,4.92,0,0,1,172.48,260.94Z"/><path class="cls-17" d="M168.28,260.94a.92.92,0,1,1-.92-.92A.92.92,0,0,1,168.28,260.94Z"/><path class="cls-102" d="M179.94,130a3.64,3.64,0,1,1-3.63-3.64A3.63,3.63,0,0,1,179.94,130Z"/><path class="cls-17" d="M176.84,130a.68.68,0,0,1-1.36,0,.68.68,0,0,1,1.36,0Z"/><path class="cls-17" d="M75.38,52.32S74.7,62.88,75.85,67C75.85,67,81,62.32,75.38,52.32Z"/><path class="cls-17" d="M87.39,91.4s.53-6,3-8.61C90.42,82.79,92.32,90.51,87.39,91.4Z"/><path class="cls-17" d="M61.87.65s4.72,9,5.42,16.93a41.61,41.61,0,0,1-.74,13.31S60.8,15.43,61.87.65Z"/><path class="cls-19" d="M126.37,146.7l.67,6.8a35.31,35.31,0,0,0,16.23,3l1.21-7S138,142.91,126.37,146.7Z"/><path class="cls-103" d="M363.14,319.06h0l.34.17c1.24.66,2.5,1.26,3.76,1.8v0a73.18,73.18,0,0,0,22.7,5.26s-12.29-5-17.77-21.89v0c-4.32-20.38-3.28-42.21,1.82-65.59S363.05,214,349.74,212.34c-7-.86-14.82-6.68-20.71-12l-.06-.07a23.79,23.79,0,0,0-5.48-5.35s0,0-.06,0h0c-2.18-2.28-3.48-3.85-3.48-3.85s.91,1.24,2.36,3.13a16.19,16.19,0,0,0-1.51-.75h0a16.42,16.42,0,0,0-4.63-2.71h0c-8.07-6.26-15.15-4.88-15.15-4.88s-10.78,3.15-15.62,11.07a13.33,13.33,0,0,0-1.27,2.72,9,9,0,0,0-.37,4.51c0,.26.1.52.17.76l.07.25a4.51,4.51,0,0,0,.17.52,10,10,0,0,0,2,3.2,89,89,0,0,0-18.27.9c-1.22.17-2.43.37-3.64.58l-.49.08-3.63.69-.23.05c-12.14,2.44-24.49,6.1-40.1,7.91-.1-.73-.15-1.14-.15-1.14s0,.15-.12.41a67.81,67.81,0,0,0-1.08-16.52c-1.56-8.63-5.56-17.5-9.62-24.82,11.75-4.46,10.37-13.79-1.55-19.19-13.49-6.12-17.54-19.53-17.54-19.53h0C186,126.85,183,114.36,183,114.36l-.51.42a31.06,31.06,0,0,0,2.41-2.45,21.53,21.53,0,0,0,4.59-6.88,25.33,25.33,0,0,0,1.63-4.63c3.13-12.82,7-36.95,7-36.95-15.84,1.16-28.8,12.85-35.32,21.5h0s-2-2.1-4.92-5c-3.56-3.63-11.83-12.16-19.37-21.07,0,0-.88-.09-2.29-.11A12.64,12.64,0,1,0,114.86,72a45.93,45.93,0,0,0-1.12,6A85.3,85.3,0,0,0,97.29,58.64C100.37,34.88,77.7,25,77.7,25,76.52,12.55,65.94,3.81,62.05,1L61.87.65a1.62,1.62,0,0,0,0,.22c-.42-.3-.78-.54-1-.68A3.28,3.28,0,0,0,60.6,0c-.1,15.68,4.23,30.42,8,40.28a83.87,83.87,0,0,0,3.55,8.38c1.16,2.47,1.93,3.87,1.93,3.87-.9,27.34,11.33,33.63,11.33,33.63v2.22a48.75,48.75,0,0,0,.43,5.46c-.23.31-.51.66-.84,1.06-1.1,1-4.85,3.47-17.05,5.93-16.08,3.24-16.71,15-14.91,24.91,0,0,2.15-12,12-17,3.93-2,7.71-3.52,10.95-5.12-.68.56-1.39,1.14-2.16,1.73a8.46,8.46,0,0,0-2,2.19c-5.6,8.56,4.61,25.24,5.91,27.25l.07.13a.59.59,0,0,1,0,.07c-.75,11.22,3.47,28.66,3,33.2-.48,4.11-10.33,11.93-12.41,20.33-.14.43-.29.86-.38,1.27l.16,0a11.56,11.56,0,0,0-.15,2.35c.44,7.79,7.33,16.53,12.1,21.29A53.54,53.54,0,0,0,72.18,216l-.05,0a35.88,35.88,0,0,0-11.33,7.45c-9,8.92-13.58,20.14-15.83,28.11a19.68,19.68,0,0,0-14,15.09L28.42,268l0,0s0,0,0,0l-.11.05-.05,0C-.42,281.15,0,315,0,315a27,27,0,0,1,3.14-7.83c0,.14,0,.27-.07.41-.26,1.49-.45,3-.57,4.46l0,0A79.14,79.14,0,0,0,4.8,337.09s.93-14.28,16.44-25.63h0c19.43-11.33,42.18-17.65,67.88-20.33s19.84-18,17-32.2,9.38-29.32,9.38-29.32l-.21.17a21.23,21.23,0,0,1,3.2-2.4l1.51-3.61v0l2.17-5.13-3.69,8.76c-4.55,10.72-5.86,14.31-6.68,21.3a53.46,53.46,0,0,0,.07,10.49c.47,6.19,1.82,22.63,4,38.95,2.77,20.66,19.19,60.54,19.68,68s0,18.54,0,18.54l.78.22h0s-.61,13.6,0,21.25a54.23,54.23,0,0,0,7.33.91c-.14,1.51-.23,3-.25,4.51,0,0,2.82,3.9,13.77,2.27S173.49,402,175.12,397.9s2-14.66,2-14.66h0c2.53-1.65,4.37-3.14,4.75-4,1.2-2.72-.43-24.23,1.4-30.08s8-12.74,10.85-21.41c.78-2.4,1.65-5.92,2.56-9.89a102,102,0,0,0,19.63,1.39c12.4-.29,25.53-3.27,36.45-6.47,5.1,19.67,15.41,45.56,15.78,51.25.45,6.92,0,17.16,0,17.16l.72.2h0s-.56,12.6,0,19.68a49.88,49.88,0,0,0,6.79.84c-.13,1.41-.22,2.81-.23,4.18,0,0,2.61,3.61,12.75,2.11s15-11,16.56-14.76,1.84-13.57,1.84-13.57h0c2.33-1.52,4-2.9,4.39-3.69,1.11-2.51-.4-22.42,1.3-27.84s7.44-11.8,10-19.83c1.84-5.67,4.19-17.89,6.53-27,1.56-3.58,3-6.87,4.35-9.71.23-.5.45-1,.67-1.49a17.12,17.12,0,0,0,3.08,1.72c.35,1.31.74,2.58,1.2,3.8,7.69,20.6,29.6,27.92,30.58,28.23A25.17,25.17,0,0,1,363.14,319.06ZM313.46,214.65l0,0-.39-.16Zm-12.12-3.75.24,0c-1.25-.27-2.54-.53-3.85-.76C299,210.4,300.17,210.63,301.34,210.9Zm1.76.41h0l-.51-.13C302.76,211.23,302.93,211.26,303.1,211.31Zm-6.4-1.3c-1.25-.2-2.54-.38-3.85-.55C294.17,209.62,295.45,209.8,296.7,210Zm65.86,11.3c7.4,3.31,7.09,13.64,5.4,25.54-1.2-10.06-3.93-18.2-10.34-21.9a140.66,140.66,0,0,1-12.91-8.41C349.79,218.21,355.43,218.11,362.56,221.31Zm-71.85-12.09.43.05c-1.47-.16-2.95-.31-4.49-.41C288,208.94,289.39,209.06,290.71,209.22ZM84.38,223.79h0c-7.6,8.12-16.18,20.31-26.88,27.21l-1.23.79a19.58,19.58,0,0,0-6-.94,19.21,19.21,0,0,0-3.05.26c2.88-6,7.25-13.41,13.28-19,5.63-5.27,15.23-7.8,24.7-9.14C84.9,223.23,84.64,223.5,84.38,223.79Zm121.31-61.62c.52,1.63-.88,3-3.24,4.5-2.5-3.73-4.34-6.11-4.59-6.42a20.46,20.46,0,0,0-1.29-5.11C200.71,159.74,205.08,160.24,205.69,162.17ZM158.87,91.84c-.28.65-.55,1.23-.82,1.79l-.15,0c.35-.67.72-1.33,1.09-2C159,91.67,158.9,91.76,158.87,91.84ZM103.24,273.48c-.9,8.71-11.6,11.89-24.37,14.19,9.91-4.64,17.33-10.19,18.95-18a155.38,155.38,0,0,1,4.26-16.1C102.09,259.33,104.1,265.08,103.24,273.48Zm6.73-38a43.61,43.61,0,0,1,4-4.44A46,46,0,0,0,110,235.47Zm-.81,1.05.48-.62Z"/></g></g></svg>