<svg xmlns="http://www.w3.org/2000/svg" width="18.81" height="14.933" viewBox="0 0 18.81 14.933"><path d="M2.23,55.809a.728.728,0,0,0-.237-.615L.237,53.079v-.316H5.69l4.215,9.244,3.706-9.244h5.2v.316l-1.5,1.44a.439.439,0,0,0-.167.421V65.518a.439.439,0,0,0,.167.421l1.466,1.44V67.7H11.4V67.38L12.917,65.9c.149-.149.149-.193.149-.421v-8.55L8.843,67.66H8.272L3.354,56.933v7.19a.992.992,0,0,0,.272.825l1.976,2.4v.316H0v-.316l1.976-2.4a.957.957,0,0,0,.255-.825V55.809Z" transform="translate(0 -52.763)" fill="#27346D"/></svg>
