<svg xmlns="http://www.w3.org/2000/svg" xmlns:xlink="http://www.w3.org/1999/xlink" viewBox="0 0 469.28 464.29"><defs><style>.cls-1{isolation:isolate;}.cls-10,.cls-100,.cls-101,.cls-102,.cls-104,.cls-105,.cls-106,.cls-107,.cls-108,.cls-109,.cls-11,.cls-110,.cls-111,.cls-12,.cls-13,.cls-14,.cls-15,.cls-17,.cls-18,.cls-19,.cls-2,.cls-20,.cls-21,.cls-22,.cls-23,.cls-24,.cls-25,.cls-26,.cls-27,.cls-28,.cls-3,.cls-31,.cls-32,.cls-33,.cls-34,.cls-35,.cls-36,.cls-37,.cls-38,.cls-39,.cls-4,.cls-40,.cls-41,.cls-42,.cls-43,.cls-44,.cls-46,.cls-47,.cls-48,.cls-49,.cls-5,.cls-50,.cls-51,.cls-52,.cls-53,.cls-54,.cls-55,.cls-56,.cls-57,.cls-58,.cls-6,.cls-60,.cls-61,.cls-62,.cls-63,.cls-64,.cls-65,.cls-66,.cls-67,.cls-68,.cls-69,.cls-7,.cls-71,.cls-72,.cls-73,.cls-74,.cls-75,.cls-76,.cls-77,.cls-78,.cls-79,.cls-8,.cls-80,.cls-81,.cls-82,.cls-83,.cls-84,.cls-85,.cls-86,.cls-87,.cls-88,.cls-89,.cls-9,.cls-90,.cls-91,.cls-93,.cls-94,.cls-95,.cls-96,.cls-97,.cls-98,.cls-99{fill-rule:evenodd;}.cls-2{fill:url(#linear-gradient);}.cls-3{fill:url(#_ÂÁ_Ï_ÌÌ_È_ËÂÌÚ_92);}.cls-4{fill:url(#_ÂÁ_Ï_ÌÌ_È_ËÂÌÚ_77);}.cls-5{fill:url(#_ÂÁ_Ï_ÌÌ_È_ËÂÌÚ_91);}.cls-6{fill:url(#_ÂÁ_Ï_ÌÌ_È_ËÂÌÚ_101);}.cls-10,.cls-105,.cls-107,.cls-109,.cls-110,.cls-12,.cls-13,.cls-15,.cls-17,.cls-36,.cls-38,.cls-40,.cls-41,.cls-51,.cls-54,.cls-56,.cls-58,.cls-60,.cls-7,.cls-72,.cls-74,.cls-76,.cls-77,.cls-84,.cls-87,.cls-89,.cls-91,.cls-93{mix-blend-mode:multiply;}.cls-10,.cls-107,.cls-110,.cls-17,.cls-38,.cls-41,.cls-51,.cls-54,.cls-60,.cls-7,.cls-74,.cls-77,.cls-84,.cls-87,.cls-93{opacity:0.79;}.cls-7{fill:url(#_ÂÁ_Ï_ÌÌ_È_ËÂÌÚ_146);}.cls-8{fill:url(#_ÂÁ_Ï_ÌÌ_È_ËÂÌÚ_2);}.cls-9{fill:url(#_ÂÁ_Ï_ÌÌ_È_ËÂÌÚ_101-2);}.cls-10{fill:url(#_ÂÁ_Ï_ÌÌ_È_ËÂÌÚ_139);}.cls-11{fill:url(#_ÂÁ_Ï_ÌÌ_È_ËÂÌÚ_4);}.cls-12{fill:#7c4f90;opacity:0.5;}.cls-105,.cls-106,.cls-109,.cls-13,.cls-15,.cls-36,.cls-37,.cls-40,.cls-56,.cls-58,.cls-72,.cls-73,.cls-76,.cls-89,.cls-91{opacity:0.58;}.cls-13{fill:url(#_ÂÁ_Ï_ÌÌ_È_ËÂÌÚ_139-2);}.cls-14{fill:url(#_ÂÁ_Ï_ÌÌ_È_ËÂÌÚ_5);}.cls-15{fill:url(#_ÂÁ_Ï_ÌÌ_È_ËÂÌÚ_127);}.cls-16{fill:url(#_ÂÁ_Ï_ÌÌ_È_ËÂÌÚ_213);}.cls-17{fill:url(#_ÂÁ_Ï_ÌÌ_È_ËÂÌÚ_156);}.cls-18{fill:url(#_ÂÁ_Ï_ÌÌ_È_ËÂÌÚ_4-2);}.cls-19{fill:url(#_ÂÁ_Ï_ÌÌ_È_ËÂÌÚ_56);}.cls-20{fill:url(#_ÂÁ_Ï_ÌÌ_È_ËÂÌÚ_46);}.cls-21{fill:url(#_ÂÁ_Ï_ÌÌ_È_ËÂÌÚ_77-2);}.cls-22{fill:url(#_ÂÁ_Ï_ÌÌ_È_ËÂÌÚ_77-3);}.cls-23{fill:#4f5195;}.cls-24{fill:url(#_ÂÁ_Ï_ÌÌ_È_ËÂÌÚ_91-2);}.cls-25{fill:url(#_ÂÁ_Ï_ÌÌ_È_ËÂÌÚ_101-3);}.cls-26{fill:url(#_ÂÁ_Ï_ÌÌ_È_ËÂÌÚ_92-2);}.cls-27{fill:#a19ddd;}.cls-28{fill:url(#_ÂÁ_Ï_ÌÌ_È_ËÂÌÚ_118);}.cls-29{fill:url(#_ÂÁ_Ï_ÌÌ_È_ËÂÌÚ_109);}.cls-30{fill:#180833;}.cls-31{fill:#220d33;}.cls-32{fill:#b64f6d;}.cls-33,.cls-44,.cls-45{fill:#fff;}.cls-34{fill:url(#_ÂÁ_Ï_ÌÌ_È_ËÂÌÚ_101-4);}.cls-35{fill:#b5526f;}.cls-36{fill:url(#_ÂÁ_Ï_ÌÌ_È_ËÂÌÚ_29);}.cls-106,.cls-37,.cls-73{mix-blend-mode:screen;}.cls-37{fill:url(#_ÂÁ_Ï_ÌÌ_È_ËÂÌÚ_132);}.cls-38{fill:url(#_ÂÁ_Ï_ÌÌ_È_ËÂÌÚ_139-3);}.cls-39{fill:url(#_ÂÁ_Ï_ÌÌ_È_ËÂÌÚ_3);}.cls-40{fill:url(#_ÂÁ_Ï_ÌÌ_È_ËÂÌÚ_127-2);}.cls-41{fill:url(#_ÂÁ_Ï_ÌÌ_È_ËÂÌÚ_139-4);}.cls-42{fill:url(#_ÂÁ_Ï_ÌÌ_È_ËÂÌÚ_2-2);}.cls-43{fill:#ff63b8;}.cls-44,.cls-45{mix-blend-mode:soft-light;}.cls-46{fill:url(#linear-gradient-2);}.cls-47{fill:url(#_ÂÁ_Ï_ÌÌ_È_ËÂÌÚ_92-3);}.cls-48{fill:url(#_ÂÁ_Ï_ÌÌ_È_ËÂÌÚ_77-4);}.cls-49{fill:url(#_ÂÁ_Ï_ÌÌ_È_ËÂÌÚ_91-3);}.cls-50{fill:url(#_ÂÁ_Ï_ÌÌ_È_ËÂÌÚ_101-5);}.cls-51{fill:url(#_ÂÁ_Ï_ÌÌ_È_ËÂÌÚ_146-2);}.cls-52{fill:url(#_ÂÁ_Ï_ÌÌ_È_ËÂÌÚ_2-3);}.cls-53{fill:url(#_ÂÁ_Ï_ÌÌ_È_ËÂÌÚ_101-6);}.cls-54{fill:url(#_ÂÁ_Ï_ÌÌ_È_ËÂÌÚ_139-5);}.cls-55{fill:url(#_ÂÁ_Ï_ÌÌ_È_ËÂÌÚ_4-3);}.cls-56{fill:url(#_ÂÁ_Ï_ÌÌ_È_ËÂÌÚ_139-6);}.cls-57{fill:url(#_ÂÁ_Ï_ÌÌ_È_ËÂÌÚ_5-2);}.cls-58{fill:url(#_ÂÁ_Ï_ÌÌ_È_ËÂÌÚ_127-3);}.cls-59{fill:url(#_ÂÁ_Ï_ÌÌ_È_ËÂÌÚ_213-2);}.cls-60{fill:url(#_ÂÁ_Ï_ÌÌ_È_ËÂÌÚ_156-2);}.cls-61{fill:url(#_ÂÁ_Ï_ÌÌ_È_ËÂÌÚ_4-4);}.cls-62{fill:url(#_ÂÁ_Ï_ÌÌ_È_ËÂÌÚ_56-2);}.cls-63{fill:url(#_ÂÁ_Ï_ÌÌ_È_ËÂÌÚ_46-2);}.cls-64{fill:url(#_ÂÁ_Ï_ÌÌ_È_ËÂÌÚ_77-5);}.cls-65{fill:url(#_ÂÁ_Ï_ÌÌ_È_ËÂÌÚ_77-6);}.cls-66{fill:url(#_ÂÁ_Ï_ÌÌ_È_ËÂÌÚ_91-4);}.cls-67{fill:url(#_ÂÁ_Ï_ÌÌ_È_ËÂÌÚ_101-7);}.cls-68{fill:url(#_ÂÁ_Ï_ÌÌ_È_ËÂÌÚ_92-4);}.cls-69{fill:url(#_ÂÁ_Ï_ÌÌ_È_ËÂÌÚ_118-2);}.cls-70{fill:url(#_ÂÁ_Ï_ÌÌ_È_ËÂÌÚ_109-2);}.cls-71{fill:url(#_ÂÁ_Ï_ÌÌ_È_ËÂÌÚ_101-8);}.cls-72{fill:url(#_ÂÁ_Ï_ÌÌ_È_ËÂÌÚ_29-2);}.cls-73{fill:url(#_ÂÁ_Ï_ÌÌ_È_ËÂÌÚ_132-2);}.cls-74{fill:url(#_ÂÁ_Ï_ÌÌ_È_ËÂÌÚ_139-7);}.cls-75{fill:url(#_ÂÁ_Ï_ÌÌ_È_ËÂÌÚ_3-2);}.cls-76{fill:url(#_ÂÁ_Ï_ÌÌ_È_ËÂÌÚ_127-4);}.cls-77{fill:url(#_ÂÁ_Ï_ÌÌ_È_ËÂÌÚ_139-8);}.cls-78{fill:url(#_ÂÁ_Ï_ÌÌ_È_ËÂÌÚ_2-4);}.cls-79{fill:url(#linear-gradient-3);}.cls-80{fill:url(#_ÂÁ_Ï_ÌÌ_È_ËÂÌÚ_92-5);}.cls-81{fill:url(#_ÂÁ_Ï_ÌÌ_È_ËÂÌÚ_77-7);}.cls-82{fill:url(#_ÂÁ_Ï_ÌÌ_È_ËÂÌÚ_91-5);}.cls-83{fill:url(#_ÂÁ_Ï_ÌÌ_È_ËÂÌÚ_101-9);}.cls-84{fill:url(#_ÂÁ_Ï_ÌÌ_È_ËÂÌÚ_146-3);}.cls-85{fill:url(#_ÂÁ_Ï_ÌÌ_È_ËÂÌÚ_2-5);}.cls-86{fill:url(#_ÂÁ_Ï_ÌÌ_È_ËÂÌÚ_101-10);}.cls-87{fill:url(#_ÂÁ_Ï_ÌÌ_È_ËÂÌÚ_139-9);}.cls-88{fill:url(#_ÂÁ_Ï_ÌÌ_È_ËÂÌÚ_4-5);}.cls-89{fill:url(#_ÂÁ_Ï_ÌÌ_È_ËÂÌÚ_139-10);}.cls-90{fill:url(#_ÂÁ_Ï_ÌÌ_È_ËÂÌÚ_5-3);}.cls-91{fill:url(#_ÂÁ_Ï_ÌÌ_È_ËÂÌÚ_127-5);}.cls-92{fill:url(#_ÂÁ_Ï_ÌÌ_È_ËÂÌÚ_213-3);}.cls-93{fill:url(#_ÂÁ_Ï_ÌÌ_È_ËÂÌÚ_156-3);}.cls-94{fill:url(#_ÂÁ_Ï_ÌÌ_È_ËÂÌÚ_4-6);}.cls-95{fill:url(#_ÂÁ_Ï_ÌÌ_È_ËÂÌÚ_56-3);}.cls-96{fill:url(#_ÂÁ_Ï_ÌÌ_È_ËÂÌÚ_46-3);}.cls-97{fill:url(#_ÂÁ_Ï_ÌÌ_È_ËÂÌÚ_77-8);}.cls-98{fill:url(#_ÂÁ_Ï_ÌÌ_È_ËÂÌÚ_77-9);}.cls-99{fill:url(#_ÂÁ_Ï_ÌÌ_È_ËÂÌÚ_91-6);}.cls-100{fill:url(#_ÂÁ_Ï_ÌÌ_È_ËÂÌÚ_101-11);}.cls-101{fill:url(#_ÂÁ_Ï_ÌÌ_È_ËÂÌÚ_92-6);}.cls-102{fill:url(#_ÂÁ_Ï_ÌÌ_È_ËÂÌÚ_118-3);}.cls-103{fill:url(#_ÂÁ_Ï_ÌÌ_È_ËÂÌÚ_109-3);}.cls-104{fill:url(#_ÂÁ_Ï_ÌÌ_È_ËÂÌÚ_101-12);}.cls-105{fill:url(#_ÂÁ_Ï_ÌÌ_È_ËÂÌÚ_29-3);}.cls-106{fill:url(#_ÂÁ_Ï_ÌÌ_È_ËÂÌÚ_132-3);}.cls-107{fill:url(#_ÂÁ_Ï_ÌÌ_È_ËÂÌÚ_139-11);}.cls-108{fill:url(#_ÂÁ_Ï_ÌÌ_È_ËÂÌÚ_3-3);}.cls-109{fill:url(#_ÂÁ_Ï_ÌÌ_È_ËÂÌÚ_127-6);}.cls-110{fill:url(#_ÂÁ_Ï_ÌÌ_È_ËÂÌÚ_139-12);}.cls-111{fill:url(#_ÂÁ_Ï_ÌÌ_È_ËÂÌÚ_2-6);}</style><linearGradient id="linear-gradient" x1="301.04" y1="251.93" x2="166.02" y2="18.07" gradientUnits="userSpaceOnUse"><stop offset="0" stop-color="#111114"/><stop offset="1" stop-color="#303035"/></linearGradient><linearGradient id="_ÂÁ_Ï_ÌÌ_È_ËÂÌÚ_92" x1="205.18" y1="268.46" x2="205.18" y2="237.22" gradientUnits="userSpaceOnUse"><stop offset="0.03" stop-color="#84a1ff"/><stop offset="0.98" stop-color="#5b72ec"/></linearGradient><linearGradient id="_ÂÁ_Ï_ÌÌ_È_ËÂÌÚ_77" x1="206.7" y1="248.65" x2="206.7" y2="190.12" gradientUnits="userSpaceOnUse"><stop offset="0.02" stop-color="#ffa451"/><stop offset="0.97" stop-color="#ff515e"/></linearGradient><linearGradient id="_ÂÁ_Ï_ÌÌ_È_ËÂÌÚ_91" x1="204.02" y1="267.99" x2="204.02" y2="217.05" gradientUnits="userSpaceOnUse"><stop offset="0.03" stop-color="#d36fff"/><stop offset="0.98" stop-color="#a240ec"/></linearGradient><linearGradient id="_ÂÁ_Ï_ÌÌ_È_ËÂÌÚ_101" x1="205.34" y1="260.15" x2="205.34" y2="205.41" gradientUnits="userSpaceOnUse"><stop offset="0.02" stop-color="#ff7288"/><stop offset="0.97" stop-color="#ff11a1"/></linearGradient><linearGradient id="_ÂÁ_Ï_ÌÌ_È_ËÂÌÚ_146" x1="215.08" y1="268.46" x2="215.08" y2="194.91" gradientUnits="userSpaceOnUse"><stop offset="0" stop-color="#fff"/><stop offset="0.99" stop-color="#943bac"/></linearGradient><linearGradient id="_ÂÁ_Ï_ÌÌ_È_ËÂÌÚ_2" x1="224.14" y1="269.63" x2="224.14" y2="228.6" gradientUnits="userSpaceOnUse"><stop offset="0.02" stop-color="#5bc9ec"/><stop offset="0.97" stop-color="#84a1ff"/></linearGradient><linearGradient id="_ÂÁ_Ï_ÌÌ_È_ËÂÌÚ_101-2" x1="196.24" y1="129.29" x2="196.24" y2="84.59" xlink:href="#_ÂÁ_Ï_ÌÌ_È_ËÂÌÚ_101"/><linearGradient id="_ÂÁ_Ï_ÌÌ_È_ËÂÌÚ_139" x1="197.12" y1="129.29" x2="197.12" y2="85.82" gradientUnits="userSpaceOnUse"><stop offset="0" stop-color="#fff"/><stop offset="0.99" stop-color="#8259ac"/></linearGradient><linearGradient id="_ÂÁ_Ï_ÌÌ_È_ËÂÌÚ_4" x1="278.94" y1="270" x2="278.94" y2="141.58" gradientUnits="userSpaceOnUse"><stop offset="0.02" stop-color="#e4deec"/><stop offset="1" stop-color="#cfbfeb"/></linearGradient><linearGradient id="_ÂÁ_Ï_ÌÌ_È_ËÂÌÚ_139-2" x1="284.53" y1="261.85" x2="284.53" y2="141.58" xlink:href="#_ÂÁ_Ï_ÌÌ_È_ËÂÌÚ_139"/><linearGradient id="_ÂÁ_Ï_ÌÌ_È_ËÂÌÚ_5" x1="243.29" y1="216.3" x2="243.29" y2="82.22" gradientUnits="userSpaceOnUse"><stop offset="0" stop-color="#cfbfeb"/><stop offset="0.98" stop-color="#e4deec"/></linearGradient><linearGradient id="_ÂÁ_Ï_ÌÌ_È_ËÂÌÚ_127" x1="248.49" y1="216.3" x2="248.49" y2="82.22" gradientUnits="userSpaceOnUse"><stop offset="0" stop-color="#cad6ff"/><stop offset="0.99" stop-color="#9775ba"/></linearGradient><linearGradient id="_ÂÁ_Ï_ÌÌ_È_ËÂÌÚ_213" x1="218.84" y1="101.82" x2="218.84" y2="10.86" gradientTransform="matrix(0.99, 0.15, -0.14, 0.93, -0.09, -21.01)" gradientUnits="userSpaceOnUse"><stop offset="0" stop-color="#ff8757"/><stop offset="0.98" stop-color="#ffb34c"/></linearGradient><linearGradient id="_ÂÁ_Ï_ÌÌ_È_ËÂÌÚ_156" x1="218.98" y1="101.82" x2="218.98" y2="11.01" gradientTransform="matrix(0.99, 0.15, -0.14, 0.93, -0.09, -21.01)" gradientUnits="userSpaceOnUse"><stop offset="0" stop-color="#fff"/><stop offset="0.99" stop-color="#b10bac"/></linearGradient><linearGradient id="_ÂÁ_Ï_ÌÌ_È_ËÂÌÚ_4-2" x1="298.55" y1="177" x2="298.55" y2="120.03" gradientTransform="translate(-17.81 -29.61) rotate(-6.21)" xlink:href="#_ÂÁ_Ï_ÌÌ_È_ËÂÌÚ_4"/><linearGradient id="_ÂÁ_Ï_ÌÌ_È_ËÂÌÚ_56" x1="258.91" y1="118.73" x2="258.91" y2="49.72" gradientUnits="userSpaceOnUse"><stop offset="0.02" stop-color="#a272ec"/><stop offset="0.97" stop-color="#d36fff"/></linearGradient><linearGradient id="_ÂÁ_Ï_ÌÌ_È_ËÂÌÚ_46" x1="268.79" y1="107.63" x2="268.79" y2="61" gradientUnits="userSpaceOnUse"><stop offset="0.02" stop-color="#5b72ec"/><stop offset="0.97" stop-color="#84a1ff"/></linearGradient><linearGradient id="_ÂÁ_Ï_ÌÌ_È_ËÂÌÚ_77-2" x1="182.26" y1="119.58" x2="182.26" y2="86.67" xlink:href="#_ÂÁ_Ï_ÌÌ_È_ËÂÌÚ_77"/><linearGradient id="_ÂÁ_Ï_ÌÌ_È_ËÂÌÚ_77-3" x1="340.21" y1="218.17" x2="340.21" y2="216.29" xlink:href="#_ÂÁ_Ï_ÌÌ_È_ËÂÌÚ_77"/><linearGradient id="_ÂÁ_Ï_ÌÌ_È_ËÂÌÚ_91-2" x1="307.67" y1="263.54" x2="307.67" y2="155.78" xlink:href="#_ÂÁ_Ï_ÌÌ_È_ËÂÌÚ_91"/><linearGradient id="_ÂÁ_Ï_ÌÌ_È_ËÂÌÚ_101-3" x1="312.97" y1="250.25" x2="312.97" y2="170.93" xlink:href="#_ÂÁ_Ï_ÌÌ_È_ËÂÌÚ_101"/><linearGradient id="_ÂÁ_Ï_ÌÌ_È_ËÂÌÚ_92-2" x1="303.6" y1="222.27" x2="303.6" y2="107.63" xlink:href="#_ÂÁ_Ï_ÌÌ_È_ËÂÌÚ_92"/><linearGradient id="_ÂÁ_Ï_ÌÌ_È_ËÂÌÚ_118" x1="246.64" y1="167.42" x2="246.64" y2="137.71" gradientUnits="userSpaceOnUse"><stop offset="0" stop-color="#fff"/><stop offset="1" stop-color="#bdbfff"/></linearGradient><linearGradient id="_ÂÁ_Ï_ÌÌ_È_ËÂÌÚ_109" x1="250.05" y1="164.68" x2="250.05" y2="136.95" gradientTransform="translate(179.88 -132.64) rotate(45)" gradientUnits="userSpaceOnUse"><stop offset="0.01" stop-color="#634f90"/><stop offset="1" stop-color="#3b0643"/></linearGradient><linearGradient id="_ÂÁ_Ï_ÌÌ_È_ËÂÌÚ_101-4" x1="228.48" y1="120.41" x2="256.7" y2="120.41" xlink:href="#_ÂÁ_Ï_ÌÌ_È_ËÂÌÚ_101"/><linearGradient id="_ÂÁ_Ï_ÌÌ_È_ËÂÌÚ_29" x1="202.81" y1="188.02" x2="211.34" y2="188.02" gradientUnits="userSpaceOnUse"><stop offset="0.01" stop-color="#9775ba"/><stop offset="1" stop-color="#ffeadb"/></linearGradient><linearGradient id="_ÂÁ_Ï_ÌÌ_È_ËÂÌÚ_132" x1="181.28" y1="175.61" x2="222.59" y2="175.61" gradientUnits="userSpaceOnUse"><stop offset="0" stop-color="#ffeadb"/><stop offset="0.99"/></linearGradient><linearGradient id="_ÂÁ_Ï_ÌÌ_È_ËÂÌÚ_139-3" x1="259.15" y1="118.73" x2="259.15" y2="49.85" xlink:href="#_ÂÁ_Ï_ÌÌ_È_ËÂÌÚ_139"/><linearGradient id="_ÂÁ_Ï_ÌÌ_È_ËÂÌÚ_3" x1="294.36" y1="115.43" x2="294.36" y2="61.96" gradientUnits="userSpaceOnUse"><stop offset="0.02" stop-color="#ff9fa6"/><stop offset="1" stop-color="#ff88c7"/></linearGradient><linearGradient id="_ÂÁ_Ï_ÌÌ_È_ËÂÌÚ_127-2" x1="295" y1="104.22" x2="295" y2="61.96" xlink:href="#_ÂÁ_Ï_ÌÌ_È_ËÂÌÚ_127"/><linearGradient id="_ÂÁ_Ï_ÌÌ_È_ËÂÌÚ_139-4" x1="314.86" y1="250.2" x2="314.86" y2="107.63" xlink:href="#_ÂÁ_Ï_ÌÌ_È_ËÂÌÚ_139"/><linearGradient id="_ÂÁ_Ï_ÌÌ_È_ËÂÌÚ_2-2" x1="313.37" y1="196.62" x2="313.37" y2="132.69" xlink:href="#_ÂÁ_Ï_ÌÌ_È_ËÂÌÚ_2"/><linearGradient id="linear-gradient-2" x1="401.79" y1="446.22" x2="266.76" y2="212.35" xlink:href="#linear-gradient"/><linearGradient id="_ÂÁ_Ï_ÌÌ_È_ËÂÌÚ_92-3" x1="305.93" y1="462.75" x2="305.93" y2="431.5" xlink:href="#_ÂÁ_Ï_ÌÌ_È_ËÂÌÚ_92"/><linearGradient id="_ÂÁ_Ï_ÌÌ_È_ËÂÌÚ_77-4" x1="307.45" y1="442.94" x2="307.45" y2="384.4" xlink:href="#_ÂÁ_Ï_ÌÌ_È_ËÂÌÚ_77"/><linearGradient id="_ÂÁ_Ï_ÌÌ_È_ËÂÌÚ_91-3" x1="304.76" y1="462.28" x2="304.76" y2="411.34" xlink:href="#_ÂÁ_Ï_ÌÌ_È_ËÂÌÚ_91"/><linearGradient id="_ÂÁ_Ï_ÌÌ_È_ËÂÌÚ_101-5" x1="306.08" y1="454.43" x2="306.08" y2="399.7" xlink:href="#_ÂÁ_Ï_ÌÌ_È_ËÂÌÚ_101"/><linearGradient id="_ÂÁ_Ï_ÌÌ_È_ËÂÌÚ_146-2" x1="315.82" y1="462.75" x2="315.82" y2="389.2" xlink:href="#_ÂÁ_Ï_ÌÌ_È_ËÂÌÚ_146"/><linearGradient id="_ÂÁ_Ï_ÌÌ_È_ËÂÌÚ_2-3" x1="324.89" y1="463.92" x2="324.89" y2="422.88" xlink:href="#_ÂÁ_Ï_ÌÌ_È_ËÂÌÚ_2"/><linearGradient id="_ÂÁ_Ï_ÌÌ_È_ËÂÌÚ_101-6" x1="296.99" y1="323.58" x2="296.99" y2="278.88" xlink:href="#_ÂÁ_Ï_ÌÌ_È_ËÂÌÚ_101"/><linearGradient id="_ÂÁ_Ï_ÌÌ_È_ËÂÌÚ_139-5" x1="297.87" y1="323.58" x2="297.87" y2="280.11" xlink:href="#_ÂÁ_Ï_ÌÌ_È_ËÂÌÚ_139"/><linearGradient id="_ÂÁ_Ï_ÌÌ_È_ËÂÌÚ_4-3" x1="379.69" y1="464.29" x2="379.69" y2="335.86" xlink:href="#_ÂÁ_Ï_ÌÌ_È_ËÂÌÚ_4"/><linearGradient id="_ÂÁ_Ï_ÌÌ_È_ËÂÌÚ_139-6" x1="385.28" y1="456.13" x2="385.28" y2="335.86" xlink:href="#_ÂÁ_Ï_ÌÌ_È_ËÂÌÚ_139"/><linearGradient id="_ÂÁ_Ï_ÌÌ_È_ËÂÌÚ_5-2" x1="344.03" y1="410.59" x2="344.03" y2="276.51" xlink:href="#_ÂÁ_Ï_ÌÌ_È_ËÂÌÚ_5"/><linearGradient id="_ÂÁ_Ï_ÌÌ_È_ËÂÌÚ_127-3" x1="349.23" y1="410.59" x2="349.23" y2="276.51" xlink:href="#_ÂÁ_Ï_ÌÌ_È_ËÂÌÚ_127"/><linearGradient id="_ÂÁ_Ï_ÌÌ_È_ËÂÌÚ_213-2" x1="347.71" y1="288.95" x2="347.71" y2="197.99" xlink:href="#_ÂÁ_Ï_ÌÌ_È_ËÂÌÚ_213"/><linearGradient id="_ÂÁ_Ï_ÌÌ_È_ËÂÌÚ_156-2" x1="347.85" y1="288.95" x2="347.85" y2="198.14" xlink:href="#_ÂÁ_Ï_ÌÌ_È_ËÂÌÚ_156"/><linearGradient id="_ÂÁ_Ï_ÌÌ_È_ËÂÌÚ_4-4" x1="377.7" y1="381.05" x2="377.7" y2="324.08" gradientTransform="translate(-17.81 -29.61) rotate(-6.21)" xlink:href="#_ÂÁ_Ï_ÌÌ_È_ËÂÌÚ_4"/><linearGradient id="_ÂÁ_Ï_ÌÌ_È_ËÂÌÚ_56-2" x1="359.66" y1="313.01" x2="359.66" y2="244" xlink:href="#_ÂÁ_Ï_ÌÌ_È_ËÂÌÚ_56"/><linearGradient id="_ÂÁ_Ï_ÌÌ_È_ËÂÌÚ_46-2" x1="369.53" y1="301.92" x2="369.53" y2="255.29" xlink:href="#_ÂÁ_Ï_ÌÌ_È_ËÂÌÚ_46"/><linearGradient id="_ÂÁ_Ï_ÌÌ_È_ËÂÌÚ_77-5" x1="283.01" y1="313.87" x2="283.01" y2="280.95" xlink:href="#_ÂÁ_Ï_ÌÌ_È_ËÂÌÚ_77"/><linearGradient id="_ÂÁ_Ï_ÌÌ_È_ËÂÌÚ_77-6" x1="440.96" y1="412.46" x2="440.96" y2="410.58" xlink:href="#_ÂÁ_Ï_ÌÌ_È_ËÂÌÚ_77"/><linearGradient id="_ÂÁ_Ï_ÌÌ_È_ËÂÌÚ_91-4" x1="408.42" y1="457.83" x2="408.42" y2="350.07" xlink:href="#_ÂÁ_Ï_ÌÌ_È_ËÂÌÚ_91"/><linearGradient id="_ÂÁ_Ï_ÌÌ_È_ËÂÌÚ_101-7" x1="413.72" y1="444.53" x2="413.72" y2="365.21" xlink:href="#_ÂÁ_Ï_ÌÌ_È_ËÂÌÚ_101"/><linearGradient id="_ÂÁ_Ï_ÌÌ_È_ËÂÌÚ_92-4" x1="404.34" y1="416.56" x2="404.34" y2="301.92" xlink:href="#_ÂÁ_Ï_ÌÌ_È_ËÂÌÚ_92"/><linearGradient id="_ÂÁ_Ï_ÌÌ_È_ËÂÌÚ_118-2" x1="347.38" y1="361.71" x2="347.38" y2="332" xlink:href="#_ÂÁ_Ï_ÌÌ_È_ËÂÌÚ_118"/><linearGradient id="_ÂÁ_Ï_ÌÌ_È_ËÂÌÚ_109-2" x1="350.79" y1="358.96" x2="350.79" y2="331.24" gradientTransform="translate(346.77 -146.97) rotate(45)" xlink:href="#_ÂÁ_Ï_ÌÌ_È_ËÂÌÚ_109"/><linearGradient id="_ÂÁ_Ï_ÌÌ_È_ËÂÌÚ_101-8" x1="329.23" y1="314.7" x2="357.45" y2="314.7" xlink:href="#_ÂÁ_Ï_ÌÌ_È_ËÂÌÚ_101"/><linearGradient id="_ÂÁ_Ï_ÌÌ_È_ËÂÌÚ_29-2" x1="303.56" y1="382.3" x2="312.09" y2="382.3" xlink:href="#_ÂÁ_Ï_ÌÌ_È_ËÂÌÚ_29"/><linearGradient id="_ÂÁ_Ï_ÌÌ_È_ËÂÌÚ_132-2" x1="282.02" y1="369.9" x2="323.33" y2="369.9" xlink:href="#_ÂÁ_Ï_ÌÌ_È_ËÂÌÚ_132"/><linearGradient id="_ÂÁ_Ï_ÌÌ_È_ËÂÌÚ_139-7" x1="359.89" y1="313.01" x2="359.89" y2="244.13" xlink:href="#_ÂÁ_Ï_ÌÌ_È_ËÂÌÚ_139"/><linearGradient id="_ÂÁ_Ï_ÌÌ_È_ËÂÌÚ_3-2" x1="395.11" y1="309.72" x2="395.11" y2="256.24" xlink:href="#_ÂÁ_Ï_ÌÌ_È_ËÂÌÚ_3"/><linearGradient id="_ÂÁ_Ï_ÌÌ_È_ËÂÌÚ_127-4" x1="395.74" y1="298.51" x2="395.74" y2="256.24" xlink:href="#_ÂÁ_Ï_ÌÌ_È_ËÂÌÚ_127"/><linearGradient id="_ÂÁ_Ï_ÌÌ_È_ËÂÌÚ_139-8" x1="415.61" y1="444.49" x2="415.61" y2="301.92" xlink:href="#_ÂÁ_Ï_ÌÌ_È_ËÂÌÚ_139"/><linearGradient id="_ÂÁ_Ï_ÌÌ_È_ËÂÌÚ_2-4" x1="414.11" y1="390.91" x2="414.11" y2="326.98" xlink:href="#_ÂÁ_Ï_ÌÌ_È_ËÂÌÚ_2"/><linearGradient id="linear-gradient-3" x1="202.51" y1="446.22" x2="67.49" y2="212.35" xlink:href="#linear-gradient"/><linearGradient id="_ÂÁ_Ï_ÌÌ_È_ËÂÌÚ_92-5" x1="106.65" y1="462.75" x2="106.65" y2="431.5" xlink:href="#_ÂÁ_Ï_ÌÌ_È_ËÂÌÚ_92"/><linearGradient id="_ÂÁ_Ï_ÌÌ_È_ËÂÌÚ_77-7" x1="108.17" y1="442.94" x2="108.17" y2="384.4" xlink:href="#_ÂÁ_Ï_ÌÌ_È_ËÂÌÚ_77"/><linearGradient id="_ÂÁ_Ï_ÌÌ_È_ËÂÌÚ_91-5" x1="105.49" y1="462.28" x2="105.49" y2="411.34" xlink:href="#_ÂÁ_Ï_ÌÌ_È_ËÂÌÚ_91"/><linearGradient id="_ÂÁ_Ï_ÌÌ_È_ËÂÌÚ_101-9" x1="106.81" y1="454.43" x2="106.81" y2="399.7" xlink:href="#_ÂÁ_Ï_ÌÌ_È_ËÂÌÚ_101"/><linearGradient id="_ÂÁ_Ï_ÌÌ_È_ËÂÌÚ_146-3" x1="116.55" y1="462.75" x2="116.55" y2="389.2" xlink:href="#_ÂÁ_Ï_ÌÌ_È_ËÂÌÚ_146"/><linearGradient id="_ÂÁ_Ï_ÌÌ_È_ËÂÌÚ_2-5" x1="125.61" y1="463.92" x2="125.61" y2="422.88" xlink:href="#_ÂÁ_Ï_ÌÌ_È_ËÂÌÚ_2"/><linearGradient id="_ÂÁ_Ï_ÌÌ_È_ËÂÌÚ_101-10" x1="97.72" y1="323.58" x2="97.72" y2="278.88" xlink:href="#_ÂÁ_Ï_ÌÌ_È_ËÂÌÚ_101"/><linearGradient id="_ÂÁ_Ï_ÌÌ_È_ËÂÌÚ_139-9" x1="98.59" y1="323.58" x2="98.59" y2="280.11" xlink:href="#_ÂÁ_Ï_ÌÌ_È_ËÂÌÚ_139"/><linearGradient id="_ÂÁ_Ï_ÌÌ_È_ËÂÌÚ_4-5" x1="180.41" y1="464.29" x2="180.41" y2="335.86" xlink:href="#_ÂÁ_Ï_ÌÌ_È_ËÂÌÚ_4"/><linearGradient id="_ÂÁ_Ï_ÌÌ_È_ËÂÌÚ_139-10" x1="186" y1="456.13" x2="186" y2="335.86" xlink:href="#_ÂÁ_Ï_ÌÌ_È_ËÂÌÚ_139"/><linearGradient id="_ÂÁ_Ï_ÌÌ_È_ËÂÌÚ_5-3" x1="144.76" y1="410.59" x2="144.76" y2="276.51" xlink:href="#_ÂÁ_Ï_ÌÌ_È_ËÂÌÚ_5"/><linearGradient id="_ÂÁ_Ï_ÌÌ_È_ËÂÌÚ_127-5" x1="149.96" y1="410.59" x2="149.96" y2="276.51" xlink:href="#_ÂÁ_Ï_ÌÌ_È_ËÂÌÚ_127"/><linearGradient id="_ÂÁ_Ï_ÌÌ_È_ËÂÌÚ_213-3" x1="150.71" y1="320.72" x2="150.71" y2="229.76" xlink:href="#_ÂÁ_Ï_ÌÌ_È_ËÂÌÚ_213"/><linearGradient id="_ÂÁ_Ï_ÌÌ_È_ËÂÌÚ_156-3" x1="150.85" y1="320.72" x2="150.85" y2="229.91" xlink:href="#_ÂÁ_Ï_ÌÌ_È_ËÂÌÚ_156"/><linearGradient id="_ÂÁ_Ï_ÌÌ_È_ËÂÌÚ_4-6" x1="179.59" y1="359.51" x2="179.59" y2="302.54" gradientTransform="translate(-17.81 -29.61) rotate(-6.21)" xlink:href="#_ÂÁ_Ï_ÌÌ_È_ËÂÌÚ_4"/><linearGradient id="_ÂÁ_Ï_ÌÌ_È_ËÂÌÚ_56-3" x1="160.38" y1="313.01" x2="160.38" y2="244" xlink:href="#_ÂÁ_Ï_ÌÌ_È_ËÂÌÚ_56"/><linearGradient id="_ÂÁ_Ï_ÌÌ_È_ËÂÌÚ_46-3" x1="170.26" y1="301.92" x2="170.26" y2="255.29" xlink:href="#_ÂÁ_Ï_ÌÌ_È_ËÂÌÚ_46"/><linearGradient id="_ÂÁ_Ï_ÌÌ_È_ËÂÌÚ_77-8" x1="83.73" y1="313.87" x2="83.73" y2="280.95" xlink:href="#_ÂÁ_Ï_ÌÌ_È_ËÂÌÚ_77"/><linearGradient id="_ÂÁ_Ï_ÌÌ_È_ËÂÌÚ_77-9" x1="241.69" y1="412.46" x2="241.69" y2="410.58" xlink:href="#_ÂÁ_Ï_ÌÌ_È_ËÂÌÚ_77"/><linearGradient id="_ÂÁ_Ï_ÌÌ_È_ËÂÌÚ_91-6" x1="209.14" y1="457.83" x2="209.14" y2="350.07" xlink:href="#_ÂÁ_Ï_ÌÌ_È_ËÂÌÚ_91"/><linearGradient id="_ÂÁ_Ï_ÌÌ_È_ËÂÌÚ_101-11" x1="214.44" y1="444.53" x2="214.44" y2="365.21" xlink:href="#_ÂÁ_Ï_ÌÌ_È_ËÂÌÚ_101"/><linearGradient id="_ÂÁ_Ï_ÌÌ_È_ËÂÌÚ_92-6" x1="205.07" y1="416.56" x2="205.07" y2="301.92" xlink:href="#_ÂÁ_Ï_ÌÌ_È_ËÂÌÚ_92"/><linearGradient id="_ÂÁ_Ï_ÌÌ_È_ËÂÌÚ_118-3" x1="148.11" y1="361.71" x2="148.11" y2="332" xlink:href="#_ÂÁ_Ï_ÌÌ_È_ËÂÌÚ_118"/><linearGradient id="_ÂÁ_Ï_ÌÌ_È_ËÂÌÚ_109-3" x1="151.52" y1="358.96" x2="151.52" y2="331.24" gradientTransform="translate(288.4 -6.06) rotate(45)" xlink:href="#_ÂÁ_Ï_ÌÌ_È_ËÂÌÚ_109"/><linearGradient id="_ÂÁ_Ï_ÌÌ_È_ËÂÌÚ_101-12" x1="129.95" y1="314.7" x2="158.17" y2="314.7" xlink:href="#_ÂÁ_Ï_ÌÌ_È_ËÂÌÚ_101"/><linearGradient id="_ÂÁ_Ï_ÌÌ_È_ËÂÌÚ_29-3" x1="104.28" y1="382.3" x2="112.81" y2="382.3" xlink:href="#_ÂÁ_Ï_ÌÌ_È_ËÂÌÚ_29"/><linearGradient id="_ÂÁ_Ï_ÌÌ_È_ËÂÌÚ_132-3" x1="82.75" y1="369.9" x2="124.06" y2="369.9" xlink:href="#_ÂÁ_Ï_ÌÌ_È_ËÂÌÚ_132"/><linearGradient id="_ÂÁ_Ï_ÌÌ_È_ËÂÌÚ_139-11" x1="160.62" y1="313.01" x2="160.62" y2="244.13" xlink:href="#_ÂÁ_Ï_ÌÌ_È_ËÂÌÚ_139"/><linearGradient id="_ÂÁ_Ï_ÌÌ_È_ËÂÌÚ_3-3" x1="195.83" y1="309.72" x2="195.83" y2="256.24" xlink:href="#_ÂÁ_Ï_ÌÌ_È_ËÂÌÚ_3"/><linearGradient id="_ÂÁ_Ï_ÌÌ_È_ËÂÌÚ_127-6" x1="196.47" y1="298.51" x2="196.47" y2="256.24" xlink:href="#_ÂÁ_Ï_ÌÌ_È_ËÂÌÚ_127"/><linearGradient id="_ÂÁ_Ï_ÌÌ_È_ËÂÌÚ_139-12" x1="216.33" y1="444.49" x2="216.33" y2="301.92" xlink:href="#_ÂÁ_Ï_ÌÌ_È_ËÂÌÚ_139"/><linearGradient id="_ÂÁ_Ï_ÌÌ_È_ËÂÌÚ_2-6" x1="214.84" y1="390.91" x2="214.84" y2="326.98" xlink:href="#_ÂÁ_Ï_ÌÌ_È_ËÂÌÚ_2"/></defs><g class="cls-1"><g id="Layer_1" data-name="Layer 1"><path class="cls-2" d="M368.53,135a134.42,134.42,0,0,1-28,82.29l-.33.42c-.11.15-.23.31-.36.46h0q-2.82,3.6-5.86,7l-.2.22q-1.46,1.62-3,3.19c-.59.62-1.2,1.24-1.81,1.85a135.77,135.77,0,0,1-22.29,18l-1.49.95c-.43.28-.87.55-1.31.81l-.07.05a134.13,134.13,0,0,1-24,11.6c-1.63.59-3.27,1.16-4.93,1.69A135,135,0,0,1,233.53,270c-1.54,0-3.07,0-4.59-.08-1.83-.06-3.65-.15-5.46-.29-1.66-.12-3.32-.27-5-.46-1.82-.2-3.63-.43-5.43-.71-1-.14-1.92-.3-2.88-.47a133.68,133.68,0,0,1-23.39-6.29c-1.35-.49-2.68-1-4-1.55-.94-.38-1.88-.77-2.81-1.18q-2.9-1.25-5.72-2.63c-1.51-.74-3-1.5-4.48-2.3l-1.1-.59-1.16-.65q-3.48-2-6.84-4.11l-.06,0c-.71-.45-1.41-.91-2.11-1.39A135,135,0,1,1,368.53,135Z"/><path class="cls-3" d="M223.54,237.22s0,0,0,0a127.73,127.73,0,0,0-6.45,16.5c-1.38,4.27-2.78,9.23-4,14.71-1-.14-1.92-.3-2.88-.47a133.68,133.68,0,0,1-23.39-6.29c1-.74,2-1.52,2.89-2.34s2-1.82,3.06-2.67a138.68,138.68,0,0,1,18.95-13.62,80.11,80.11,0,0,1,10.78-5.44l0,0,1-.39Z"/><path class="cls-4" d="M254.88,190.12l-3.37,5h0l-.34.5-1.27,1.9-.34.5-1.62,2.43-.59.88-6.76,10.1,0,0h0a24,24,0,0,1-14.07,7.8c-2.47.38-6.63.56-11.64.86-4.56.29-9.84.67-15.15,1.41l-.36.05a38.41,38.41,0,0,1,6.5-5.66,26.94,26.94,0,0,1-6.56-.33c-2.57,2-16.15,4.41-23.31,10.53-6.5,5.56-12.61,17-15.34,22.5-.71-.45-1.41-.91-2.11-1.39,2.68-7.79,7.32-17.29,15.23-25.11a37.87,37.87,0,0,1,11.89-7.82h.06a54.73,54.73,0,0,1,8.26-2.73c8.94-2.26,18.39-2.74,26.5-3.67,1.49-.17,2.93-.35,4.31-.57h0c.78-.11,1.53-.24,2.27-.38h0a35.59,35.59,0,0,0,6.27-1.72,56.78,56.78,0,0,0,15.82-9.47c.35-.29.69-.59,1-.87A43.83,43.83,0,0,0,254.88,190.12Z"/><path class="cls-5" d="M238.23,217.05l-2,4.7-.29.69h0l0,0-1.58,3.78h0a21.51,21.51,0,0,0-3.16,2.36l-.05,0,0,0a1.35,1.35,0,0,1-.11.09l-.14.13-.37.33-.14.13-.69.64c-.1.11-.21.21-.32.32a2.08,2.08,0,0,0-.21.21l-.22.22,0,.05-.22.22c-.94,1-2,2.1-3,3.41l0,0-.49.62-.52.68c-.35.46-.69.94-1.05,1.45,0,0,0,0,0,0-1,1.42-2,3-3,4.74-.3.54-.61,1.09-.92,1.67,0,0,0,.07-.06.11l-.31.6a73.12,73.12,0,0,0-4.45,10.77c-1.61,4.91-3,9.18-4.58,12.85a133.68,133.68,0,0,1-23.39-6.29c-1.35-.49-2.68-1-4-1.55-.94-.38-1.88-.77-2.81-1.18q-2.9-1.25-5.72-2.63c-1.51-.74-3-1.5-4.48-2.3,6.67-3.46,13.57-7.11,20.31-10.72,9.61-5.13,18.89-10.17,26.7-14.45C229.45,222,238.23,217.05,238.23,217.05Z"/><path class="cls-6" d="M243.13,205.41l-2.54,6.06,0,0-.19.44-.18.44c-.64,1.53-1.31,3.1-2,4.68l-2,4.7-.29.69h0l0,0c-.5.23-8,3.87-13.42,15.15l0,0c-.44.87-.83,1.77-1.23,2.72-.2.47-.39.94-.61,1.39,0,.09-.09.17-.13.25-.3.54-.61,1.09-.92,1.67,0,0,0,.07-.06.11l-.31.6c-5.3,8.63-14.88,12.92-29.53,15-2.19.31-4.48.57-6.9.79-.94-.38-1.88-.77-2.81-1.18q-2.9-1.25-5.72-2.63c-1.51-.74-3-1.5-4.48-2.3l-1.1-.59-1.16-.65c.92-.57,1.83-1.16,2.74-1.75,11.23-7.24,20.24-20,28.22-28.55h0c.27-.31.54-.6.83-.89a38.41,38.41,0,0,1,6.5-5.66h0l.63-.39.11-.06c.36-.22.73-.44,1.11-.64a69.43,69.43,0,0,1,15.68-6.32h0c1-.28,2-.54,3-.77a91.85,91.85,0,0,1,10.8-1.89h0c3.5-.41,5.74-.46,5.94-.47Z"/><path class="cls-7" d="M250.16,194.91l-.16.82-.19,1-.17.91-.08.4-1.62,2.43-.59.88-6.76,10.1,0,0-.19.44-.18.44c-.64,1.53-1.31,3.1-2,4.68l0,0-2,4.68-.29.69h0l0,0-1.58,3.78h0a21.51,21.51,0,0,0-3.16,2.36l-.05,0,0,0a1.35,1.35,0,0,1-.11.09l-.14.13-.37.33-.14.13-.69.64c-.1.11-.21.21-.32.32a2.08,2.08,0,0,0-.21.21l-.22.22,0,.05-.22.22c-.94,1-2,2.1-3,3.41l0,0-.49.62-.52.68c-.35.46-.69.94-1.05,1.45,0,0,0,0,0,0a127.73,127.73,0,0,0-6.45,16.5c-1.38,4.27-2.78,9.23-4,14.71-1-.14-1.92-.3-2.88-.47a133.68,133.68,0,0,1-23.39-6.29c-1.35-.49-2.68-1-4-1.55-.94-.38-1.88-.77-2.81-1.18,4.69-.7,9-1.36,12.77-2.28a31.38,31.38,0,0,0,10.39-4.16,29.29,29.29,0,0,0,8.56-9.46,38.49,38.49,0,0,0,5.09-14.2c.52-4,0-7.28-1.68-8.54-.09-.07-.18-.12-.27-.18-5-3.29-15.15,1.41-15.15,1.41a9.05,9.05,0,0,1-1.19.94c.27-.31.54-.6.83-.89a38.41,38.41,0,0,1,6.5-5.66,26.94,26.94,0,0,1-6.56-.33l.07-.07a.91.91,0,0,0,.22-.22.65.65,0,0,0,.11-.22c.08-.25-.08-.51-.51-.78a8.16,8.16,0,0,0-3.31-1,36.48,36.48,0,0,0-10.16.94,54.73,54.73,0,0,1,8.26-2.73c8.94-2.26,18.39-2.74,26.5-3.67,1.49-.17,2.93-.35,4.31-.57h0c.78-.11,1.53-.24,2.27-.38h0a35.59,35.59,0,0,0,6.27-1.72,56.78,56.78,0,0,0,15.82-9.47C249.5,195.49,249.84,195.19,250.16,194.91Z"/><path class="cls-8" d="M221.38,259.36c.68,3.42,1.52,6.9,2.1,10.27-1.66-.12-3.32-.27-5-.46-.14-6-1.43-10.7-1.44-15.42a20.2,20.2,0,0,1,2.23-9.5l.24-.48s0-.08.06-.11c.35-.66.69-1.3,1-1.92a52.17,52.17,0,0,1,2.87-4.52c.35-.5.71-1,1.06-1.45l.52-.68.49-.62,0,0c1.11-1.37,2.14-2.51,3-3.41l.22-.22,0-.05.22-.22a2.08,2.08,0,0,1,.21-.21c.11-.11.22-.21.32-.32l.69-.64.14-.13.37-.33.14-.13a1.35,1.35,0,0,0,.11-.09l0,0,.05,0h0C230.86,229,218.46,244.66,221.38,259.36Z"/><path class="cls-9" d="M208.94,101c-12.34,9.83-17.32,28.34-17.32,28.34a.22.22,0,0,1,0-.08.66.66,0,0,0-.08-.13c-1.36-2.12-12.08-19.62-6.2-28.61a9.09,9.09,0,0,1,2.11-2.29c7.64-5.94,11.36-10.32,12.86-12.36a12.66,12.66,0,0,0,.86-1.23l4.78,10Z"/><path class="cls-10" d="M208.94,101c-12.34,9.83-17.32,28.34-17.32,28.34a.22.22,0,0,1,0-.08.66.66,0,0,0-.08-.13c-.42-1-1.84-5.05.18-13.78,2.33-10.12,8.43-19.63,3.65-19.25s-10,4.42-10,4.42a9.09,9.09,0,0,1,2.11-2.29c7.64-5.94,11.36-10.32,12.86-12.36l5.64,8.81Z"/><path class="cls-11" d="M330.84,228.57c-.59.62-1.2,1.24-1.81,1.85a135.77,135.77,0,0,1-22.29,18l-1.49.95c-.43.28-.87.55-1.31.81l-.07.05a134.13,134.13,0,0,1-24,11.6c-1.63.59-3.27,1.16-4.93,1.69A135,135,0,0,1,233.53,270c-1.54,0-3.07,0-4.59-.08a64.11,64.11,0,0,1-1.59-21.32c.86-7.33,2.23-11.09,7-22.35h0l1.6-3.8h0l.29-.69,2-4.7c.66-1.58,1.33-3.15,2-4.68l.18-.44c.06-.15.13-.29.19-.44.92-2.2,1.79-4.28,2.55-6.08l1.71-4.09,1-2.39q1.28-.37,2.52-.81h0l1.28-.46.26-.1c1.71-.64,3.37-1.37,5-2.16h0c11.19-5.44,20.48-14.11,27.76-22.91h0a138.92,138.92,0,0,0,13.09-19h0a120.88,120.88,0,0,0,6.12-11.95s.63,1.67,1.71,4.58l.38,1.05h0l.43,1.16c1.8,4.87,4.41,12,7.32,20.21.32.91.65,1.82,1,2.75h0c.68,1.91,1.37,3.88,2.07,5.87,0,.14.09.28.14.43.37,1,.73,2.09,1.1,3.15l.15.42,1.47,4.3c1.49,4.34,3,8.74,4.39,13.07,1.34,4.09,2.62,8.12,3.81,12,1.92,6.26,3.57,12,4.74,16.83C330.66,227.79,330.75,228.18,330.84,228.57Z"/><path class="cls-12" d="M245,201.25s26.12,1.6,44.09,0,24.55-33.83,24.55-33.83l-8.38-22.88Z"/><path class="cls-13" d="M330.84,228.57c-.59.62-1.2,1.24-1.81,1.85a135.77,135.77,0,0,1-22.29,18l-1.49.95c-.43.28-.87.55-1.31.81l-.07.05a134.13,134.13,0,0,1-24,11.6c2.73-5.78,5.68-11.68,8.34-16.86,4.78-9.35,8.64-16.41,8.64-16.41-28,6.22-58.59-11.53-58.59-11.53.66-1.58,1.33-3.15,2-4.68l.18-.44c.06-.15.13-.29.19-.44.92-2.2,1.79-4.28,2.55-6.08l1.71-4.09,1-2.39q1.28-.37,2.52-.81h0l1.28-.46.26-.1c1.71-.64,3.37-1.37,5-2.16h0c11.19-5.44,20.48-14.11,27.76-22.91h0a138.92,138.92,0,0,0,13.09-19h0a120.88,120.88,0,0,0,6.12-11.95s.63,1.67,1.71,4.58l.38,1.05h0l.43,1.16c1.8,4.87,4.41,12,7.32,20.21.32.91.65,1.82,1,2.75h0c.68,1.91,1.37,3.88,2.07,5.87,0,.14.09.28.14.43.37,1,.73,2.09,1.1,3.15l.15.42,1.47,4.3c1.49,4.34,3,8.74,4.39,13.07,1.34,4.09,2.62,8.12,3.81,12,1.92,6.26,3.57,12,4.74,16.83C330.66,227.79,330.75,228.18,330.84,228.57Z"/><path class="cls-14" d="M285.53,190.58c-11.72,7.26-34.28,8.49-40.5,10.67s-17.48,13-23.61,14.51-12.86-.5-12.86-.5-7.69,1.13-10.21,0-16.42-14.57-17.06-26c-.55-10.19,12.84-20.19,13.42-25.12s-4.17-24.15-3-35.87S209,92.62,232.48,85.59c32-9.57,63.24,1.51,70.53,30S298.93,182.27,285.53,190.58Z"/><path class="cls-15" d="M285.53,190.58c-11.72,7.26-34.28,8.49-40.5,10.67s-17.48,13-23.61,14.51-12.86-.5-12.86-.5-7.69,1.13-10.21,0c21.27-2,30.34-14.49,35-17.64s37.08.52,43.67-9.63,12.66-41.42-1.69-54.93-54.76-16.25-67.6-14.34c-9.74,1.45-16,9.54-16,9.54,1.13-11.7,17.34-35.64,40.8-42.67,32-9.57,63.24,1.51,70.53,30S298.93,182.27,285.53,190.58Z"/><path class="cls-16" d="M234.76,97.27s-9.69,14.81-28.32,10.45A26,26,0,0,1,199.65,87l.25-1.65s-12-6.61-8-26.79c0,0-11.38-20.61-8-41.18l.26.19c2,1.31,14.86,10.39,14.64,21.09,0,0,22.41,10.94,16.52,28.11C215.33,66.8,234.52,82.6,234.76,97.27Z"/><path class="cls-17" d="M234.76,97.27s-9.69,14.81-28.32,10.45c0,0,21.5-10.11,20.33-20.7s-10.27-14.88-14-14-13.08,14-13.08,14l.25-1.65S213.39,68.75,212.06,60,202,43,199.12,44.21,192.47,57,192,58.44c.52-1.82,5.29-19,3.9-26.12-1.31-6.85-10.09-13.54-11.72-14.72,2,1.31,14.86,10.39,14.64,21.09,0,0,22.41,10.94,16.52,28.11C215.33,66.8,234.52,82.6,234.76,97.27Z"/><path class="cls-18" d="M270.13,93.45s3.23-1.68,6.57-9.45S296.47,56.21,318,54.64c0,0-4.08,25.32-7.37,38.78s-16.77,21.12-21.46,21.63S268.79,115.12,270.13,93.45Z"/><path class="cls-19" d="M289.12,116.38c-16.62,7.17-54-3.21-57.92-16.19a60.59,60.59,0,0,1-2-11.18c-1.38-13.73.16-31.09,6.7-35.14,8.57-5.28,19.51-4,19.51-4,9.86,11.64,20.93,22.7,22.12,23.92-1.19-1-10.94-9.31-12.18-9.13s-10.38,10-2.83,30.59S289.12,116.38,289.12,116.38Z"/><path class="cls-20" d="M280.88,77.21S272.5,68.41,265,61.8s-16.08,29.35,5.18,45.83c0,0-6.58-27.5-1.34-32.42s10.62,4,10.62,4Z"/><path class="cls-21" d="M199.63,86.67s-1.47,3.36-18.35,6.76-17.54,15.77-15.65,26.15c0,0,2.26-12.65,12.55-17.84S197.86,94.25,199.63,86.67Z"/><path class="cls-22" d="M340.56,217.29l-.33.42c-.11.15-.23.31-.36.46.2-.63.34-1.12.44-1.44l.11-.44Z"/><path class="cls-23" d="M280.88,77.21s-6.92-7-11.73-7c-6.5,0-.5,30.31-.5,30.31S275.08,85.31,280.88,77.21Z"/><path class="cls-24" d="M340.31,216.73c0,.33-.05.65-.08,1-.11.15-.23.31-.36.46h0q-2.82,3.6-5.86,7l-.2.22q-1.46,1.62-3,3.19c-.59.62-1.2,1.24-1.81,1.85a135.77,135.77,0,0,1-22.29,18l-1.49.95c-.43.28-.87.55-1.31.81l-.07.05a134.13,134.13,0,0,1-24,11.6c-1.63.59-3.27,1.16-4.93,1.69.77-1.73,1.65-3.49,2.63-5.23,2.53-4.47,6.35-8.86,10.64-13.32,5.14-5.37,10.95-10.84,15.95-16.72a0,0,0,0,0,0,0c5.38-6.28,9.82-13,11.53-20.56a80.42,80.42,0,0,0,2.05-16.2c.06-2.16,0-4.16-.1-6a62.88,62.88,0,0,0-.85-7.36h0c0-.22-.08-.42-.12-.62s-.08-.38-.11-.56a33.7,33.7,0,0,0-.87-3.51l.84-7.62h0l1.09-10.06a0,0,0,0,0,0,0c.26.33,2.2,2.82,4.83,6.74,2,2.91,4.3,6.62,6.63,10.81,4.26,7.67,8.45,17,10.09,26A71.48,71.48,0,0,1,340.31,216.73Z"/><path class="cls-25" d="M322,198.59c-.94,22.27-11.31,41.93-16.76,50.8-.43.28-.87.55-1.31.81l-.07.05c.9-3,1.6-7.64.74-14.35a65.57,65.57,0,0,1-.47-7.64,131.55,131.55,0,0,1,2.18-22.9l.11-.19h0l0-.06,0,0c.29-.47.56-.95.84-1.42h0s.05-.1.08-.14c.28-.49.55-1,.81-1.46l.06-.1c.46-.85.89-1.69,1.31-2.53a3.59,3.59,0,0,0,.17-.34h0c.06-.12.11-.24.17-.35l0,0a80.55,80.55,0,0,0,6.18-17.45c.24-1.09.45-2.12.62-3.06.09-.48.16-.93.23-1.37a47.71,47.71,0,0,0,.6-5.67h0v-.19h0q1,2.52,1.74,5A69.27,69.27,0,0,1,322,198.59Z"/><path class="cls-26" d="M317.6,170.93v.14c-.24,2.09-.53,4.27-1,6.46A84.39,84.39,0,0,1,310,198.58l-.24.49c-.46.94-1,1.9-1.47,2.85-.32.56-.64,1.14-1,1.72s-.52.91-.8,1.37l0,0a2.86,2.86,0,0,0-.2.32,47.8,47.8,0,0,1-17.08,16.88l-.08,0h0c.52-1.11,18.7-39.6,16.17-63.42-.68-6.32-1.46-12.65-2.22-18.55l-.18-1.32c-1.81-13.95-3.58-25.27-4-28l-.1-.62,3.27-2.73s7.71,32.05,13.61,41.64a17.29,17.29,0,0,1,1.95,6.53A64.52,64.52,0,0,1,317.6,170.93Z"/><path class="cls-27" d="M234.56,166.83a34.52,34.52,0,0,0,18.11.59c10.2-2.33,12.2-13.68,12.2-13.68S251.47,163.65,234.56,166.83Z"/><path class="cls-27" d="M228.7,147.53a22.06,22.06,0,0,1,9.06-12.59c7.42-4.91,24.36.19,27.28,11C265,145.92,240.92,143.62,228.7,147.53Z"/><path class="cls-28" d="M230.77,165c2.2,2.45,10.57,3.61,19.83.87s12.55-7.83,13.69-10.05,1-8.92.75-9.87-6.13-7.33-14.92-8.12c-7.38-.66-18.41,2.17-21.42,9.73C227,151.72,228.88,162.86,230.77,165Z"/><circle class="cls-29" cx="250.05" cy="150.81" r="13.86" transform="translate(-33.41 220.98) rotate(-45)"/><circle class="cls-30" cx="250.52" cy="150.81" r="9.87" transform="translate(-38.82 108.54) rotate(-22.74)"/><path class="cls-31" d="M228.26,149.26s1.49-7.59,15-9.76A25.66,25.66,0,0,1,265,145.92a21.62,21.62,0,0,0,9.25-6.7s-6.4,3.25-10.48,2.08c0,0-9.34-6.61-21.14-4.35A18.23,18.23,0,0,0,228.26,149.26Z"/><path class="cls-32" d="M229.17,161s.15,6.07,1.22,6.38a60.35,60.35,0,0,0,7.16.2S230.9,167,229.17,161Z"/><path class="cls-33" d="M238.42,155a1.59,1.59,0,1,1-1.58-1.59A1.59,1.59,0,0,1,238.42,155Z"/><path class="cls-34" d="M230.82,116.91c-2.47.19-3.52,4.8-.44,6.31s15.29-.1,18.37,0,7.27,1.19,7.93.64S243.74,115.9,230.82,116.91Z"/><path class="cls-35" d="M233.35,197.64a67.62,67.62,0,0,1-6.29,9.33h0c-.22.27-.44.54-.67.8a24.27,24.27,0,0,1-5.37,4.84c-2.51,1.53-6.78,2.51-11,3-1.43.16-2.85.27-4.19.33h0a26.94,26.94,0,0,1-6.56-.33,2.92,2.92,0,0,1-.91-.35h0c.11,0,.52.05,1.2.08a45.43,45.43,0,0,0,8.12-.47,47.47,47.47,0,0,0,8.16-2,25.43,25.43,0,0,0,7.52-4.37h0c.48-.39,1-.78,1.4-1.19h0A56.17,56.17,0,0,0,233.35,197.64Z"/><path class="cls-35" d="M202.81,191.49s-1-3.75,1-5.54,7.51-1.45,7.51-1.45S204.6,184.84,202.81,191.49Z"/><path class="cls-36" d="M202.81,191.49s8.27,1,8.53-7C211.34,184.5,203.11,184.58,202.81,191.49Z"/><path class="cls-37" d="M181.28,186.8s16-2.17,25.67-6.23S222.86,166,222.58,165s-26.35-.29-26.35-.29S183.33,178.21,181.28,186.8Z"/><path class="cls-38" d="M289.12,116.38c-16.62,7.17-54-3.21-57.92-16.19a60.59,60.59,0,0,1-2-11.18c3.43,27.8,29.74,23,29.74,23s-10.33-8.31-9.19-26.72a206,206,0,0,1,5.66-35.46c9.86,11.64,20.93,22.7,22.12,23.92-1.19-1-11.9-11.61-13.12-11.34-3.4.76-11,12.46-3.46,33.05S289.12,116.38,289.12,116.38Z"/><path class="cls-39" d="M313.06,79.57a181.54,181.54,0,0,1-4.19,18.69c-2.13,6.34-14.51,18.56-25.53,17-8.89-1.21-9.84-6.4-9.84-6.4s.39-1.75,1.21-4.52a1.38,1.38,0,0,0,.06-.16c2.13-7.13,7.06-20.77,15.23-28.94,11.46-11.46,23.24-13.85,24.91-13.23C315.81,62.36,314.65,70.8,313.06,79.57Z"/><path class="cls-40" d="M313.06,79.57c-.82-2.1-3.15-7.32-6.38-7.76-4.06-.58-23.86,11.14-31.91,32.41,2.13-7.13,7.06-20.77,15.23-28.94,11.46-11.46,23.24-13.85,24.91-13.23C315.81,62.36,314.65,70.8,313.06,79.57Z"/><path class="cls-41" d="M340.56,217.29l-.33.42c-.11.15-.23.31-.36.46h0q-2.82,3.6-5.86,7c3-11.38,3.5-22.43,0-22.38-2.69.05-5.76,3.83-8.23,7.78a80.44,80.44,0,0,0-4.71,8.84,101.13,101.13,0,0,1-14.37,29l-1.49.95c-.43.28-.87.55-1.31.81a232,232,0,0,0,11.23-29.76c5.42-18.34,5.42-29.36,2.55-28.94-2.51.34-9.38,10.76-11,13.29l0,.06-.1.16,0,0,0,0,0,0,0,.06h0l-.07.11s0,0,0,0l0,0a42.92,42.92,0,0,1-16.92,16.8h0l-.1.06h0l-.08,0c12.14-9.28,22.74-28.07,25.51-44.52l.09-.53a43.75,43.75,0,0,0,.47-10.67h0c-1.2-13.23-7.08-21.1-10.2-24.41h0a17.31,17.31,0,0,0-1.94-1.83l-.18-1.32L299,111.67v-.07l-.2-1.24.11-.09h0l1.79-1.49,1-.83h0l.35-.29v0a0,0,0,0,1,0,0v0s0,0,0,0v0s0,0,0,0v0l0,.09a.53.53,0,0,0,0,.12s0,0,0,.06,0,0,0,.06,0,0,0,0a.6.6,0,0,0,0,.12l.06.22c0,.06,0,.12,0,.18s.08.31.12.49.06.24.1.37.06.27.1.41.13.53.21.82c0,.1,0,.2.07.3s0,0,0,0,0,.17.07.26h0c.05.21.11.43.17.66l.09.34.09.37.11.41c0,.14.07.27.11.41s.07.28.11.42c.19.75.4,1.55.63,2.39l.19.73c.14.5.27,1,.41,1.52.07.26.15.52.22.79s.22.79.33,1.2.15.54.23.82l.18.65c.06.2.11.4.17.6.16.56.32,1.13.49,1.7.07.26.15.52.22.78s.15.49.22.74.11.37.16.56l.42,1.41c.05.15.09.29.13.44.12.4.24.79.37,1.19a.65.65,0,0,0,0,.13l.27.89c.1.33.21.67.32,1,.05.19.11.38.17.56l.18.56h0v.06l0,.09,0,.09c0,.09.05.17.08.25s.1.3.14.44c.1.29.19.58.29.87a1.87,1.87,0,0,0,.07.22c.08.25.16.5.25.75l.25.75c.05.14.09.28.14.42l.18.52.27.77c0,.14.09.27.14.42l.42,1.16v0c.08.22.16.45.25.68l.09.26.24.63c.15.39.29.77.44,1.14s.29.74.44,1.09.19.48.29.71l.15.35c.09.22.19.45.29.67l.29.65.21.47.33.67c.11.22.21.44.32.65s.09.18.14.27l.14.27c.07.14.15.27.22.4s.14.24.2.36h0l.13.22.14.23c.11.18.22.37.32.57l.15.32a2.55,2.55,0,0,1,.13.29h0l.11.26a2.31,2.31,0,0,1,.1.28l.06.14a1.21,1.21,0,0,0,0,.14c0,.1.06.19.1.29s.05.16.07.24a0,0,0,0,1,0,0l.06.18c0,.12.07.24.1.36s0,0,0,0,.07.29.11.43l.12.51.09.42c.14.64.25,1.32.35,2,.26.33,2.2,2.82,4.83,6.74,2,2.91,4.3,6.62,6.63,10.81,4.26,7.67,8.45,17,10.09,26a71.48,71.48,0,0,1,1.14,17.34l.11-.44Z"/><path class="cls-42" d="M309,132.69s4.26,14.08,18.42,20.5,14.16,18.13-4,21.72-34.36,21.71-34.36,21.71,7.69-17.11,19.16-25.7c8.36-6.26,18.88-8.95,17.56-13.1C324.75,154.4,312.52,155.25,309,132.69Z"/><path class="cls-43" d="M255.71,174.44c-2.33-2.26,11.37-14.78,16.07-13.6s2.35,11.41-3.2,13.6S257.44,176.12,255.71,174.44Z"/><path class="cls-44" d="M199.27,224a70.83,70.83,0,0,1-9.16,19.36,37.75,37.75,0,0,1-6.77,7.5,40.34,40.34,0,0,1-9.06,5.52c-1.51-.74-3-1.5-4.48-2.3l-1.1-.59c2.66-1.74,5.56-3.73,8.56-5.93C189,238.87,199.27,224,199.27,224Z"/><path class="cls-44" d="M197.62,47.71a116.1,116.1,0,0,0-2.5,16.42c-.77,9.39,4.14,19.45,4.14,19.45s-8.61-8.21-7.13-18.9S197.62,47.71,197.62,47.71Z"/><path class="cls-44" d="M184.17,17.6S181.83,40.93,192,58.44C192,58.44,189.23,30.42,184.17,17.6Z"/><path class="cls-44" d="M209.37,78s-6.23,6.51-7.93,11.25,2.23,12,2.23,12A53,53,0,0,1,209.37,78Z"/><path class="cls-44" d="M243.29,52s-6.11,1-9.31,5.63-8.75,31.52,1.89,45.5c0,0-5.85-15.55-1.89-33S243.29,52,243.29,52Z"/><path class="cls-44" d="M191.68,98.08s-5.38,1-6.38,7.85S188.49,121,188.49,121A33.13,33.13,0,0,1,191.68,98.08Z"/><path class="cls-44" d="M193.75,129.29a78.3,78.3,0,0,0,0,11c.4,7,3,22.1,2.48,24.38s-12.77,15-14,22.12,12.58,23,12.58,23-9-16.38-7.52-24.12,13-16.73,13.43-21.39S193.35,146.6,193.75,129.29Z"/><path class="cls-31" d="M260.38,142.51a17.54,17.54,0,0,0,9.67-7.22,46.92,46.92,0,0,1-13.35,5.5Z"/><path class="cls-44" d="M336.45,209.18a113,113,0,0,1-2.64,16.2q-1.46,1.62-3,3.19c-.59.62-1.2,1.24-1.81,1.85q.83-1.54,1.53-3A64.52,64.52,0,0,0,336.45,209.18Z"/><path class="cls-33" d="M193.31,58.64s-1.9,7.74-1.18,11C192.13,69.66,198,67,193.31,58.64Z"/><path class="cls-33" d="M201.35,89.59s1.23-4.39,4.12-5.92C205.47,83.67,206.57,89.7,201.35,89.59Z"/><path class="cls-33" d="M185.15,18.1s3.88,7.4,3.71,13.44a22.82,22.82,0,0,1-2.28,9.78S182.36,28.91,185.15,18.1Z"/><path class="cls-45" d="M242.59,141.58l.7,7.13a37,37,0,0,0,17,3.14l1.26-7.31S254.8,137.6,242.59,141.58Z"/><path class="cls-46" d="M469.28,329.29a134.43,134.43,0,0,1-28,82.29c-.1.14-.21.28-.32.41l-.36.47h0q-2.82,3.6-5.87,7l-.19.21q-1.46,1.62-3,3.2c-.6.62-1.2,1.23-1.81,1.84a135,135,0,0,1-22.3,18l-1.48.95-1.31.81-.07,0a134.46,134.46,0,0,1-24,11.6c-1.63.6-3.27,1.16-4.93,1.7a135.07,135.07,0,0,1-41.38,6.46c-1.54,0-3.07,0-4.59-.08-1.83-.06-3.65-.16-5.46-.29s-3.32-.28-5-.46q-2.75-.3-5.44-.71c-1-.15-1.92-.3-2.87-.47A133.21,133.21,0,0,1,287.57,456c-1.35-.5-2.69-1-4-1.56-.95-.38-1.88-.77-2.81-1.17-1.94-.83-3.84-1.71-5.73-2.64-1.5-.73-3-1.5-4.47-2.29-.37-.19-.74-.39-1.1-.6s-.78-.42-1.16-.64c-2.32-1.3-4.61-2.68-6.84-4.11l-.06,0c-.71-.46-1.42-.92-2.12-1.39a135,135,0,1,1,210-112.26Z"/><path class="cls-47" d="M324.29,431.5s0,0,0,0a129.63,129.63,0,0,0-6.44,16.5c-1.38,4.27-2.78,9.23-4,14.71-1-.15-1.92-.3-2.87-.47A133.21,133.21,0,0,1,287.57,456q1.5-1.12,2.88-2.34c1.05-.92,2.06-1.82,3.07-2.67a137.21,137.21,0,0,1,19-13.62,77.69,77.69,0,0,1,10.78-5.44v0c.58-.24.94-.36,1-.39Z"/><path class="cls-48" d="M355.62,384.4l-3.36,5h0l-.34.51-1.27,1.9-.33.5-1.63,2.43-.59.88-6.75,10.1h0a24,24,0,0,1-14.07,7.8c-2.46.37-6.63.55-11.64.86-4.55.29-9.83.67-15.15,1.41l-.36,0a37.94,37.94,0,0,1,6.51-5.66,27,27,0,0,1-6.57-.33c-2.57,2-16.14,4.41-23.31,10.53-6.49,5.56-12.61,17-15.33,22.5-.71-.46-1.42-.92-2.12-1.39,2.69-7.79,7.32-17.29,15.24-25.11a37.76,37.76,0,0,1,11.89-7.82l.05,0a56.27,56.27,0,0,1,8.26-2.73c8.94-2.25,18.4-2.74,26.51-3.66,1.48-.17,2.92-.36,4.31-.57h0c.78-.12,1.53-.25,2.27-.39h0a34.32,34.32,0,0,0,6.27-1.71,57,57,0,0,0,15.83-9.47l1-.87A40.5,40.5,0,0,0,355.62,384.4Z"/><path class="cls-49" d="M339,411.34l-2,4.7c-.1.23-.2.46-.29.69h0v0l-1.59,3.78h0a23.54,23.54,0,0,0-3.17,2.37l-.05,0,0,0-.11.1-.15.13-.36.32-.14.13c-.2.19-.44.4-.69.65l-.32.31-.21.21c-.08.07-.15.15-.22.22l-.06.06-.21.22c-.94,1-1.95,2.1-3,3.41l0,0-.49.62-.51.68q-.52.69-1,1.44s0,0,0,0c-1,1.42-2,3-3,4.74-.31.53-.61,1.09-.92,1.66l-.06.12-.32.6a75.36,75.36,0,0,0-4.45,10.77c-1.6,4.91-3,9.17-4.57,12.85A133.21,133.21,0,0,1,287.57,456c-1.35-.5-2.69-1-4-1.56-.95-.38-1.88-.77-2.81-1.17-1.94-.83-3.84-1.71-5.73-2.64-1.5-.73-3-1.5-4.47-2.29,6.66-3.46,13.56-7.11,20.31-10.72,9.6-5.13,18.89-10.18,26.69-14.45C330.2,416.24,339,411.34,339,411.34Z"/><path class="cls-50" d="M343.88,399.7l-2.54,6.06h0l-.19.45c-.06.15-.13.29-.19.44-.64,1.52-1.3,3.1-2,4.68l-2,4.7c-.1.23-.2.46-.29.69h0v0c-.51.23-8,3.87-13.43,15.15v0c-.44.86-.83,1.76-1.23,2.72-.2.47-.4.93-.62,1.39l-.12.25c-.31.53-.61,1.09-.92,1.66l-.06.12-.32.6c-5.29,8.63-14.88,12.92-29.53,15-2.18.3-4.48.57-6.89.78-.95-.38-1.88-.77-2.81-1.17-1.94-.83-3.84-1.71-5.73-2.64-1.5-.73-3-1.5-4.47-2.29-.37-.19-.74-.39-1.1-.6s-.78-.42-1.16-.64c.91-.57,1.83-1.16,2.74-1.75,11.22-7.24,20.23-20,28.22-28.56h0c.27-.3.54-.59.83-.88a37.94,37.94,0,0,1,6.51-5.66h0l.63-.39.1-.07,1.11-.64a69.26,69.26,0,0,1,15.69-6.31h0c1-.28,2-.54,3-.77a94.66,94.66,0,0,1,10.8-1.9h0c3.49-.4,5.74-.45,5.93-.46Z"/><path class="cls-51" d="M350.9,389.2l-.15.82-.2,1-.17.91-.07.4-1.63,2.43-.59.88-6.75,10.1h0l-.19.45c-.06.15-.13.29-.19.44-.64,1.52-1.3,3.1-2,4.68v0L337,416c-.1.23-.2.46-.29.69h0v0l-1.59,3.78h0a23.54,23.54,0,0,0-3.17,2.37l-.05,0,0,0-.11.1-.15.13-.36.32-.14.13c-.2.19-.44.4-.69.65l-.32.31-.21.21c-.08.07-.15.15-.22.22l-.06.06-.21.22c-.94,1-1.95,2.1-3,3.41l0,0-.49.62-.51.68q-.52.69-1,1.44s0,0,0,0a129.63,129.63,0,0,0-6.44,16.5c-1.38,4.27-2.78,9.23-4,14.71-1-.15-1.92-.3-2.87-.47A133.21,133.21,0,0,1,287.57,456c-1.35-.5-2.69-1-4-1.56-.95-.38-1.88-.77-2.81-1.17,4.68-.7,9-1.36,12.77-2.28a31.47,31.47,0,0,0,10.39-4.16,29.41,29.41,0,0,0,8.56-9.46,38.64,38.64,0,0,0,5.08-14.2c.52-4,0-7.28-1.68-8.54a1.27,1.27,0,0,0-.27-.18c-5-3.3-15.15,1.41-15.15,1.41a8.76,8.76,0,0,1-1.19.93c.27-.3.54-.59.83-.88a37.94,37.94,0,0,1,6.51-5.66,27,27,0,0,1-6.57-.33l.08-.07a1.19,1.19,0,0,0,.22-.23.71.71,0,0,0,.11-.21c.08-.26-.08-.52-.51-.78a8,8,0,0,0-3.31-.95,37.16,37.16,0,0,0-10.17.93,56.27,56.27,0,0,1,8.26-2.73c8.94-2.25,18.4-2.74,26.51-3.66,1.48-.17,2.92-.36,4.31-.57h0c.78-.12,1.53-.25,2.27-.39h0a34.32,34.32,0,0,0,6.27-1.71,57,57,0,0,0,15.83-9.47Z"/><path class="cls-52" d="M322.13,453.65c.67,3.42,1.52,6.9,2.1,10.27-1.66-.12-3.32-.28-5-.46-.14-6-1.43-10.71-1.44-15.42a20.21,20.21,0,0,1,2.23-9.51l.24-.47.06-.12c.34-.66.69-1.29,1-1.91.94-1.66,1.92-3.17,2.87-4.52.36-.51.71-1,1.07-1.45l.51-.68.49-.62,0,0c1.11-1.38,2.14-2.51,3-3.41l.21-.22.06-.06.22-.22.21-.21.32-.31c.25-.25.49-.46.69-.65l.14-.13.36-.32.15-.13.11-.1,0,0,.05,0,0,0C331.6,423.32,319.21,439,322.13,453.65Z"/><path class="cls-53" d="M309.68,295.24c-12.33,9.82-17.32,28.34-17.32,28.34a.22.22,0,0,1,0-.08l-.08-.14c-1.35-2.11-12.07-19.61-6.19-28.6a8.59,8.59,0,0,1,2.11-2.29c7.63-5.94,11.36-10.33,12.85-12.36a14.47,14.47,0,0,0,.86-1.23l4.78,10Z"/><path class="cls-54" d="M309.68,295.24c-12.33,9.82-17.32,28.34-17.32,28.34a.22.22,0,0,1,0-.08l-.08-.14c-.41-.95-1.83-5,.18-13.77,2.34-10.13,8.43-19.63,3.65-19.25s-10,4.42-10,4.42a8.59,8.59,0,0,1,2.11-2.29c7.63-5.94,11.36-10.33,12.85-12.36l5.64,8.81Z"/><path class="cls-55" d="M431.59,422.86c-.6.62-1.2,1.23-1.81,1.84a135,135,0,0,1-22.3,18l-1.48.95-1.31.81-.07,0a134.46,134.46,0,0,1-24,11.6c-1.63.6-3.27,1.16-4.93,1.7a135.07,135.07,0,0,1-41.38,6.46c-1.54,0-3.07,0-4.59-.08a64.15,64.15,0,0,1-1.6-21.32c.87-7.33,2.23-11.1,7-22.36h0l1.6-3.8h0c.09-.23.19-.46.29-.69l2-4.7c.67-1.58,1.33-3.16,2-4.68.06-.15.13-.29.19-.44l.18-.44c.93-2.21,1.8-4.28,2.55-6.08l1.72-4.09,1-2.4c.85-.24,1.69-.51,2.52-.8h0l1.28-.46.26-.1c1.71-.65,3.37-1.37,5-2.16h0c11.19-5.45,20.48-14.11,27.76-22.91h0a139.38,139.38,0,0,0,13.08-19h0a118.19,118.19,0,0,0,6.12-11.95s.63,1.68,1.71,4.59l.39,1.05h0l.43,1.15c1.8,4.88,4.41,12,7.32,20.21l1,2.76h0l2.06,5.88.15.42,1.09,3.15.15.43c.49,1.42,1,2.86,1.48,4.3,1.48,4.34,3,8.74,4.38,13.06,1.34,4.1,2.63,8.13,3.81,12,1.93,6.26,3.58,12,4.74,16.83C431.4,422.08,431.5,422.47,431.59,422.86Z"/><path class="cls-12" d="M345.78,395.53s26.12,1.61,44.08,0,24.56-33.82,24.56-33.82L406,338.83Z"/><path class="cls-56" d="M431.59,422.86c-.6.62-1.2,1.23-1.81,1.84a135,135,0,0,1-22.3,18l-1.48.95-1.31.81-.07,0a134.46,134.46,0,0,1-24,11.6c2.73-5.78,5.67-11.67,8.33-16.86,4.79-9.34,8.65-16.4,8.65-16.4-28,6.22-58.6-11.53-58.6-11.53.67-1.58,1.33-3.16,2-4.68.06-.15.13-.29.19-.44l.18-.44c.93-2.21,1.8-4.28,2.55-6.08l1.72-4.09,1-2.4c.85-.24,1.69-.51,2.52-.8h0l1.28-.46.26-.1c1.71-.65,3.37-1.37,5-2.16h0c11.19-5.45,20.48-14.11,27.76-22.91h0a139.38,139.38,0,0,0,13.08-19h0a118.19,118.19,0,0,0,6.12-11.95s.63,1.68,1.71,4.59l.39,1.05h0l.43,1.15c1.8,4.88,4.41,12,7.32,20.21l1,2.76h0l2.06,5.88.15.42,1.09,3.15.15.43c.49,1.42,1,2.86,1.48,4.3,1.48,4.34,3,8.74,4.38,13.06,1.34,4.1,2.63,8.13,3.81,12,1.93,6.26,3.58,12,4.74,16.83C431.4,422.08,431.5,422.47,431.59,422.86Z"/><path class="cls-57" d="M386.28,384.87c-11.72,7.25-34.28,8.49-40.5,10.66s-17.48,13-23.62,14.51-12.85-.5-12.85-.5-7.7,1.14-10.21,0S282.68,395,282,383.53c-.56-10.18,12.84-20.19,13.41-25.11s-4.16-24.16-3-35.88,17.34-35.63,40.8-42.67c32-9.57,63.24,1.52,70.54,30S399.67,376.56,386.28,384.87Z"/><path class="cls-58" d="M386.28,384.87c-11.72,7.25-34.28,8.49-40.5,10.66s-17.48,13-23.62,14.51-12.85-.5-12.85-.5-7.7,1.14-10.21,0c21.27-2,30.34-14.49,35-17.63s37.07.51,43.67-9.63,12.66-41.42-1.69-54.93S321.32,311.1,308.48,313c-9.74,1.44-16.06,9.53-16.06,9.53,1.14-11.69,17.34-35.63,40.8-42.67,32-9.57,63.24,1.52,70.54,30S399.67,376.56,386.28,384.87Z"/><path class="cls-59" d="M335.51,291.55s-9.7,14.82-28.33,10.46a26,26,0,0,1-6.78-20.69l.25-1.65s-12-6.61-7.95-26.8c0,0-11.38-20.61-8-41.17l.25.18c2,1.32,14.87,10.4,14.65,21.1,0,0,22.4,10.94,16.52,28.11C316.08,261.09,335.27,276.88,335.51,291.55Z"/><path class="cls-60" d="M335.51,291.55s-9.7,14.82-28.33,10.46c0,0,21.5-10.11,20.34-20.7s-10.28-14.89-14-14-13.08,14-13.08,14l.25-1.65S314.13,263,312.8,254.29s-10.08-17-12.93-15.79c-2.7,1.18-6.65,12.78-7.13,14.22.52-1.81,5.29-18.95,3.9-26.11-1.32-6.86-10.1-13.54-11.73-14.73,2,1.32,14.87,10.4,14.65,21.1,0,0,22.4,10.94,16.52,28.11C316.08,261.09,335.27,276.88,335.51,291.55Z"/><path class="cls-61" d="M370.87,287.74s3.24-1.68,6.57-9.45,19.78-27.79,41.26-29.37c0,0-4.09,25.33-7.37,38.79s-16.77,21.12-21.46,21.63S369.53,309.4,370.87,287.74Z"/><path class="cls-62" d="M389.87,310.67c-16.62,7.17-54-3.21-57.92-16.19a60.69,60.69,0,0,1-2-11.18c-1.37-13.73.16-31.09,6.7-35.14,8.57-5.28,19.51-4,19.51-4,9.87,11.64,20.93,22.71,22.13,23.92-1.2-1-10.94-9.31-12.18-9.13s-10.38,10-2.83,30.6S389.87,310.67,389.87,310.67Z"/><path class="cls-63" d="M381.62,271.5s-8.37-8.8-15.93-15.41-16.07,29.35,5.18,45.83c0,0-6.57-27.5-1.34-32.43s10.63,4.05,10.63,4.05Z"/><path class="cls-64" d="M300.38,281s-1.47,3.37-18.35,6.77-17.55,15.76-15.66,26.15c0,0,2.27-12.65,12.56-17.85S298.6,288.54,300.38,281Z"/><path class="cls-65" d="M441.3,411.58c-.1.14-.21.28-.32.41l-.36.47c.19-.63.34-1.12.43-1.44s.12-.44.12-.44S441.21,410.93,441.3,411.58Z"/><path class="cls-23" d="M381.62,271.5s-6.92-7.06-11.73-7.06c-6.5,0-.5,30.32-.5,30.32S375.83,279.6,381.62,271.5Z"/><path class="cls-66" d="M441.05,411c0,.32,0,.65-.07,1l-.36.47h0q-2.82,3.6-5.87,7l-.19.21q-1.46,1.62-3,3.2c-.6.62-1.2,1.23-1.81,1.84a135,135,0,0,1-22.3,18l-1.48.95-1.31.81-.07,0a134.46,134.46,0,0,1-24,11.6c-1.63.6-3.27,1.16-4.93,1.7a58.15,58.15,0,0,1,2.63-5.23c2.52-4.48,6.35-8.86,10.63-13.33,5.15-5.36,10.95-10.84,16-16.71h0c5.37-6.28,9.81-13,11.53-20.56a81.24,81.24,0,0,0,2.05-16.2c0-2.16,0-4.16-.1-6a63.35,63.35,0,0,0-.85-7.37h0c0-.22-.08-.42-.12-.62s-.07-.37-.11-.55a31.71,31.71,0,0,0-.86-3.51l.83-7.62h0l1.1-10.06a0,0,0,0,0,0,0c.26.33,2.19,2.82,4.83,6.74,1.95,2.91,4.3,6.61,6.62,10.8,4.26,7.68,8.46,17,10.1,26.05A71.47,71.47,0,0,1,441.05,411Z"/><path class="cls-67" d="M422.75,392.87c-.94,22.28-11.31,41.94-16.75,50.81l-1.31.81-.07,0c.9-3,1.6-7.63.74-14.35a61.3,61.3,0,0,1-.47-7.63,131.41,131.41,0,0,1,2.18-22.9c0-.07.08-.13.11-.2h0l0-.06,0,0c.29-.48.57-1,.84-1.42h0a.64.64,0,0,0,.08-.14l.82-1.46,0-.1q.69-1.28,1.32-2.52l.17-.34h0l.18-.36v0a80.19,80.19,0,0,0,6.18-17.45c.25-1.09.46-2.12.63-3.07.08-.47.16-.93.23-1.36a44.59,44.59,0,0,0,.59-5.67h0a1.53,1.53,0,0,0,0-.18h0c.66,1.69,1.23,3.37,1.73,5.05A69.06,69.06,0,0,1,422.75,392.87Z"/><path class="cls-68" d="M418.35,365.22v.14c-.24,2.09-.54,4.26-1,6.45a84.1,84.1,0,0,1-6.63,21.05c-.08.18-.16.34-.24.5-.46.94-1,1.89-1.48,2.85-.32.56-.64,1.14-1,1.71s-.52.92-.8,1.38l0,0a2.86,2.86,0,0,0-.2.32A48,48,0,0,1,390,416.52l-.08,0h0c.52-1.12,18.69-39.6,16.16-63.42-.68-6.32-1.45-12.66-2.21-18.56l-.18-1.31c-1.81-13.95-3.59-25.28-4-28l-.1-.61,3.27-2.73s7.72,32.05,13.62,41.63a17.78,17.78,0,0,1,1.95,6.54A64.52,64.52,0,0,1,418.35,365.22Z"/><path class="cls-27" d="M335.31,361.11a34.43,34.43,0,0,0,18.11.6c10.2-2.34,12.2-13.68,12.2-13.68S352.22,357.94,335.31,361.11Z"/><path class="cls-27" d="M329.45,341.81a22.07,22.07,0,0,1,9.05-12.58c7.43-4.91,24.36.18,27.29,11C365.79,340.21,341.66,337.91,329.45,341.81Z"/><path class="cls-69" d="M331.52,359.25c2.19,2.45,10.57,3.62,19.82.88S363.9,352.3,365,350.08s1-8.93.76-9.87-6.14-7.33-14.92-8.12c-7.38-.66-18.41,2.17-21.42,9.72C327.77,346,329.63,357.15,331.52,359.25Z"/><circle class="cls-70" cx="350.79" cy="345.1" r="13.86" transform="translate(-141.28 349.12) rotate(-45)"/><circle class="cls-30" cx="351.26" cy="345.1" r="9.87" transform="translate(-106.08 162.58) rotate(-22.74)"/><path class="cls-31" d="M329,343.55s1.5-7.59,15-9.76a25.69,25.69,0,0,1,21.76,6.42,21.62,21.62,0,0,0,9.25-6.7s-6.41,3.25-10.48,2.07c0,0-9.35-6.6-21.15-4.34A18.25,18.25,0,0,0,329,343.55Z"/><path class="cls-32" d="M329.91,355.32s.16,6.08,1.23,6.39a60.35,60.35,0,0,0,7.16.2S331.65,361.28,329.91,355.32Z"/><path class="cls-33" d="M339.17,349.32a1.59,1.59,0,1,1-1.59-1.59A1.59,1.59,0,0,1,339.17,349.32Z"/><path class="cls-71" d="M331.57,311.19c-2.47.19-3.53,4.81-.45,6.31s15.3-.1,18.38,0,7.26,1.2,7.92.65S344.49,310.19,331.57,311.19Z"/><path class="cls-35" d="M334.1,391.92a65.87,65.87,0,0,1-6.3,9.33h0l-.68.81a24.23,24.23,0,0,1-5.36,4.84c-2.51,1.53-6.79,2.51-11,3-1.43.17-2.85.28-4.19.34h0a27,27,0,0,1-6.57-.33,2.85,2.85,0,0,1-.91-.36h0c.1,0,.52,0,1.2.07a43.44,43.44,0,0,0,8.11-.47,46.35,46.35,0,0,0,8.16-1.95,25.23,25.23,0,0,0,7.53-4.36h0c.48-.39.94-.78,1.4-1.19h0A56.54,56.54,0,0,0,334.1,391.92Z"/><path class="cls-35" d="M303.56,385.78s-1-3.75,1-5.54,7.51-1.45,7.51-1.45S305.35,379.13,303.56,385.78Z"/><path class="cls-72" d="M303.56,385.78s8.27,1,8.53-7C312.09,378.79,303.86,378.87,303.56,385.78Z"/><path class="cls-73" d="M282,381.09s16-2.17,25.67-6.23,15.92-14.59,15.63-15.61S297,359,297,359,284.08,372.5,282,381.09Z"/><path class="cls-74" d="M389.87,310.67c-16.62,7.17-54-3.21-57.92-16.19a60.69,60.69,0,0,1-2-11.18c3.43,27.8,29.74,23,29.74,23s-10.32-8.31-9.19-26.73a207.31,207.31,0,0,1,5.66-35.46c9.87,11.64,20.93,22.71,22.13,23.92-1.2-1-11.9-11.6-13.12-11.33-3.4.75-11,12.45-3.46,33S389.87,310.67,389.87,310.67Z"/><path class="cls-75" d="M413.81,273.85a181.25,181.25,0,0,1-4.19,18.7c-2.13,6.34-14.51,18.55-25.53,17-8.89-1.22-9.85-6.4-9.85-6.4s.4-1.75,1.22-4.52a1.38,1.38,0,0,0,.06-.16c2.13-7.14,7.05-20.77,15.22-28.94,11.47-11.46,23.24-13.85,24.92-13.24C416.56,256.65,415.4,265.08,413.81,273.85Z"/><path class="cls-76" d="M413.81,273.85c-.82-2.09-3.15-7.31-6.38-7.75-4.07-.58-23.86,11.14-31.91,32.41,2.13-7.14,7.05-20.77,15.22-28.94,11.47-11.46,23.24-13.85,24.92-13.24C416.56,256.65,415.4,265.08,413.81,273.85Z"/><path class="cls-77" d="M441.3,411.58c-.1.14-.21.28-.32.41l-.36.47h0q-2.82,3.6-5.87,7c3-11.38,3.5-22.43,0-22.38-2.69,0-5.76,3.83-8.23,7.78a78.38,78.38,0,0,0-4.7,8.84,101.38,101.38,0,0,1-14.38,29l-1.48.95-1.31.81a235.07,235.07,0,0,0,11.23-29.76c5.42-18.34,5.42-29.36,2.55-28.94-2.51.33-9.39,10.76-11,13.29l0,.06-.1.16,0,0,0,0,0,0,0,.06h0a.72.72,0,0,1-.07.11l0,.05v0a42.86,42.86,0,0,1-16.93,16.79h0l-.1.05,0,0-.08,0c12.14-9.29,22.74-28.08,25.51-44.52,0-.18.05-.36.08-.53a43.34,43.34,0,0,0,.48-10.68h0c-1.21-13.23-7.09-21.11-10.2-24.41h0a18.63,18.63,0,0,0-1.94-1.83l-.18-1.31L399.74,306v-.08l-.2-1.23.12-.1h0l1.78-1.49,1-.83h0l.34-.29h0V302a0,0,0,0,0,0,0v.08h0s0,.06,0,.09l0,.13a.09.09,0,0,1,0,.05.14.14,0,0,1,0,.06s0,0,0,.05l0,.11c0,.07,0,.14,0,.23s0,.11.05.18.08.31.12.49.06.24.09.37.07.26.1.4.14.54.21.83c0,.1.05.2.08.3a.08.08,0,0,0,0,0l.06.25v0c.05.21.1.43.16.65l.09.35c0,.12.07.24.1.37s.07.27.11.41.07.27.1.41.07.28.11.42l.63,2.39c.07.24.13.48.2.73.13.5.27,1,.41,1.52.07.26.14.52.22.78s.22.8.33,1.21.15.54.23.81.12.43.18.65.11.4.17.61l.48,1.7c.08.25.15.51.23.77s.14.5.22.75.1.37.16.56q.21.69.42,1.41c0,.14.09.29.13.44l.36,1.18a1,1,0,0,1,0,.14c.09.29.18.59.28.88s.21.68.31,1l.18.56.18.56h0v0a0,0,0,0,0,0,0l0,.1,0,.09c0,.08.05.17.08.25l.14.44c.09.29.19.58.28.86a2,2,0,0,1,.07.23c.09.25.17.5.25.75l.25.74.15.43.17.51.27.77.15.42.42,1.16v0c.09.23.17.46.25.68s.07.18.1.27l.24.63c.14.38.29.76.44,1.14s.29.74.44,1.09.19.48.29.71.09.23.14.34.2.45.29.67l.29.65c.08.16.15.32.22.47l.32.68.32.65.15.27c0,.09.09.18.14.27l.21.39.21.37h0c0,.08.09.15.13.22s.09.16.14.23.21.37.32.57l.15.32c0,.09.08.19.13.29h0c0,.08.07.17.1.26s.08.18.11.27,0,.1,0,.14a.88.88,0,0,1,.05.15,2.47,2.47,0,0,1,.1.29l.08.24v0l.06.18c0,.11.06.23.1.36a.43.43,0,0,1,0,.05c0,.14.08.28.11.43s.09.34.13.51.06.27.09.42c.13.63.25,1.31.35,2,.26.33,2.19,2.82,4.83,6.74,1.95,2.91,4.3,6.61,6.62,10.8,4.26,7.68,8.46,17,10.1,26.05A71.47,71.47,0,0,1,441.05,411c.08-.28.12-.44.12-.44S441.21,410.93,441.3,411.58Z"/><path class="cls-78" d="M409.78,327s4.25,14.08,18.41,20.5,14.17,18.13-4,21.71-34.37,21.72-34.37,21.72S397.55,373.8,409,365.2c8.36-6.26,18.88-8.94,17.56-13.1C425.5,348.68,413.27,349.54,409.78,327Z"/><path class="cls-43" d="M356.46,368.72c-2.34-2.26,11.37-14.77,16.07-13.6s2.34,11.42-3.2,13.6S358.19,370.4,356.46,368.72Z"/><path class="cls-44" d="M300,418.25a71.18,71.18,0,0,1-9.16,19.36,38,38,0,0,1-6.77,7.5,40.59,40.59,0,0,1-9.07,5.51c-1.5-.73-3-1.5-4.47-2.29-.37-.19-.74-.39-1.1-.6C272.1,446,275,444,278,441.81,289.78,433.16,300,418.25,300,418.25Z"/><path class="cls-44" d="M298.37,242a115.14,115.14,0,0,0-2.51,16.42c-.77,9.38,4.15,19.45,4.15,19.45s-8.61-8.21-7.14-18.9S298.37,242,298.37,242Z"/><path class="cls-44" d="M284.91,211.88s-2.33,23.34,7.83,40.84C292.74,252.72,290,224.71,284.91,211.88Z"/><path class="cls-44" d="M310.12,272.32s-6.24,6.51-7.93,11.25,2.23,12,2.23,12A52.81,52.81,0,0,1,310.12,272.32Z"/><path class="cls-44" d="M344,246.28s-6.1,1.05-9.3,5.63-8.75,31.51,1.88,45.5c0,0-5.84-15.56-1.88-33S344,246.28,344,246.28Z"/><path class="cls-44" d="M292.42,292.36s-5.38,1-6.37,7.86,3.18,15.1,3.18,15.1A33.13,33.13,0,0,1,292.42,292.36Z"/><path class="cls-44" d="M294.5,323.58a78.18,78.18,0,0,0,0,11c.4,7,3,22.1,2.48,24.38s-12.77,15-14,22.13,12.57,23.05,12.57,23.05-9-16.39-7.51-24.12,13-16.73,13.43-21.4S294.1,340.89,294.5,323.58Z"/><path class="cls-31" d="M361.13,336.8a17.54,17.54,0,0,0,9.66-7.22,47.11,47.11,0,0,1-13.34,5.5Z"/><path class="cls-44" d="M437.19,403.47a112.17,112.17,0,0,1-2.63,16.19q-1.46,1.62-3,3.2c-.6.62-1.2,1.23-1.81,1.84.54-1,1.06-2,1.52-3A64.23,64.23,0,0,0,437.19,403.47Z"/><path class="cls-33" d="M294.06,252.92s-1.9,7.75-1.18,11C292.88,264,298.77,261.25,294.06,252.92Z"/><path class="cls-33" d="M302.09,283.88s1.23-4.39,4.12-5.92C306.21,278,307.31,284,302.09,283.88Z"/><path class="cls-33" d="M285.9,212.38s3.87,7.41,3.71,13.44a22.82,22.82,0,0,1-2.28,9.78S283.11,223.2,285.9,212.38Z"/><path class="cls-45" d="M343.34,335.86,344,343a37.15,37.15,0,0,0,17.05,3.13l1.26-7.3S355.55,331.89,343.34,335.86Z"/><path class="cls-79" d="M270,329.29a134.42,134.42,0,0,1-28,82.29l-.33.41c-.11.16-.23.31-.36.47h0q-2.81,3.6-5.86,7l-.2.21q-1.46,1.62-3,3.2c-.59.62-1.2,1.23-1.81,1.84a135.31,135.31,0,0,1-22.29,18l-1.49.95-1.31.81-.06,0a134.55,134.55,0,0,1-24,11.6c-1.63.6-3.27,1.16-4.93,1.7A135,135,0,0,1,135,464.29c-1.54,0-3.07,0-4.59-.08-1.83-.06-3.65-.16-5.46-.29-1.66-.12-3.31-.28-5-.46q-2.73-.3-5.43-.71c-1-.15-1.92-.3-2.87-.47A133.55,133.55,0,0,1,88.29,456c-1.34-.5-2.68-1-4-1.56-.94-.38-1.88-.77-2.81-1.17q-2.89-1.25-5.72-2.64c-1.51-.73-3-1.5-4.48-2.29l-1.1-.6L69,447.09c-2.32-1.3-4.6-2.68-6.84-4.11l-.06,0L60,441.55A135,135,0,1,1,270,329.29Z"/><path class="cls-80" d="M125,431.5s0,0,0,0a128.73,128.73,0,0,0-6.45,16.5c-1.38,4.27-2.78,9.23-4,14.71-1-.15-1.92-.3-2.87-.47A133.55,133.55,0,0,1,88.29,456c1-.75,2-1.53,2.89-2.34s2-1.82,3.06-2.67a138.42,138.42,0,0,1,19-13.62A78.85,78.85,0,0,1,124,431.92l0,0c.58-.24.93-.36,1-.39Z"/><path class="cls-81" d="M156.35,384.4l-3.37,5h0l-.34.51-1.27,1.9-.34.5-1.62,2.43-.59.88-6.76,10.1h0a24,24,0,0,1-14.07,7.8c-2.47.37-6.63.55-11.64.86-4.56.29-9.84.67-15.15,1.41l-.36,0a37.91,37.91,0,0,1,6.5-5.66,26.94,26.94,0,0,1-6.56-.33c-2.57,2-16.15,4.41-23.31,10.53-6.5,5.56-12.61,17-15.34,22.5L60,441.55c2.68-7.79,7.32-17.29,15.23-25.11a37.87,37.87,0,0,1,11.89-7.82l.06,0a55.88,55.88,0,0,1,8.26-2.73c8.94-2.25,18.39-2.74,26.5-3.66,1.49-.17,2.93-.36,4.31-.57h0q1.17-.18,2.28-.39h0a34.77,34.77,0,0,0,6.27-1.71,57,57,0,0,0,15.82-9.47l1-.87A41.45,41.45,0,0,0,156.35,384.4Z"/><path class="cls-82" d="M139.7,411.34l-2,4.7-.29.69h0l0,0-1.58,3.78h0a23.9,23.9,0,0,0-3.16,2.37l0,0-.05,0-.11.1-.14.13-.37.32-.14.13-.69.65-.32.31-.21.21-.22.22-.05.06-.22.22c-.94,1-2,2.1-3,3.41l0,0-.49.62-.52.68c-.35.46-.69.94-1,1.44,0,0,0,0,0,0-1,1.42-2,3-3,4.74-.3.53-.61,1.09-.92,1.66a.34.34,0,0,1-.06.12l-.31.6a73.12,73.12,0,0,0-4.45,10.77c-1.61,4.91-3,9.17-4.57,12.85A133.55,133.55,0,0,1,88.29,456c-1.34-.5-2.68-1-4-1.56-.94-.38-1.88-.77-2.81-1.17q-2.89-1.25-5.72-2.64c-1.51-.73-3-1.5-4.48-2.29,6.67-3.46,13.57-7.11,20.31-10.72,9.61-5.13,18.89-10.18,26.7-14.45C130.93,416.24,139.7,411.34,139.7,411.34Z"/><path class="cls-83" d="M144.6,399.7l-2.54,6.06h0l-.19.45-.18.44c-.64,1.52-1.31,3.1-2,4.68l-2,4.7-.29.69h0l0,0c-.5.23-8,3.87-13.42,15.15l0,0c-.43.86-.83,1.76-1.23,2.72-.2.47-.39.93-.61,1.39l-.13.25c-.3.53-.61,1.09-.92,1.66a.34.34,0,0,1-.06.12l-.31.6c-5.3,8.63-14.88,12.92-29.53,15-2.19.3-4.48.57-6.9.78-.94-.38-1.88-.77-2.81-1.17q-2.89-1.25-5.72-2.64c-1.51-.73-3-1.5-4.48-2.29l-1.1-.6L69,447.09c.92-.57,1.83-1.16,2.75-1.75C83,438.1,92,425.3,100,416.78h0c.27-.3.54-.59.83-.88a37.91,37.91,0,0,1,6.5-5.66h0c.21-.14.41-.27.62-.39l.11-.07,1.11-.64a69.38,69.38,0,0,1,15.68-6.31h0c1-.28,2-.54,3-.77a94.28,94.28,0,0,1,10.8-1.9h0c3.5-.4,5.74-.45,5.94-.46Z"/><path class="cls-84" d="M151.63,389.2l-.16.82-.19,1-.17.91-.08.4-1.62,2.43-.59.88-6.76,10.1h0l-.19.45-.18.44c-.64,1.52-1.31,3.1-2,4.68l0,0-2,4.68-.29.69h0l0,0-1.58,3.78h0a23.9,23.9,0,0,0-3.16,2.37l0,0-.05,0-.11.1-.14.13-.37.32-.14.13-.69.65-.32.31-.21.21-.22.22-.05.06-.22.22c-.94,1-2,2.1-3,3.41l0,0-.49.62-.52.68c-.35.46-.69.94-1,1.44,0,0,0,0,0,0a128.73,128.73,0,0,0-6.45,16.5c-1.38,4.27-2.78,9.23-4,14.71-1-.15-1.92-.3-2.87-.47A133.55,133.55,0,0,1,88.29,456c-1.34-.5-2.68-1-4-1.56-.94-.38-1.88-.77-2.81-1.17,4.69-.7,9-1.36,12.77-2.28a31.53,31.53,0,0,0,10.4-4.16,29.38,29.38,0,0,0,8.55-9.46,38.49,38.49,0,0,0,5.09-14.2c.52-4,0-7.28-1.68-8.54l-.27-.18c-5-3.3-15.15,1.41-15.15,1.41a9.68,9.68,0,0,1-1.19.93c.27-.3.54-.59.83-.88a37.91,37.91,0,0,1,6.5-5.66,26.94,26.94,0,0,1-6.56-.33l.07-.07a.79.79,0,0,0,.22-.23.53.53,0,0,0,.11-.21c.08-.26-.07-.52-.51-.78a8,8,0,0,0-3.31-.95,37,37,0,0,0-10.16.93,55.88,55.88,0,0,1,8.26-2.73c8.94-2.25,18.39-2.74,26.5-3.66,1.49-.17,2.93-.36,4.31-.57h0q1.17-.18,2.28-.39h0a34.77,34.77,0,0,0,6.27-1.71,57,57,0,0,0,15.82-9.47Z"/><path class="cls-85" d="M122.85,453.65c.68,3.42,1.53,6.9,2.1,10.27-1.66-.12-3.31-.28-5-.46-.14-6-1.43-10.71-1.44-15.42a20.21,20.21,0,0,1,2.23-9.51c.09-.16.16-.31.24-.47a.34.34,0,0,0,.06-.12c.35-.66.7-1.29,1-1.91a52.17,52.17,0,0,1,2.87-4.52c.36-.51.71-1,1.06-1.45l.52-.68.49-.62,0,0c1.11-1.38,2.14-2.51,3-3.41l.22-.22.05-.06.22-.22.21-.21.32-.31.69-.65.14-.13.37-.32.14-.13.11-.1.05,0,0,0,0,0C132.33,423.32,119.93,439,122.85,453.65Z"/><path class="cls-86" d="M110.41,295.24c-12.34,9.82-17.32,28.34-17.32,28.34a.22.22,0,0,1,0-.08l-.08-.14c-1.36-2.11-12.08-19.61-6.2-28.6a8.93,8.93,0,0,1,2.11-2.29c7.64-5.94,11.36-10.33,12.86-12.36a14.47,14.47,0,0,0,.86-1.23l4.78,10Z"/><path class="cls-87" d="M110.41,295.24c-12.34,9.82-17.32,28.34-17.32,28.34a.22.22,0,0,1,0-.08l-.08-.14c-.42-.95-1.83-5,.18-13.77,2.33-10.13,8.43-19.63,3.65-19.25s-10,4.42-10,4.42a8.93,8.93,0,0,1,2.11-2.29c7.64-5.94,11.36-10.33,12.86-12.36l5.64,8.81Z"/><path class="cls-88" d="M232.31,422.86c-.59.62-1.2,1.23-1.81,1.84a135.31,135.31,0,0,1-22.29,18l-1.49.95-1.31.81-.06,0a134.55,134.55,0,0,1-24,11.6c-1.63.6-3.27,1.16-4.93,1.7A135,135,0,0,1,135,464.29c-1.54,0-3.07,0-4.59-.08a64.11,64.11,0,0,1-1.59-21.32c.86-7.33,2.23-11.1,7-22.36h0l1.6-3.8h0l.29-.69,2-4.7c.66-1.58,1.33-3.16,2-4.68l.18-.44c.06-.15.13-.3.19-.44.92-2.21,1.79-4.28,2.55-6.08l1.71-4.09,1-2.4c.85-.24,1.69-.51,2.53-.8h0l1.28-.46.26-.1q2.56-1,5-2.16h0c11.19-5.45,20.48-14.11,27.76-22.91h0a139.54,139.54,0,0,0,13.09-19h0a120.88,120.88,0,0,0,6.12-11.95s.63,1.68,1.71,4.59c.12.33.25.68.38,1.05h0l.43,1.15c1.8,4.88,4.41,12,7.32,20.21.33.91.65,1.83,1,2.76h0q1,2.88,2.07,5.88c.05.14.09.28.15.42.36,1.05.72,2.1,1.09,3.15l.15.43c.49,1.42,1,2.86,1.47,4.3,1.49,4.34,3,8.74,4.39,13.06,1.34,4.1,2.62,8.13,3.81,12,1.92,6.26,3.57,12,4.74,16.83C232.13,422.08,232.22,422.47,232.31,422.86Z"/><path class="cls-12" d="M146.5,395.53s26.12,1.61,44.09,0,24.55-33.82,24.55-33.82l-8.37-22.88Z"/><path class="cls-89" d="M232.31,422.86c-.59.62-1.2,1.23-1.81,1.84a135.31,135.31,0,0,1-22.29,18l-1.49.95-1.31.81-.06,0a134.55,134.55,0,0,1-24,11.6c2.73-5.78,5.68-11.67,8.34-16.86,4.79-9.34,8.64-16.4,8.64-16.4-28,6.22-58.59-11.53-58.59-11.53.66-1.58,1.33-3.16,2-4.68l.18-.44c.06-.15.13-.3.19-.44.92-2.21,1.79-4.28,2.55-6.08l1.71-4.09,1-2.4c.85-.24,1.69-.51,2.53-.8h0l1.28-.46.26-.1q2.56-1,5-2.16h0c11.19-5.45,20.48-14.11,27.76-22.91h0a139.54,139.54,0,0,0,13.09-19h0a120.88,120.88,0,0,0,6.12-11.95s.63,1.68,1.71,4.59c.12.33.25.68.38,1.05h0l.43,1.15c1.8,4.88,4.41,12,7.32,20.21.33.91.65,1.83,1,2.76h0q1,2.88,2.07,5.88c.05.14.09.28.15.42.36,1.05.72,2.1,1.09,3.15l.15.43c.49,1.42,1,2.86,1.47,4.3,1.49,4.34,3,8.74,4.39,13.06,1.34,4.1,2.62,8.13,3.81,12,1.92,6.26,3.57,12,4.74,16.83C232.13,422.08,232.22,422.47,232.31,422.86Z"/><path class="cls-90" d="M187,384.87c-11.72,7.25-34.29,8.49-40.51,10.66S129,408.57,122.89,410s-12.86-.5-12.86-.5-7.69,1.14-10.2,0S83.4,395,82.76,383.53c-.55-10.18,12.84-20.19,13.42-25.11s-4.17-24.16-3-35.88,17.34-35.63,40.8-42.67c32-9.57,63.24,1.52,70.53,30S200.4,376.56,187,384.87Z"/><path class="cls-91" d="M187,384.87c-11.72,7.25-34.29,8.49-40.51,10.66S129,408.57,122.89,410s-12.86-.5-12.86-.5-7.69,1.14-10.2,0c21.26-2,30.33-14.49,35-17.63s37.07.51,43.66-9.63,12.66-41.42-1.69-54.93S122,311.1,109.2,313c-9.74,1.44-16,9.53-16,9.53,1.13-11.69,17.34-35.63,40.8-42.67,32-9.57,63.24,1.52,70.53,30S200.4,376.56,187,384.87Z"/><path class="cls-92" d="M136.23,291.55s-9.69,14.82-28.32,10.46a26,26,0,0,1-6.79-20.69l.25-1.65s-12-6.61-8-26.8c0,0-11.37-20.61-8-41.17l.26.18c2,1.32,14.86,10.4,14.64,21.1,0,0,22.41,10.94,16.53,28.11C116.81,261.09,136,276.88,136.23,291.55Z"/><path class="cls-93" d="M136.23,291.55s-9.69,14.82-28.32,10.46c0,0,21.5-10.11,20.33-20.7s-10.27-14.89-14-14-13.08,14-13.08,14l.25-1.65s13.49-16.64,12.16-25.38-10.09-17-12.94-15.79S94,251.28,93.46,252.72c.52-1.81,5.29-18.95,3.9-26.11-1.31-6.86-10.09-13.54-11.72-14.73,2,1.32,14.86,10.4,14.64,21.1,0,0,22.41,10.94,16.53,28.11C116.81,261.09,136,276.88,136.23,291.55Z"/><path class="cls-94" d="M171.6,287.74s3.24-1.68,6.57-9.45,19.77-27.79,41.25-29.37c0,0-4.08,25.33-7.37,38.79s-16.76,21.12-21.46,21.63S170.26,309.4,171.6,287.74Z"/><path class="cls-95" d="M190.59,310.67c-16.62,7.17-54-3.21-57.92-16.19a61.6,61.6,0,0,1-2-11.18c-1.38-13.73.16-31.09,6.7-35.14,8.57-5.28,19.51-4,19.51-4,9.87,11.64,20.93,22.71,22.12,23.92-1.19-1-10.94-9.31-12.18-9.13s-10.38,10-2.83,30.6S190.59,310.67,190.59,310.67Z"/><path class="cls-96" d="M182.35,271.5s-8.38-8.8-15.93-15.41-16.07,29.35,5.18,45.83c0,0-6.58-27.5-1.34-32.43s10.63,4.05,10.63,4.05Z"/><path class="cls-97" d="M101.1,281s-1.47,3.37-18.35,6.77S65.21,303.48,67.1,313.87c0,0,2.26-12.65,12.55-17.85S99.33,288.54,101.1,281Z"/><path class="cls-98" d="M242,411.58l-.33.41c-.11.16-.23.31-.36.47.2-.63.35-1.12.44-1.44s.12-.44.12-.44S241.94,410.93,242,411.58Z"/><path class="cls-23" d="M182.35,271.5s-6.92-7.06-11.73-7.06c-6.5,0-.5,30.32-.5,30.32S176.55,279.6,182.35,271.5Z"/><path class="cls-99" d="M241.78,411c0,.32-.05.65-.08,1-.11.16-.23.31-.36.47h0q-2.81,3.6-5.86,7l-.2.21q-1.46,1.62-3,3.2c-.59.62-1.2,1.23-1.81,1.84a135.31,135.31,0,0,1-22.29,18l-1.49.95-1.31.81-.06,0a134.55,134.55,0,0,1-24,11.6c-1.63.6-3.27,1.16-4.93,1.7.78-1.74,1.65-3.49,2.63-5.23,2.53-4.48,6.36-8.86,10.64-13.33,5.14-5.36,10.95-10.84,15.95-16.71h0c5.38-6.28,9.82-13,11.53-20.56a80.51,80.51,0,0,0,2.05-16.2c.06-2.16,0-4.16-.1-6a63.35,63.35,0,0,0-.85-7.37h0c0-.22-.08-.42-.12-.62s-.08-.37-.11-.55a32.83,32.83,0,0,0-.87-3.51l.84-7.62h0l1.1-10.06s0,0,0,0c.26.33,2.2,2.82,4.83,6.74,2,2.91,4.3,6.61,6.63,10.8,4.26,7.68,8.45,17,10.09,26.05A71.48,71.48,0,0,1,241.78,411Z"/><path class="cls-100" d="M223.48,392.87c-.94,22.28-11.31,41.94-16.76,50.81l-1.31.81-.06,0c.89-3,1.59-7.63.73-14.35a65.4,65.4,0,0,1-.47-7.63,131.41,131.41,0,0,1,2.18-22.9,2,2,0,0,0,.11-.2h0l0-.06,0,0c.29-.48.56-1,.84-1.42h0s.05-.09.08-.14c.28-.49.55-1,.81-1.46l.06-.1c.46-.85.89-1.69,1.31-2.52l.17-.34h0l.17-.36,0,0a80.73,80.73,0,0,0,6.18-17.45c.25-1.09.45-2.12.62-3.07.09-.47.16-.93.23-1.36a47.71,47.71,0,0,0,.6-5.67h0c0-.09,0-.15,0-.18h0q1,2.54,1.73,5.05A69.33,69.33,0,0,1,223.48,392.87Z"/><path class="cls-101" d="M219.07,365.22v.14c-.23,2.09-.53,4.26-.95,6.45a84.13,84.13,0,0,1-6.64,21.05c-.08.18-.16.34-.24.5-.46.94-1,1.89-1.47,2.85-.32.56-.64,1.14-1,1.71s-.52.92-.8,1.38l0,0a2.86,2.86,0,0,0-.2.32,47.88,47.88,0,0,1-17.08,16.88l-.08,0h0c.52-1.12,18.7-39.6,16.17-63.42-.68-6.32-1.46-12.66-2.22-18.56l-.17-1.31c-1.82-13.95-3.59-25.28-4-28l-.1-.61,3.27-2.73s7.71,32.05,13.61,41.63a17.4,17.4,0,0,1,2,6.54A64.52,64.52,0,0,1,219.07,365.22Z"/><path class="cls-27" d="M136,361.11a34.45,34.45,0,0,0,18.11.6c10.2-2.34,12.2-13.68,12.2-13.68S152.94,357.94,136,361.11Z"/><path class="cls-27" d="M130.17,341.81a22.06,22.06,0,0,1,9.06-12.58c7.42-4.91,24.36.18,27.28,11C166.51,340.21,142.39,337.91,130.17,341.81Z"/><path class="cls-102" d="M132.24,359.25c2.2,2.45,10.58,3.62,19.83.88s12.55-7.83,13.69-10.05,1-8.93.75-9.87-6.13-7.33-14.91-8.12c-7.39-.66-18.41,2.17-21.43,9.72C128.5,346,130.35,357.15,132.24,359.25Z"/><circle class="cls-103" cx="151.52" cy="345.1" r="13.86" transform="translate(-199.65 208.22) rotate(-45)"/><circle class="cls-30" cx="151.99" cy="345.1" r="9.87" transform="translate(-121.57 85.56) rotate(-22.74)"/><path class="cls-31" d="M129.73,343.55s1.49-7.59,15-9.76a25.66,25.66,0,0,1,21.75,6.42,21.62,21.62,0,0,0,9.25-6.7s-6.4,3.25-10.47,2.07c0,0-9.35-6.6-21.15-4.34A18.25,18.25,0,0,0,129.73,343.55Z"/><path class="cls-32" d="M130.64,355.32s.15,6.08,1.22,6.39a60.35,60.35,0,0,0,7.16.2S132.37,361.28,130.64,355.32Z"/><path class="cls-33" d="M139.9,349.32a1.59,1.59,0,1,1-1.59-1.59A1.59,1.59,0,0,1,139.9,349.32Z"/><path class="cls-104" d="M132.29,311.19c-2.47.19-3.52,4.81-.44,6.31s15.29-.1,18.38,0,7.26,1.2,7.92.65S145.21,310.19,132.29,311.19Z"/><path class="cls-35" d="M134.82,391.92a66.33,66.33,0,0,1-6.29,9.33h0l-.68.81a24.45,24.45,0,0,1-5.36,4.84c-2.52,1.53-6.79,2.51-11,3-1.44.17-2.86.28-4.19.34h0a26.94,26.94,0,0,1-6.56-.33,2.67,2.67,0,0,1-.91-.36h0c.11,0,.53,0,1.2.07a43.54,43.54,0,0,0,8.12-.47,46.56,46.56,0,0,0,8.16-1.95,25.06,25.06,0,0,0,7.52-4.36h0c.48-.39,1-.78,1.4-1.19h0A56,56,0,0,0,134.82,391.92Z"/><path class="cls-35" d="M104.28,385.78s-1-3.75,1-5.54,7.51-1.45,7.51-1.45S106.07,379.13,104.28,385.78Z"/><path class="cls-105" d="M104.28,385.78s8.28,1,8.53-7C112.81,378.79,104.58,378.87,104.28,385.78Z"/><path class="cls-106" d="M82.75,381.09s16-2.17,25.67-6.23,15.91-14.59,15.63-15.61S97.71,359,97.71,359,84.8,372.5,82.75,381.09Z"/><path class="cls-107" d="M190.59,310.67c-16.62,7.17-54-3.21-57.92-16.19a61.6,61.6,0,0,1-2-11.18c3.43,27.8,29.74,23,29.74,23s-10.33-8.31-9.19-26.73a206.17,206.17,0,0,1,5.66-35.46c9.87,11.64,20.93,22.71,22.12,23.92-1.19-1-11.9-11.6-13.12-11.33-3.4.75-11,12.45-3.46,33S190.59,310.67,190.59,310.67Z"/><path class="cls-108" d="M214.53,273.85a178.59,178.59,0,0,1-4.19,18.7c-2.13,6.34-14.51,18.55-25.53,17-8.89-1.22-9.84-6.4-9.84-6.4s.4-1.75,1.21-4.52a1.38,1.38,0,0,0,.06-.16c2.14-7.14,7.06-20.77,15.23-28.94,11.46-11.46,23.24-13.85,24.91-13.24C217.28,256.65,216.12,265.08,214.53,273.85Z"/><path class="cls-109" d="M214.53,273.85c-.82-2.09-3.15-7.31-6.38-7.75-4.06-.58-23.86,11.14-31.91,32.41,2.14-7.14,7.06-20.77,15.23-28.94,11.46-11.46,23.24-13.85,24.91-13.24C217.28,256.65,216.12,265.08,214.53,273.85Z"/><path class="cls-110" d="M242,411.58l-.33.41c-.11.16-.23.31-.36.47h0q-2.81,3.6-5.86,7c3-11.38,3.5-22.43,0-22.38-2.69,0-5.76,3.83-8.23,7.78a79.44,79.44,0,0,0-4.71,8.84,101.14,101.14,0,0,1-14.37,29l-1.49.95-1.31.81a232,232,0,0,0,11.23-29.76c5.42-18.34,5.42-29.36,2.55-28.94-2.51.33-9.38,10.76-11,13.29l0,.06-.1.16,0,0,0,0,0,0,0,.06h0l-.06.11s0,0,0,.05l0,0a42.86,42.86,0,0,1-16.92,16.79h0l-.1.05,0,0-.08,0c12.14-9.29,22.74-28.08,25.51-44.52l.09-.53a43.81,43.81,0,0,0,.47-10.68h0c-1.2-13.23-7.08-21.11-10.2-24.41h0a19.34,19.34,0,0,0-1.93-1.83l-.19-1.31L200.47,306v-.08l-.2-1.23.11-.1h0l1.78-1.49,1-.83h0l.35-.29h0V302a0,0,0,0,1,0,0v.08h0l0,.09,0,.13s0,0,0,.05a.14.14,0,0,0,0,.06.09.09,0,0,0,0,.05.52.52,0,0,0,0,.11c0,.07,0,.14.06.23s0,.11,0,.18.08.31.12.49.06.24.1.37.06.26.1.4.13.54.21.83c0,.1.05.2.07.3s0,0,0,0a2.33,2.33,0,0,0,.07.25v0c.06.21.11.43.17.65l.09.35.09.37c0,.13.07.27.11.41l.11.41c0,.14.07.28.11.42.19.75.4,1.55.63,2.39.06.24.13.48.19.73.14.5.27,1,.42,1.52l.21.78.33,1.21c.08.27.15.54.23.81l.18.65c.06.2.11.4.17.61.16.56.32,1.13.49,1.7.07.25.15.51.22.77s.15.5.22.75.11.37.16.56q.21.69.42,1.41c0,.14.09.29.14.44.11.39.24.79.36,1.18a.57.57,0,0,0,0,.14l.27.88c.11.34.21.68.32,1,.06.18.12.37.17.56l.18.56h0v0s0,0,0,0l0,.1,0,.09a2.41,2.41,0,0,1,.08.25c.05.15.1.29.14.44s.19.58.29.86a2,2,0,0,0,.07.23c.08.25.16.5.25.75l.25.74c.05.14.1.29.14.43l.18.51.27.77c.05.14.09.28.15.42.13.39.27.78.41,1.16v0c.08.23.16.46.25.68s.06.18.1.27.15.42.23.63l.44,1.14c.15.37.29.74.44,1.09s.19.48.29.71l.15.34c.09.23.19.45.29.67s.19.44.29.65l.21.47.33.68c.11.22.21.44.32.65l.14.27.14.27.22.39.2.37h0l.13.22.14.23c.11.18.22.37.32.57l.15.32a2.55,2.55,0,0,1,.13.29h0c0,.08.07.17.11.26s.07.18.1.27l.06.14c0,.05,0,.1.05.15s.06.19.1.29.05.15.07.24a0,0,0,0,1,0,0l.06.18c0,.11.07.23.1.36s0,0,0,.05.07.28.11.43l.12.51.09.42c.14.63.25,1.31.35,2,.26.33,2.2,2.82,4.83,6.74,2,2.91,4.3,6.61,6.63,10.8,4.26,7.68,8.45,17,10.09,26.05A71.48,71.48,0,0,1,241.78,411c.08-.28.12-.44.12-.44S241.94,410.93,242,411.58Z"/><path class="cls-111" d="M210.5,327s4.26,14.08,18.42,20.5,14.16,18.13-4,21.71-34.36,21.72-34.36,21.72,7.69-17.11,19.16-25.71c8.36-6.26,18.89-8.94,17.56-13.1C226.23,348.68,214,349.54,210.5,327Z"/><path class="cls-43" d="M157.18,368.72c-2.33-2.26,11.37-14.77,16.07-13.6s2.35,11.42-3.19,13.6S158.91,370.4,157.18,368.72Z"/><path class="cls-44" d="M100.75,418.25a71,71,0,0,1-9.17,19.36,38,38,0,0,1-6.77,7.5,40.3,40.3,0,0,1-9.06,5.51c-1.51-.73-3-1.5-4.48-2.29l-1.1-.6c2.66-1.74,5.56-3.72,8.56-5.92C90.51,433.16,100.75,418.25,100.75,418.25Z"/><path class="cls-44" d="M99.09,242a116.1,116.1,0,0,0-2.5,16.42c-.77,9.38,4.14,19.45,4.14,19.45s-8.61-8.21-7.13-18.9S99.09,242,99.09,242Z"/><path class="cls-44" d="M85.64,211.88s-2.33,23.34,7.82,40.84C93.46,252.72,90.7,224.71,85.64,211.88Z"/><path class="cls-44" d="M110.84,272.32s-6.23,6.51-7.93,11.25,2.23,12,2.23,12A53,53,0,0,1,110.84,272.32Z"/><path class="cls-44" d="M144.76,246.28s-6.1,1.05-9.31,5.63-8.75,31.51,1.89,45.5c0,0-5.85-15.56-1.89-33S144.76,246.28,144.76,246.28Z"/><path class="cls-44" d="M93.15,292.36s-5.38,1-6.38,7.86S90,315.32,90,315.32A33.13,33.13,0,0,1,93.15,292.36Z"/><path class="cls-44" d="M95.22,323.58a78.18,78.18,0,0,0,0,11c.4,7,3,22.1,2.48,24.38s-12.77,15-14,22.13,12.58,23.05,12.58,23.05-9-16.39-7.51-24.12,13-16.73,13.42-21.4S94.82,340.89,95.22,323.58Z"/><path class="cls-31" d="M161.85,336.8a17.54,17.54,0,0,0,9.67-7.22,47.25,47.25,0,0,1-13.35,5.5Z"/><path class="cls-44" d="M237.92,403.47a112.91,112.91,0,0,1-2.64,16.19q-1.46,1.62-3,3.2c-.59.62-1.2,1.23-1.81,1.84.55-1,1.06-2,1.53-3A64.62,64.62,0,0,0,237.92,403.47Z"/><path class="cls-33" d="M94.78,252.92s-1.89,7.75-1.18,11C93.6,264,99.5,261.25,94.78,252.92Z"/><path class="cls-33" d="M102.82,283.88s1.23-4.39,4.12-5.92C106.94,278,108,284,102.82,283.88Z"/><path class="cls-33" d="M86.62,212.38s3.88,7.41,3.71,13.44a22.82,22.82,0,0,1-2.28,9.78S83.84,223.2,86.62,212.38Z"/><path class="cls-45" d="M144.06,335.86l.7,7.14a37.13,37.13,0,0,0,17,3.13l1.27-7.3S156.27,331.89,144.06,335.86Z"/></g></g></svg>