<?xml version="1.0" encoding="utf-8"?>
<!-- Generator: Adobe Illustrator 26.2.1, SVG Export Plug-In . SVG Version: 6.00 Build 0)  -->
<svg version="1.1" id="Layer_1" xmlns="http://www.w3.org/2000/svg" xmlns:xlink="http://www.w3.org/1999/xlink" x="0px" y="0px" width="174" height="41"
	 viewBox="0 0 174 41" style="enable-background:new 0 0 174 41;" xml:space="preserve">
<style type="text/css">
	.st0{fill:#35343A;}
	.st1{fill-rule:evenodd;clip-rule:evenodd;fill:url(#SVGID_1_);}
	.st2{fill-rule:evenodd;clip-rule:evenodd;fill:url(#SVGID_00000165199327831213601520000005993545954027560125_);}
	.st3{fill-rule:evenodd;clip-rule:evenodd;fill:url(#SVGID_00000056425417438481347080000004413361861188031632_);}
	.st4{fill-rule:evenodd;clip-rule:evenodd;fill:url(#SVGID_00000082349275781712052820000016512043275421259416_);}
	.st5{fill-rule:evenodd;clip-rule:evenodd;fill:url(#SVGID_00000017509688599221025200000008628368008847019167_);}

		.st6{opacity:0.79;fill-rule:evenodd;clip-rule:evenodd;fill:url(#SVGID_00000119109834932701291470000003000288330973388704_);enable-background:new    ;}
	.st7{fill-rule:evenodd;clip-rule:evenodd;fill:url(#SVGID_00000104688310841266731000000013635996818717034419_);}
	.st8{fill-rule:evenodd;clip-rule:evenodd;fill:url(#SVGID_00000114039549580676265870000011025046812502703279_);}

		.st9{opacity:0.79;fill-rule:evenodd;clip-rule:evenodd;fill:url(#SVGID_00000172399634257918464990000001560954738679624325_);enable-background:new    ;}
	.st10{fill-rule:evenodd;clip-rule:evenodd;fill:url(#SVGID_00000014596351416635538270000014274935525393580684_);}
	.st11{opacity:0.5;fill-rule:evenodd;clip-rule:evenodd;fill:#7C4F90;enable-background:new    ;}

		.st12{opacity:0.58;fill-rule:evenodd;clip-rule:evenodd;fill:url(#SVGID_00000018922230600241634950000005938731377859470015_);enable-background:new    ;}
	.st13{fill-rule:evenodd;clip-rule:evenodd;fill:url(#SVGID_00000116938602293515902090000003724609394067180417_);}

		.st14{opacity:0.58;fill-rule:evenodd;clip-rule:evenodd;fill:url(#SVGID_00000176034723744070884240000011042789888475935897_);enable-background:new    ;}
	.st15{fill:url(#SVGID_00000079461305008311170350000010928095231558643385_);}

		.st16{opacity:0.79;fill-rule:evenodd;clip-rule:evenodd;fill:url(#SVGID_00000039106507128080114170000017692197671155264150_);enable-background:new    ;}
	.st17{fill-rule:evenodd;clip-rule:evenodd;fill:url(#SVGID_00000005246712489806250100000004238159919958323626_);}
	.st18{fill-rule:evenodd;clip-rule:evenodd;fill:url(#SVGID_00000020363960315718329860000003926274625718940299_);}
	.st19{fill-rule:evenodd;clip-rule:evenodd;fill:url(#SVGID_00000086655587699437400180000006000517684155558833_);}
	.st20{fill-rule:evenodd;clip-rule:evenodd;fill:url(#SVGID_00000148651394535245714850000008719396533665907595_);}
	.st21{fill-rule:evenodd;clip-rule:evenodd;fill:url(#SVGID_00000117670538817331859350000015865183545836933534_);}
	.st22{fill-rule:evenodd;clip-rule:evenodd;fill:#4F5195;}
	.st23{fill-rule:evenodd;clip-rule:evenodd;fill:url(#SVGID_00000098928203394698370250000011456013445610449591_);}
	.st24{fill-rule:evenodd;clip-rule:evenodd;fill:url(#SVGID_00000049924609185271511940000006966223443885329043_);}
	.st25{fill-rule:evenodd;clip-rule:evenodd;fill:url(#SVGID_00000054247079959052903320000013365131957276880017_);}
	.st26{fill-rule:evenodd;clip-rule:evenodd;fill:#A19DDD;}
	.st27{fill-rule:evenodd;clip-rule:evenodd;fill:url(#SVGID_00000060016609049841467420000001593609006871563149_);}
	.st28{fill:url(#SVGID_00000074428406264812815610000008786894455946818197_);}
	.st29{fill:#180833;}
	.st30{fill-rule:evenodd;clip-rule:evenodd;fill:#220D33;}
	.st31{fill-rule:evenodd;clip-rule:evenodd;fill:#B64F6D;}
	.st32{fill-rule:evenodd;clip-rule:evenodd;fill:#FFFFFF;}
	.st33{fill-rule:evenodd;clip-rule:evenodd;fill:url(#SVGID_00000175287346754877727730000011391766090824928910_);}
	.st34{fill-rule:evenodd;clip-rule:evenodd;fill:#B5526F;}

		.st35{opacity:0.58;fill-rule:evenodd;clip-rule:evenodd;fill:url(#SVGID_00000056423328567590758550000015531076834280435079_);enable-background:new    ;}

		.st36{opacity:0.58;fill-rule:evenodd;clip-rule:evenodd;fill:url(#SVGID_00000086660430468809893350000000922848330257644218_);enable-background:new    ;}

		.st37{opacity:0.79;fill-rule:evenodd;clip-rule:evenodd;fill:url(#SVGID_00000005948460786123326440000013357910254830087050_);enable-background:new    ;}
	.st38{fill-rule:evenodd;clip-rule:evenodd;fill:url(#SVGID_00000021115289047157227840000010104125571044901809_);}

		.st39{opacity:0.58;fill-rule:evenodd;clip-rule:evenodd;fill:url(#SVGID_00000137818147528834486170000006600651671535486356_);enable-background:new    ;}

		.st40{opacity:0.79;fill-rule:evenodd;clip-rule:evenodd;fill:url(#SVGID_00000141420342528494601850000011863888426433795755_);enable-background:new    ;}
	.st41{fill-rule:evenodd;clip-rule:evenodd;fill:url(#SVGID_00000013879016846649470590000007212252103995912077_);}
	.st42{fill-rule:evenodd;clip-rule:evenodd;fill:#FF63B8;}
	.st43{fill:#FFFFFF;}
</style>
<g>
	<g id="Layer_1_00000176024510038485715580000016122413948727868298_">
		<path class="st0" d="M46.4,28.1L50,12.5h5.2l0.2,9.2h0.4l4.4-9.2h5.5L62,28.1h-3.4l2.5-11h-0.3L56.4,26h-3.5l-0.2-8.9h-0.4
			l-2.5,11L46.4,28.1z"/>
		<path class="st0" d="M66.3,28.1l-1.6-2l0.8-3.6l2.1-1.7h4.6l0.2-1l-0.3-0.4h-4.8l0.6-2.6h6.3l1.7,2.2l-2.1,9.2h-2.6l0.2-0.8h-0.2
			l-1.1,0.8H66.3z M68.5,25.6h2.1l0.7-0.5l0.5-2.2h-2.6l-0.4,0.3l-0.5,2.1L68.5,25.6z"/>
		<path class="st0" d="M75.6,32.5l0.6-2.7h5.3l0.4-0.3l0.5-2h-0.1l-0.8,0.6h-3.1l-1.9-2.4l1.6-6.9l2.5-2h7.6l-3.2,14l-2.2,1.8
			L75.6,32.5z M80.4,25.4h1.7l0.9-0.6l1.2-5.3h-2.5L81.1,20L80,24.8L80.4,25.4z"/>
		<path class="st0" d="M87.8,28.1l2.6-11.4h3.3l-2.6,11.4L87.8,28.1z M90.8,15l0.6-2.4h3.3L94.1,15H90.8z"/>
		<path class="st0" d="M95.6,28.1l-1.9-2.4l1.6-6.9l2.5-2h6.2l-0.6,2.7h-4.4L98.4,20l-1.1,4.8l0.4,0.5h4.5l-0.6,2.7L95.6,28.1z"/>
		<path class="st0" d="M105.3,28.1l-1.9-2.4l1.6-6.9l2.5-2h5.4l1.9,2.4l-1.6,6.9l-2.5,2.1L105.3,28.1z M107.3,25.4h2.1l0.7-0.6
			l1.1-4.8l-0.4-0.5h-2.1L108,20l-1.1,4.8L107.3,25.4z"/>
		<path class="st0" d="M114.8,28.1l2.6-11.4h2.6l-0.2,0.8h0.2l1.1-0.8h3l-0.6,2.8h-2.8l-0.8,0.6l-1.8,8L114.8,28.1z"/>
		<path class="st0" d="M122.7,28.1l2.6-11.4h2.6l-0.2,0.8h0.2l1.1-0.8h3.5l1.8,2.3l-2.1,9H129l1.9-8.2l-0.3-0.4h-1.9l-0.8,0.6
			l-1.9,8.1L122.7,28.1z"/>
		<path class="st0" d="M140,28.1l0.6-2.8h2.2l2.3-10H143l0.6-2.8h8.1l-0.7,2.8h-2.2l-2.3,10h2.2l-0.6,2.8H140z"/>
		<path class="st0" d="M150.1,28.1l2.6-11.4h2.6l-0.2,0.8h0.2l1.1-0.8h3.5l1.8,2.3l-2.1,9h-3.3l1.9-8.2l-0.3-0.4h-1.9l-0.8,0.6
			l-1.9,8.1L150.1,28.1z"/>
		<path class="st0" d="M164.1,28.1l-1.8-2.3l2.1-9h3.3l-1.9,8.2l0.4,0.4h1.6l0.8-0.6l1.9-8.1h3.3l-2.6,11.4h-2.6l0.2-0.8h-0.2
			l-1.1,0.8L164.1,28.1z"/>

			<linearGradient id="SVGID_1_" gradientUnits="userSpaceOnUse" x1="30.1556" y1="4.2943" x2="10.1521" y2="38.9365" gradientTransform="matrix(1 0 0 -1 0 42)">
			<stop  offset="0" style="stop-color:#00CDB8"/>
			<stop  offset="1" style="stop-color:#2AE59D"/>
		</linearGradient>
		<path class="st1" d="M40.1,20.4c0,4.4-1.5,8.7-4.1,12.2l0,0.1l-0.1,0.1l0,0c-0.3,0.4-0.6,0.7-0.9,1l0,0c-0.1,0.2-0.3,0.3-0.4,0.5
			l-0.3,0.3c-1,1-2.1,1.9-3.3,2.7l-0.2,0.1l-0.2,0.1l0,0c-1.1,0.7-2.3,1.3-3.6,1.7c-0.2,0.1-0.5,0.2-0.7,0.3c-2,0.6-4.1,1-6.1,1
			c-0.2,0-0.5,0-0.7,0c-0.2,0-0.5,0-0.8,0c-0.3,0-0.5,0-0.7-0.1c-0.2,0-0.5-0.1-0.8-0.1l-0.4-0.1c-1.2-0.2-2.3-0.5-3.5-0.9
			c-0.2-0.1-0.4-0.1-0.6-0.2l-0.4-0.2c-0.3-0.1-0.6-0.3-0.8-0.4c-0.2-0.1-0.4-0.2-0.7-0.3l-0.2-0.1l-0.2-0.1c-0.3-0.2-0.7-0.4-1-0.6
			l0,0c-0.1-0.1-0.2-0.1-0.3-0.2C-0.1,30.9-2.6,18.5,3.5,9.3S22-2.4,31.2,3.7C36.8,7.5,40.1,13.7,40.1,20.4z"/>

			<linearGradient id="SVGID_00000033360015244169530100000016826459141959044794_" gradientUnits="userSpaceOnUse" x1="15.9721" y1="1.843" x2="15.9721" y2="6.4693" gradientTransform="matrix(1 0 0 -1 0 42)">
			<stop  offset="3.000000e-02" style="stop-color:#84A1FF"/>
			<stop  offset="0.98" style="stop-color:#5B72EC"/>
		</linearGradient>
		<path style="fill-rule:evenodd;clip-rule:evenodd;fill:url(#SVGID_00000033360015244169530100000016826459141959044794_);" d="
			M18.7,35.5L18.7,35.5c-0.4,0.8-0.7,1.6-1,2.4c-0.2,0.6-0.4,1.4-0.6,2.2l-0.4-0.1c-1.2-0.2-2.3-0.5-3.5-0.9
			c0.1-0.1,0.3-0.2,0.4-0.3c0.1-0.1,0.3-0.3,0.5-0.4c0.9-0.8,1.8-1.4,2.8-2c0.5-0.3,1-0.6,1.6-0.8l0,0L18.7,35.5L18.7,35.5z"/>

			<linearGradient id="SVGID_00000009577870915795328250000015636458818470859654_" gradientUnits="userSpaceOnUse" x1="16.1845" y1="4.7825" x2="16.1845" y2="13.4446" gradientTransform="matrix(1 0 0 -1 0 42)">
			<stop  offset="2.000000e-02" style="stop-color:#FFA451"/>
			<stop  offset="0.97" style="stop-color:#FF515E"/>
		</linearGradient>
		<path style="fill-rule:evenodd;clip-rule:evenodd;fill:url(#SVGID_00000009577870915795328250000015636458818470859654_);" d="
			M23.3,28.6l-0.5,0.7l0,0l0,0.1l-0.2,0.3l0,0.1l-0.2,0.4l-0.1,0.1l-1,1.5l0,0c-0.5,0.6-1.3,1-2.1,1.2c-0.4,0.1-1,0.1-1.7,0.1
			c-0.7,0-1.5,0.1-2.2,0.2h-0.1c0.3-0.3,0.6-0.6,1-0.8c-0.3,0-0.7,0-1,0c-0.4,0.3-2.4,0.7-3.5,1.6c-1,0.8-1.9,2.5-2.3,3.3
			c-0.1-0.1-0.2-0.1-0.3-0.2c0.5-1.4,1.2-2.7,2.3-3.7c0.5-0.5,1.1-0.9,1.8-1.2l0,0c0.4-0.2,0.8-0.3,1.2-0.4c1.3-0.3,2.7-0.4,3.9-0.5
			c0.2,0,0.4-0.1,0.6-0.1l0,0c0.1,0,0.2,0,0.3-0.1l0,0c0.3-0.1,0.6-0.1,0.9-0.3c0.9-0.3,1.6-0.8,2.3-1.4l0.1-0.1
			C22.9,29,23.1,28.8,23.3,28.6z"/>

			<linearGradient id="SVGID_00000137841082677069145210000017002831821078119581_" gradientUnits="userSpaceOnUse" x1="15.8019" y1="1.9117" x2="15.8019" y2="9.4555" gradientTransform="matrix(1 0 0 -1 0 42)">
			<stop  offset="3.000000e-02" style="stop-color:#D36FFF"/>
			<stop  offset="0.98" style="stop-color:#A240EC"/>
		</linearGradient>
		<path style="fill-rule:evenodd;clip-rule:evenodd;fill:url(#SVGID_00000137841082677069145210000017002831821078119581_);" d="
			M20.8,32.5c-0.1,0.2-0.2,0.5-0.3,0.7c0,0,0,0.1,0,0.1l0,0l-0.2,0.6l0,0c-0.2,0.1-0.3,0.2-0.5,0.3l0,0l0,0h0l0,0l-0.1,0l0,0
			l-0.1,0.1l0,0c0,0,0,0,0,0c0,0,0,0,0,0l0,0l0,0c-0.1,0.1-0.3,0.3-0.4,0.5l0,0c0,0,0,0.1-0.1,0.1l-0.1,0.1c0,0.1-0.1,0.1-0.2,0.2
			l0,0c-0.1,0.2-0.3,0.4-0.4,0.7l-0.1,0.2v0l0,0.1c-0.3,0.5-0.5,1-0.7,1.6c-0.2,0.7-0.4,1.4-0.7,1.9c-1.2-0.2-2.3-0.5-3.5-0.9
			c-0.2-0.1-0.4-0.1-0.6-0.2l-0.4-0.2c-0.3-0.1-0.6-0.3-0.8-0.4c-0.2-0.1-0.4-0.2-0.7-0.3c1-0.5,2-1.1,3-1.6c1.4-0.8,2.8-1.5,4-2.1
			C19.6,33.3,20.8,32.5,20.8,32.5z"/>

			<linearGradient id="SVGID_00000046305305431690378870000013131926835242149004_" gradientUnits="userSpaceOnUse" x1="15.9877" y1="3.08" x2="15.9877" y2="11.1798" gradientTransform="matrix(1 0 0 -1 0 42)">
			<stop  offset="2.000000e-02" style="stop-color:#FF7288"/>
			<stop  offset="0.97" style="stop-color:#FF11A1"/>
		</linearGradient>
		<path style="fill-rule:evenodd;clip-rule:evenodd;fill:url(#SVGID_00000046305305431690378870000013131926835242149004_);" d="
			M21.6,30.8l-0.4,0.9l0,0l0,0.1l0,0.1l-0.3,0.7c-0.1,0.2-0.2,0.5-0.3,0.7c0,0,0,0.1,0,0.1l0,0c-0.1,0-1.2,0.6-2,2.2l0,0
			c-0.1,0.1-0.1,0.3-0.2,0.4c0,0.1-0.1,0.1-0.1,0.2l0,0l-0.1,0.2v0l0,0.1c-0.8,1.3-2.2,1.9-4.4,2.2c-0.3,0-0.7,0.1-1,0.1l-0.4-0.2
			c-0.3-0.1-0.6-0.3-0.8-0.4c-0.2-0.1-0.4-0.2-0.7-0.3l-0.2-0.1l-0.2-0.1l0.4-0.3c1.7-1.1,3-3,4.2-4.2l0,0c0,0,0.1-0.1,0.1-0.1
			c0.3-0.3,0.6-0.6,1-0.8l0,0l0.1-0.1l0,0l0.2-0.1c0.7-0.4,1.5-0.7,2.3-0.9l0,0l0.4-0.1c0.5-0.1,1.1-0.2,1.6-0.3l0,0
			C21.2,30.8,21.5,30.8,21.6,30.8L21.6,30.8z"/>

			<linearGradient id="SVGID_00000010286537023758580280000012971305033507989925_" gradientUnits="userSpaceOnUse" x1="17.4278" y1="1.843" x2="17.4278" y2="12.7355" gradientTransform="matrix(1 0 0 -1 0 42)">
			<stop  offset="0" style="stop-color:#FFFFFF"/>
			<stop  offset="0.99" style="stop-color:#943BAC"/>
		</linearGradient>

			<path style="opacity:0.79;fill-rule:evenodd;clip-rule:evenodd;fill:url(#SVGID_00000010286537023758580280000012971305033507989925_);enable-background:new    ;" d="
			M22.6,29.3l0,0.1l0,0.2l0,0.1v0.1l-0.2,0.4l-0.1,0.1l-1,1.5l0,0l0,0.1l0,0.1l-0.3,0.7l0,0l-0.3,0.7c0,0,0,0.1,0,0.1l0,0l-0.2,0.6
			l0,0c-0.2,0.1-0.3,0.2-0.5,0.3l0,0l0,0h0l0,0l-0.1,0l0,0l-0.1,0.1l0,0c0,0,0,0,0,0c0,0,0,0,0,0l0,0l0,0c-0.1,0.1-0.3,0.3-0.4,0.5
			l0,0c0,0,0,0.1-0.1,0.1l-0.1,0.1c0,0.1-0.1,0.1-0.2,0.2l0,0c-0.4,0.8-0.7,1.6-1,2.4c-0.2,0.6-0.4,1.4-0.6,2.2l-0.5,0
			c-1.2-0.2-2.3-0.5-3.5-0.9c-0.2-0.1-0.4-0.1-0.6-0.2l-0.4-0.2c0.7-0.1,1.3-0.2,1.9-0.3c0.5-0.1,1.1-0.3,1.5-0.6
			c0.5-0.4,0.9-0.9,1.2-1.4c0.4-0.6,0.6-1.4,0.8-2.1c0.1-0.6,0-1.1-0.2-1.2l0,0c-0.7-0.5-2.2,0.2-2.2,0.2c-0.1,0-0.1,0.1-0.2,0.1
			c0,0,0.1-0.1,0.1-0.1c0.3-0.3,0.6-0.6,1-0.8c-0.3,0-0.7,0-1,0l0,0c0,0,0,0,0,0c0,0,0,0,0,0c0,0,0-0.1-0.1-0.1
			c-0.2-0.1-0.3-0.1-0.5-0.1c-0.5,0-1,0-1.5,0.1c0.4-0.2,0.8-0.3,1.2-0.4c1.3-0.3,2.7-0.4,3.9-0.5c0.2,0,0.4-0.1,0.6-0.1l0,0
			c0.1,0,0.2,0,0.3-0.1l0,0c0.3-0.1,0.6-0.1,0.9-0.3c0.9-0.3,1.6-0.8,2.3-1.4L22.6,29.3z"/>

			<linearGradient id="SVGID_00000026144424306152677310000011823364408579088020_" gradientUnits="userSpaceOnUse" x1="18.7459" y1="1.6712" x2="18.7459" y2="7.7469" gradientTransform="matrix(1 0 0 -1 0 42)">
			<stop  offset="2.000000e-02" style="stop-color:#5BC9EC"/>
			<stop  offset="0.97" style="stop-color:#84A1FF"/>
		</linearGradient>
		<path style="fill-rule:evenodd;clip-rule:evenodd;fill:url(#SVGID_00000026144424306152677310000011823364408579088020_);" d="
			M18.4,38.8c0.1,0.5,0.2,1,0.3,1.5c-0.2,0-0.5,0-0.7-0.1c0-0.9-0.2-1.6-0.2-2.3c0-0.5,0.1-1,0.3-1.4c0,0,0,0,0-0.1v0l0.2-0.3
			c0.1-0.2,0.3-0.5,0.4-0.7l0.2-0.2l0.1-0.1c0,0,0-0.1,0.1-0.1l0,0c0.2-0.2,0.3-0.4,0.4-0.5l0,0l0,0l0,0c0,0,0,0,0,0l0,0l0.1-0.1
			l0,0l0.1,0l0,0h0l0,0l0,0l0,0C19.8,34.3,17.9,36.6,18.4,38.8z"/>

			<linearGradient id="SVGID_00000168100931973776207820000018160741445718534324_" gradientUnits="userSpaceOnUse" x1="14.6413" y1="22.4503" x2="14.6413" y2="29.0726" gradientTransform="matrix(1 0 0 -1 0 42)">
			<stop  offset="2.000000e-02" style="stop-color:#FF7288"/>
			<stop  offset="0.97" style="stop-color:#FF11A1"/>
		</linearGradient>
		<path style="fill-rule:evenodd;clip-rule:evenodd;fill:url(#SVGID_00000168100931973776207820000018160741445718534324_);" d="
			M16.5,15.4c-1.8,1.5-2.6,4.2-2.6,4.2l0,0v0c-0.2-0.3-1.8-2.9-0.9-4.2c0.1-0.1,0.2-0.2,0.3-0.3c0.7-0.5,1.4-1.1,1.9-1.8
			c0.1-0.1,0.1-0.2,0.1-0.2l0.7,1.5L16.5,15.4z"/>

			<linearGradient id="SVGID_00000084499696632560446020000005557516382466658690_" gradientUnits="userSpaceOnUse" x1="14.771" y1="22.4503" x2="14.771" y2="28.8883" gradientTransform="matrix(1 0 0 -1 0 42)">
			<stop  offset="0" style="stop-color:#FFFFFF"/>
			<stop  offset="0.99" style="stop-color:#8259AC"/>
		</linearGradient>

			<path style="opacity:0.79;fill-rule:evenodd;clip-rule:evenodd;fill:url(#SVGID_00000084499696632560446020000005557516382466658690_);enable-background:new    ;" d="
			M16.5,15.4c-1.8,1.5-2.6,4.2-2.6,4.2l0,0v0c-0.1-0.1-0.3-0.7,0-2c0.3-1.5,1.2-2.9,0.5-2.9c-0.5,0.1-1,0.3-1.5,0.7
			c0.1-0.1,0.2-0.2,0.3-0.3c0.7-0.5,1.4-1.1,1.9-1.8l0.8,1.3L16.5,15.4z"/>

			<linearGradient id="SVGID_00000117673799469048857580000018170899911803461251_" gradientUnits="userSpaceOnUse" x1="26.8797" y1="1.6149" x2="26.8797" y2="20.6354" gradientTransform="matrix(1 0 0 -1 0 42)">
			<stop  offset="2.000000e-02" style="stop-color:#E4DEEC"/>
			<stop  offset="1" style="stop-color:#CFBFEB"/>
		</linearGradient>
		<path style="fill-rule:evenodd;clip-rule:evenodd;fill:url(#SVGID_00000117673799469048857580000018170899911803461251_);" d="
			M34.6,34.3l-0.3,0.3c-1,1-2.1,1.9-3.3,2.7l-0.2,0.1l-0.2,0.1l0,0c-1.1,0.7-2.3,1.3-3.6,1.7c-0.2,0.1-0.5,0.2-0.7,0.3
			c-2,0.6-4.1,1-6.1,1c-0.2,0-0.5,0-0.7,0c-0.3-1-0.3-2.1-0.2-3.2c0.1-1.1,0.3-1.6,1-3.3l0,0c0.1-0.2,0.2-0.4,0.2-0.6l0,0
			c0,0,0-0.1,0-0.1c0.1-0.2,0.2-0.5,0.3-0.7l0.3-0.7l0-0.1l0-0.1c0.1-0.3,0.3-0.6,0.4-0.9c0.1-0.3,0.2-0.4,0.3-0.6
			c0.1-0.2,0.1-0.4,0.1-0.4c0.1,0,0.2-0.1,0.4-0.1l0,0l0.2-0.1h0c0.3-0.1,0.5-0.2,0.7-0.3l0,0c1.6-0.8,3-2,4.1-3.4l0,0
			c0.7-0.9,1.4-1.8,1.9-2.8l0,0c0.3-0.6,0.6-1.2,0.9-1.8c0,0,0.1,0.2,0.3,0.7c0,0,0,0.1,0.1,0.2l0,0c0,0.1,0,0.1,0.1,0.2
			c0.3,0.7,0.7,1.8,1.1,3c0,0.1,0.1,0.3,0.1,0.4l0,0c0.1,0.3,0.2,0.6,0.3,0.9c0,0,0,0,0,0.1c0.1,0.2,0.1,0.3,0.2,0.5c0,0,0,0,0,0.1
			c0.1,0.2,0.1,0.4,0.2,0.6c0.2,0.6,0.4,1.3,0.6,1.9s0.4,1.2,0.6,1.8c0.3,0.9,0.5,1.8,0.7,2.5C34.5,34.1,34.6,34.2,34.6,34.3z"/>
		<path class="st11" d="M21.9,30.2c2.2,0.1,4.4,0.1,6.5,0c2.7-0.2,3.6-5,3.6-5l-1.2-3.4L21.9,30.2z"/>

			<linearGradient id="SVGID_00000055684985630782466420000000750061027167441031_" gradientUnits="userSpaceOnUse" x1="27.7205" y1="2.8239" x2="27.7205" y2="20.6354" gradientTransform="matrix(1 0 0 -1 0 42)">
			<stop  offset="0" style="stop-color:#FFFFFF"/>
			<stop  offset="0.99" style="stop-color:#8259AC"/>
		</linearGradient>

			<path style="opacity:0.58;fill-rule:evenodd;clip-rule:evenodd;fill:url(#SVGID_00000055684985630782466420000000750061027167441031_);enable-background:new    ;" d="
			M34.6,34.3l-0.3,0.3c-1,1-2.1,1.9-3.3,2.7l-0.2,0.1l-0.2,0.1l0,0c-1.1,0.7-2.3,1.3-3.6,1.7c0.4-0.9,0.8-1.7,1.2-2.5
			c0.7-1.4,1.3-2.4,1.3-2.4c-4.1,0.9-8.7-1.7-8.7-1.7l0.3-0.7l0-0.1l0-0.1c0.1-0.3,0.3-0.6,0.4-0.9c0.1-0.3,0.2-0.4,0.3-0.6
			c0.1-0.2,0.1-0.4,0.1-0.4c0.1,0,0.2-0.1,0.4-0.1l0,0l0.2-0.1h0c0.3-0.1,0.5-0.2,0.7-0.3l0,0c1.6-0.8,3-2,4.1-3.4l0,0
			c0.7-0.9,1.4-1.8,1.9-2.8l0,0c0.3-0.6,0.6-1.2,0.9-1.8c0,0,0.1,0.2,0.3,0.7c0,0,0,0.1,0.1,0.2l0,0c0,0.1,0,0.1,0.1,0.2
			c0.3,0.7,0.7,1.8,1.1,3c0,0.1,0.1,0.3,0.1,0.4l0,0c0.1,0.3,0.2,0.6,0.3,0.9c0,0,0,0,0,0.1c0.1,0.2,0.1,0.3,0.2,0.5c0,0,0,0,0,0.1
			c0.1,0.2,0.1,0.4,0.2,0.6c0.2,0.6,0.4,1.3,0.6,1.9s0.4,1.2,0.6,1.8c0.3,0.9,0.5,1.8,0.7,2.5C34.5,34.1,34.6,34.2,34.6,34.3z"/>

			<linearGradient id="SVGID_00000013902327223051004840000017860548423041200029_" gradientUnits="userSpaceOnUse" x1="21.5972" y1="9.5742" x2="21.5972" y2="29.4235" gradientTransform="matrix(1 0 0 -1 0 42)">
			<stop  offset="0" style="stop-color:#CFBFEB"/>
			<stop  offset="0.98" style="stop-color:#E4DEEC"/>
		</linearGradient>
		<path style="fill-rule:evenodd;clip-rule:evenodd;fill:url(#SVGID_00000013902327223051004840000017860548423041200029_);" d="
			M27.9,28.6c-1.7,1.1-5.1,1.2-6,1.6c-0.9,0.3-2.6,1.9-3.5,2.1c-0.6,0.1-1.3,0.1-1.9-0.1c0,0-1.1,0.2-1.5,0
			c-0.4-0.2-2.4-2.2-2.5-3.9c-0.1-1.5,1.9-3,2-3.7s-0.6-3.6-0.4-5.3s2.6-5.3,6-6.3c4.7-1.4,9.4,0.2,10.4,4.4S29.8,27.4,27.9,28.6z"
			/>

			<linearGradient id="SVGID_00000148660507584924786080000001713712618952729268_" gradientUnits="userSpaceOnUse" x1="22.3817" y1="9.5742" x2="22.3817" y2="29.411" gradientTransform="matrix(1 0 0 -1 0 42)">
			<stop  offset="0" style="stop-color:#CAD6FF"/>
			<stop  offset="0.99" style="stop-color:#9775BA"/>
		</linearGradient>

			<path style="opacity:0.58;fill-rule:evenodd;clip-rule:evenodd;fill:url(#SVGID_00000148660507584924786080000001713712618952729268_);enable-background:new    ;" d="
			M27.9,28.6c-1.7,1.1-5.1,1.2-6,1.6c-0.9,0.3-2.6,1.9-3.5,2.1c-0.6,0.1-1.3,0.1-1.9-0.1c0,0-1.1,0.2-1.5,0c3.2-0.3,4.5-2.1,5.2-2.6
			c0.7-0.5,5.5,0.1,6.5-1.4s1.9-6.1-0.2-8.1s-8.1-2.4-10-2.1c-0.9,0.2-1.8,0.7-2.4,1.4c0.2-1.7,2.6-5.3,6-6.3
			c4.7-1.4,9.4,0.2,10.4,4.4S29.8,27.4,27.9,28.6z"/>

			<linearGradient id="SVGID_00000139985750638969796990000010805255229617230511_" gradientUnits="userSpaceOnUse" x1="110.3883" y1="66.0146" x2="110.3883" y2="79.4873" gradientTransform="matrix(0.99 0.15 0.14 -0.93 -103.05 61.01)">
			<stop  offset="0" style="stop-color:#FF8757"/>
			<stop  offset="0.98" style="stop-color:#FFB34C"/>
		</linearGradient>
		<path style="fill:url(#SVGID_00000139985750638969796990000010805255229617230511_);" d="M20.3,14.8c-0.9,1.3-2.6,1.9-4.2,1.6
			c-0.8-0.8-1.1-1.9-1-3.1l0-0.2c0,0-1.8-1-1.2-4c0,0-1.7-3.1-1.2-6.1l0,0C13.1,3.2,15,4.6,15,6.1c0,0,3.3,1.6,2.4,4.2
			C17.5,10.3,20.3,12.6,20.3,14.8z"/>

			<linearGradient id="SVGID_00000136372351710125883060000014427842760833055409_" gradientUnits="userSpaceOnUse" x1="110.4075" y1="66.0146" x2="110.4075" y2="79.4654" gradientTransform="matrix(0.99 0.15 0.14 -0.93 -103.05 61.01)">
			<stop  offset="0" style="stop-color:#FFFFFF"/>
			<stop  offset="0.99" style="stop-color:#B10BAC"/>
		</linearGradient>

			<path style="opacity:0.79;fill-rule:evenodd;clip-rule:evenodd;fill:url(#SVGID_00000136372351710125883060000014427842760833055409_);enable-background:new    ;" d="
			M20.3,14.8c-0.9,1.3-2.6,1.9-4.2,1.6c0,0,3.2-1.5,3-3.1s-1.5-2.2-2.1-2.1c-0.6,0.1-1.9,2.1-1.9,2.1l0-0.2c0,0,2-2.5,1.8-3.7
			C16.8,8,15.5,6.8,15.1,7c-0.4,0.2-1,1.9-1.1,2.1c0.1-0.3,0.8-2.8,0.6-3.9s-1.5-2-1.7-2.2C13.1,3.2,15,4.5,15,6.1
			c0,0,3.3,1.6,2.4,4.2C17.5,10.3,20.3,12.6,20.3,14.8z"/>

			<linearGradient id="SVGID_00000101102969755092436840000008864831498313023878_" gradientUnits="userSpaceOnUse" x1="-31.2327" y1="-68.9938" x2="-31.2327" y2="-60.5581" gradientTransform="matrix(0.9941 -0.1082 -0.1082 -0.9941 53.3005 -54.6744)">
			<stop  offset="2.000000e-02" style="stop-color:#E4DEEC"/>
			<stop  offset="1" style="stop-color:#CFBFEB"/>
		</linearGradient>
		<path style="fill-rule:evenodd;clip-rule:evenodd;fill:url(#SVGID_00000101102969755092436840000008864831498313023878_);" d="
			M25.6,14.2c0,0,0.5-0.2,1-1.4s2.9-4.1,6.1-4.3c0,0-0.6,3.7-1.1,5.7c-0.5,2-2.5,3.1-3.2,3.2C27.7,17.5,25.4,17.4,25.6,14.2z"/>

			<linearGradient id="SVGID_00000165196700878352321390000000776045131401298316_" gradientUnits="userSpaceOnUse" x1="23.9083" y1="24.0177" x2="23.9083" y2="34.2363" gradientTransform="matrix(1 0 0 -1 0 42)">
			<stop  offset="2.000000e-02" style="stop-color:#A272EC"/>
			<stop  offset="0.97" style="stop-color:#D36FFF"/>
		</linearGradient>
		<path style="fill-rule:evenodd;clip-rule:evenodd;fill:url(#SVGID_00000165196700878352321390000000776045131401298316_);" d="
			M28.4,17.6c-2.5,1.1-8-0.5-8.6-2.4c-0.2-0.5-0.3-1.1-0.3-1.7c-0.2-2,0-4.6,1-5.2c1.3-0.8,2.9-0.6,2.9-0.6c1.5,1.7,3.1,3.4,3.3,3.6
			C26.5,11.2,25,10,24.9,10s-1.5,1.5-0.4,4.5C25,16.2,26.6,17.5,28.4,17.6z"/>

			<linearGradient id="SVGID_00000095299308201802861960000007081926017710553736_" gradientUnits="userSpaceOnUse" x1="25.3758" y1="25.6583" x2="25.3758" y2="32.5649" gradientTransform="matrix(1 0 0 -1 0 42)">
			<stop  offset="2.000000e-02" style="stop-color:#5B72EC"/>
			<stop  offset="0.97" style="stop-color:#84A1FF"/>
		</linearGradient>
		<path style="fill-rule:evenodd;clip-rule:evenodd;fill:url(#SVGID_00000095299308201802861960000007081926017710553736_);" d="
			M27.2,11.8c0,0-1.2-1.3-2.4-2.3s-2.4,4.3,0.8,6.8c0,0-1-4.1-0.2-4.8c0.8-0.7,1.6,0.6,1.6,0.6L27.2,11.8z"/>

			<linearGradient id="SVGID_00000023994941111388873540000014653003565590339775_" gradientUnits="userSpaceOnUse" x1="12.5612" y1="23.8903" x2="12.5612" y2="28.7633" gradientTransform="matrix(1 0 0 -1 0 42)">
			<stop  offset="2.000000e-02" style="stop-color:#FFA451"/>
			<stop  offset="0.97" style="stop-color:#FF515E"/>
		</linearGradient>
		<path style="fill-rule:evenodd;clip-rule:evenodd;fill:url(#SVGID_00000023994941111388873540000014653003565590339775_);" d="
			M15.1,13.2c0,0-0.2,0.5-2.7,1c-2.5,0.5-2.6,2.3-2.3,3.9c0,0,0.3-1.9,1.9-2.6S14.9,14.4,15.1,13.2z"/>

			<linearGradient id="SVGID_00000180355135600959210410000005842215066649691272_" gradientUnits="userSpaceOnUse" x1="35.9515" y1="9.29" x2="35.9515" y2="9.568" gradientTransform="matrix(1 0 0 -1 0 42)">
			<stop  offset="2.000000e-02" style="stop-color:#FFA451"/>
			<stop  offset="0.97" style="stop-color:#FF515E"/>
		</linearGradient>
		<path style="fill-rule:evenodd;clip-rule:evenodd;fill:url(#SVGID_00000180355135600959210410000005842215066649691272_);" d="
			M36,32.6L36,32.6l-0.1,0.1C35.9,32.6,36,32.5,36,32.6l0-0.1L36,32.6z"/>
		<path class="st22" d="M27.2,11.8c0,0-1-1-1.7-1c-1,0-0.1,4.5-0.1,4.5S26.3,13,27.2,11.8z"/>

			<linearGradient id="SVGID_00000086693032775864367390000017121552151503735722_" gradientUnits="userSpaceOnUse" x1="31.1423" y1="2.5708" x2="31.1423" y2="18.5237" gradientTransform="matrix(1 0 0 -1 0 42)">
			<stop  offset="3.000000e-02" style="stop-color:#D36FFF"/>
			<stop  offset="0.98" style="stop-color:#A240EC"/>
		</linearGradient>
		<path style="fill-rule:evenodd;clip-rule:evenodd;fill:url(#SVGID_00000086693032775864367390000017121552151503735722_);" d="
			M36,32.5v0.1l-0.1,0.1l0,0c-0.3,0.4-0.6,0.7-0.9,1l0,0c-0.1,0.2-0.3,0.3-0.4,0.5l-0.3,0.3c-1,1-2.1,1.9-3.3,2.7l-0.2,0.1l-0.2,0.1
			l0,0c-1.1,0.7-2.3,1.3-3.6,1.7c-0.2,0.1-0.5,0.2-0.7,0.3c0.1-0.3,0.2-0.5,0.4-0.8c0.4-0.7,1-1.4,1.6-2c0.8-0.8,1.6-1.6,2.4-2.5
			l0,0c0.8-0.9,1.5-1.9,1.7-3c0.2-0.8,0.3-1.6,0.3-2.4c0-0.3,0-0.6,0-0.9c0-0.4-0.1-0.7-0.1-1.1l0,0l0-0.1c0,0,0-0.1,0-0.1
			c0-0.2-0.1-0.4-0.1-0.5l0.1-1.1l0,0l0.2-1.5l0,0c0,0,0.3,0.4,0.7,1c0.3,0.4,0.6,1,1,1.6c0.7,1.2,1.2,2.5,1.5,3.9
			C36,30.8,36,31.6,36,32.5z"/>

			<linearGradient id="SVGID_00000140006754575370852900000005667435160595124644_" gradientUnits="userSpaceOnUse" x1="31.9204" y1="4.545" x2="31.9204" y2="16.2965" gradientTransform="matrix(1 0 0 -1 0 42)">
			<stop  offset="2.000000e-02" style="stop-color:#FF7288"/>
			<stop  offset="0.97" style="stop-color:#FF11A1"/>
		</linearGradient>
		<path style="fill-rule:evenodd;clip-rule:evenodd;fill:url(#SVGID_00000140006754575370852900000005667435160595124644_);" d="
			M33.3,29.8c-0.1,3.3-1.7,6.2-2.5,7.5l-0.2,0.1l0,0c0.2-0.7,0.2-1.4,0.1-2.1c0-0.4-0.1-0.8-0.1-1.1c0-1.1,0.1-2.3,0.3-3.4
			c0,0,0,0,0,0l0,0l0,0l0,0l0.1-0.2l0,0v0l0.1-0.2l0,0c0.1-0.1,0.1-0.2,0.2-0.4c0,0,0,0,0,0l0,0l0-0.1l0,0c0.4-0.8,0.7-1.7,0.9-2.6
			c0-0.2,0.1-0.3,0.1-0.5c0-0.1,0-0.1,0-0.2c0-0.3,0.1-0.6,0.1-0.8l0,0v-0.1l0,0c0.1,0.2,0.2,0.5,0.3,0.7
			C33.1,27.5,33.3,28.7,33.3,29.8z"/>

			<linearGradient id="SVGID_00000145051755635144432050000008234739863937010347_" gradientUnits="userSpaceOnUse" x1="30.5384" y1="8.6965" x2="30.5384" y2="25.6677" gradientTransform="matrix(1 0 0 -1 0 42)">
			<stop  offset="3.000000e-02" style="stop-color:#84A1FF"/>
			<stop  offset="0.98" style="stop-color:#5B72EC"/>
		</linearGradient>
		<path style="fill-rule:evenodd;clip-rule:evenodd;fill:url(#SVGID_00000145051755635144432050000008234739863937010347_);" d="
			M32.6,25.7L32.6,25.7c0,0.3-0.1,0.6-0.1,1c-0.2,1.1-0.5,2.1-1,3.1l0,0.1c-0.1,0.1-0.1,0.3-0.2,0.4l-0.1,0.3c0,0.1-0.1,0.1-0.1,0.2
			l0,0l0,0c-0.6,1-1.5,1.9-2.5,2.5l0,0c0.1-0.2,2.8-5.9,2.4-9.4c-0.1-0.9-0.2-1.9-0.3-2.7l0-0.2c-0.3-2.1-0.5-3.7-0.6-4.1v-0.1
			l0.4-0.4c0,0,1.1,4.7,2,6.2c0.2,0.3,0.3,0.6,0.3,1C32.7,24.2,32.7,25,32.6,25.7z"/>
		<path class="st26" d="M20.3,25.1c0.9,0.3,1.8,0.3,2.7,0.1c1.5-0.3,1.8-2,1.8-2C23.4,24.1,21.9,24.8,20.3,25.1z"/>
		<path class="st26" d="M19.4,22.2c0.2-0.8,0.7-1.4,1.3-1.9c1.1-0.7,3.6,0,4,1.6C24.8,22,21.2,21.7,19.4,22.2z"/>

			<linearGradient id="SVGID_00000011734972382620706760000017629228280122147223_" gradientUnits="userSpaceOnUse" x1="22.095" y1="16.8052" x2="22.095" y2="21.2051" gradientTransform="matrix(1 0 0 -1 0 42)">
			<stop  offset="0" style="stop-color:#FFFFFF"/>
			<stop  offset="1" style="stop-color:#BDBFFF"/>
		</linearGradient>
		<path style="fill-rule:evenodd;clip-rule:evenodd;fill:url(#SVGID_00000011734972382620706760000017629228280122147223_);" d="
			M19.7,24.8c0.3,0.4,1.6,0.5,2.9,0.1s1.9-1.2,2-1.5c0.1-0.5,0.2-1,0.1-1.5c-0.5-0.7-1.3-1.1-2.2-1.2c-1.1-0.1-2.7,0.3-3.2,1.4
			C19.2,22.9,19.5,24.5,19.7,24.8z"/>

			<linearGradient id="SVGID_00000082329687899361082600000013242570949365575080_" gradientUnits="userSpaceOnUse" x1="22.5991" y1="17.2118" x2="22.5991" y2="21.3164" gradientTransform="matrix(1 0 0 -1 0 42)">
			<stop  offset="1.000000e-02" style="stop-color:#634F90"/>
			<stop  offset="1" style="stop-color:#3B0643"/>
		</linearGradient>
		<circle style="fill:url(#SVGID_00000082329687899361082600000013242570949365575080_);" cx="22.6" cy="22.7" r="2.1"/>
		<circle class="st29" cx="22.7" cy="22.7" r="1.5"/>
		<path class="st30" d="M19.4,22.5c0,0,0.2-1.1,2.2-1.4c1.2-0.2,2.4,0.2,3.2,1c0.5-0.2,1-0.5,1.4-1c0,0-0.9,0.5-1.6,0.3
			c-0.9-0.6-2-0.8-3.1-0.6C20.5,20.9,19.7,21.6,19.4,22.5z"/>
		<path class="st31" d="M19.5,24.2c0,0,0,0.9,0.2,0.9c0.4,0,0.7,0,1.1,0C20.7,25.2,19.8,25.1,19.5,24.2z"/>
		<path class="st32" d="M20.9,23.4c0,0.1-0.1,0.2-0.2,0.2c-0.1,0-0.2-0.1-0.2-0.2c0-0.1,0.1-0.2,0.2-0.2
			C20.8,23.1,20.9,23.2,20.9,23.4z"/>

			<linearGradient id="SVGID_00000049927490692480364910000017466234228053808044_" gradientUnits="userSpaceOnUse" x1="19.407" y1="23.7649" x2="23.5833" y2="23.7649" gradientTransform="matrix(1 0 0 -1 0 42)">
			<stop  offset="2.000000e-02" style="stop-color:#FF7288"/>
			<stop  offset="0.97" style="stop-color:#FF11A1"/>
		</linearGradient>
		<path style="fill-rule:evenodd;clip-rule:evenodd;fill:url(#SVGID_00000049927490692480364910000017466234228053808044_);" d="
			M19.8,17.7c-0.4,0-0.5,0.7-0.1,0.9c0.5,0.2,2.3,0,2.7,0s1.1,0.2,1.2,0.1C23.7,18.7,21.7,17.6,19.8,17.7z"/>
		<path class="st34" d="M20.1,29.7c-0.3,0.5-0.6,1-0.9,1.4l0,0c0,0-0.1,0.1-0.1,0.1c-0.2,0.3-0.5,0.5-0.8,0.7
			c-0.5,0.3-1.1,0.4-1.6,0.4c-0.2,0-0.4,0-0.6,0l0,0c-0.3,0-0.7,0-1,0c0,0-0.1,0-0.1-0.1l0,0h0.2c0.4,0,0.8,0,1.2-0.1
			c0.4-0.1,0.8-0.2,1.2-0.3c0.4-0.1,0.8-0.4,1.1-0.6l0,0c0.1-0.1,0.1-0.1,0.2-0.2l0,0C19.3,30.7,19.8,30.2,20.1,29.7z"/>
		<path class="st34" d="M15.6,28.8c0,0-0.1-0.6,0.1-0.8s1.1-0.2,1.1-0.2C16.3,27.8,15.8,28.2,15.6,28.8z"/>

			<linearGradient id="SVGID_00000124162390283909240940000010651877219805929863_" gradientUnits="userSpaceOnUse" x1="15.6051" y1="13.7556" x2="16.8671" y2="13.7556" gradientTransform="matrix(1 0 0 -1 0 42)">
			<stop  offset="1.000000e-02" style="stop-color:#9775BA"/>
			<stop  offset="1" style="stop-color:#FFEADB"/>
		</linearGradient>

			<path style="opacity:0.58;fill-rule:evenodd;clip-rule:evenodd;fill:url(#SVGID_00000124162390283909240940000010651877219805929863_);enable-background:new    ;" d="
			M15.6,28.8c0,0,1.2,0.1,1.2-1C16.9,27.7,15.6,27.7,15.6,28.8z"/>

			<linearGradient id="SVGID_00000061457345201742883780000000372817420806635419_" gradientUnits="userSpaceOnUse" x1="12.4158" y1="15.5979" x2="18.5333" y2="15.5979" gradientTransform="matrix(1 0 0 -1 0 42)">
			<stop  offset="0" style="stop-color:#FFEADB"/>
			<stop  offset="0.99" style="stop-color:#000000"/>
		</linearGradient>

			<path style="opacity:0.58;fill-rule:evenodd;clip-rule:evenodd;fill:url(#SVGID_00000061457345201742883780000000372817420806635419_);enable-background:new    ;" d="
			M12.4,28.1c0,0,2.4-0.3,3.8-0.9c1.4-0.6,2.4-2.2,2.3-2.3c0-0.1-3.9,0-3.9,0S12.7,26.8,12.4,28.1z"/>

			<linearGradient id="SVGID_00000024705161327537525690000003497100309870391973_" gradientUnits="userSpaceOnUse" x1="23.9423" y1="24.0177" x2="23.9423" y2="34.2174" gradientTransform="matrix(1 0 0 -1 0 42)">
			<stop  offset="0" style="stop-color:#FFFFFF"/>
			<stop  offset="0.99" style="stop-color:#8259AC"/>
		</linearGradient>

			<path style="opacity:0.79;fill-rule:evenodd;clip-rule:evenodd;fill:url(#SVGID_00000024705161327537525690000003497100309870391973_);enable-background:new    ;" d="
			M28.4,17.6c-2.5,1.1-8-0.5-8.6-2.4c-0.2-0.5-0.3-1.1-0.3-1.7c0.5,4.1,4.4,3.4,4.4,3.4s-1.5-1.2-1.4-4c0.1-1.8,0.4-3.5,0.8-5.3
			c1.5,1.7,3.1,3.4,3.3,3.6c-0.2-0.2-1.8-1.7-1.9-1.7c-0.5,0.1-1.6,1.8-0.5,4.9C24.9,16.3,26.5,17.5,28.4,17.6z"/>

			<linearGradient id="SVGID_00000064349355616459624210000016032429204204804799_" gradientUnits="userSpaceOnUse" x1="29.1551" y1="24.5053" x2="29.1551" y2="32.4239" gradientTransform="matrix(1 0 0 -1 0 42)">
			<stop  offset="2.000000e-02" style="stop-color:#FF9FA6"/>
			<stop  offset="1" style="stop-color:#FF88C7"/>
		</linearGradient>
		<path style="fill-rule:evenodd;clip-rule:evenodd;fill:url(#SVGID_00000064349355616459624210000016032429204204804799_);" d="
			M31.9,12.2c-0.2,0.9-0.4,1.9-0.6,2.8c-0.3,0.9-2.1,2.7-3.8,2.5c-1.3-0.2-1.5-0.9-1.5-0.9s0.1-0.3,0.2-0.7c0,0,0,0,0,0
			c0.3-1.1,1-3.1,2.3-4.3c1.7-1.7,3.4-2.1,3.7-2C32.3,9.6,32.2,10.9,31.9,12.2z"/>

			<linearGradient id="SVGID_00000002367628156885601600000009683632676349690497_" gradientUnits="userSpaceOnUse" x1="29.2598" y1="26.1644" x2="29.2598" y2="32.4248" gradientTransform="matrix(1 0 0 -1 0 42)">
			<stop  offset="0" style="stop-color:#CAD6FF"/>
			<stop  offset="0.99" style="stop-color:#9775BA"/>
		</linearGradient>

			<path style="opacity:0.58;fill-rule:evenodd;clip-rule:evenodd;fill:url(#SVGID_00000002367628156885601600000009683632676349690497_);enable-background:new    ;" d="
			M31.9,12.2c-0.1-0.3-0.5-1.1-0.9-1.1c-0.6-0.1-3.5,1.7-4.7,4.8c0.3-1.1,1-3.1,2.3-4.3c1.7-1.7,3.4-2.1,3.7-2
			C32.3,9.6,32.2,10.9,31.9,12.2z"/>

			<linearGradient id="SVGID_00000126319284112348170900000003443597800086624159_" gradientUnits="userSpaceOnUse" x1="32.2327" y1="4.5482" x2="32.2327" y2="25.6646" gradientTransform="matrix(1 0 0 -1 0 42)">
			<stop  offset="0" style="stop-color:#FFFFFF"/>
			<stop  offset="0.99" style="stop-color:#8259AC"/>
		</linearGradient>

			<path style="opacity:0.79;fill-rule:evenodd;clip-rule:evenodd;fill:url(#SVGID_00000126319284112348170900000003443597800086624159_);enable-background:new    ;" d="
			M36,32.6L36,32.6l-0.1,0.1l0,0c-0.3,0.4-0.6,0.7-0.9,1c0.4-1.7,0.5-3.3,0-3.3c-0.4,0-0.9,0.6-1.2,1.2c-0.3,0.4-0.5,0.9-0.7,1.3
			c-0.5,1.5-1.2,3-2.1,4.3l-0.2,0.1l-0.2,0.1c0.7-1.4,1.2-2.9,1.7-4.4c0.8-2.7,0.8-4.3,0.4-4.3c-0.4,0-1.4,1.6-1.6,2l0,0v0l0,0l0,0
			l0,0l0,0l0,0v0l0,0l0,0c-0.6,1.1-1.4,1.9-2.5,2.5l0,0l0,0h0c1.8-1.4,3.4-4.2,3.8-6.6c0,0,0-0.1,0-0.1c0.1-0.5,0.1-1.1,0.1-1.6l0,0
			c-0.1-1.3-0.7-2.6-1.6-3.6l0,0c-0.1-0.1-0.2-0.2-0.3-0.3l0-0.2l-0.6-4l0,0l0-0.2l0,0l0,0l0.3-0.2l0.1-0.1l0,0l0.1,0l0,0l0,0l0,0
			l0,0l0,0l0,0c0,0,0,0,0,0l0,0l0,0c0,0,0,0,0,0c0,0,0,0,0,0c0,0,0,0,0,0l0,0.1c0,0,0,0,0,0.1c0,0,0,0,0,0.1c0,0,0,0.1,0,0.1
			s0,0,0,0l0,0v0l0,0c0,0,0,0.1,0,0.1c0,0,0,0,0,0c0,0,0,0,0,0.1c0,0,0,0,0,0.1c0,0,0,0,0,0.1c0,0,0,0,0,0.1c0,0.1,0.1,0.2,0.1,0.4
			c0,0,0,0.1,0,0.1s0,0.1,0.1,0.2c0,0.1,0,0.1,0,0.1s0,0.1,0,0.2s0,0.1,0,0.1l0,0.1c0,0,0,0.1,0,0.1c0,0.1,0,0.2,0.1,0.2
			s0,0.1,0,0.1s0,0.1,0,0.1c0,0,0,0.1,0,0.1c0,0,0,0.1,0.1,0.2c0,0,0,0,0,0.1c0,0.1,0,0.1,0.1,0.2v0c0,0,0,0.1,0,0.1s0,0.1,0,0.1
			l0,0.1c0,0,0,0.1,0,0.1l0,0l0,0l0,0l0,0c0,0,0,0,0,0c0,0,0,0,0,0.1c0,0,0,0.1,0,0.1v0l0,0.1l0,0.1c0,0,0,0,0,0.1l0,0.1
			c0,0,0,0.1,0,0.1s0,0,0,0.1s0,0.1,0.1,0.2l0,0l0,0.1v0c0,0,0,0.1,0,0.1l0.1,0.2c0,0.1,0,0.1,0.1,0.2s0,0.1,0,0.1c0,0,0,0,0,0
			l0,0.1c0,0,0,0.1,0,0.1c0,0,0,0,0,0.1l0,0.1l0,0.1l0,0c0,0,0,0,0,0c0,0,0,0,0,0.1l0,0.1l0,0c0,0,0,0,0,0l0,0l0,0.1c0,0,0,0,0,0
			l0,0l0,0c0,0,0,0,0,0c0,0,0,0,0,0v0v0c0,0,0,0,0,0c0,0,0,0,0,0l0,0v0l0,0.1l0,0c0,0,0,0,0,0.1l0,0.1c0,0,0,0,0,0.1
			c0,0.1,0,0.2,0.1,0.3c0,0,0.3,0.4,0.7,1c0.3,0.4,0.6,1,1,1.6c0.7,1.2,1.2,2.5,1.5,3.9c0.2,0.8,0.2,1.7,0.2,2.6l0-0.1L36,32.6z"/>

			<linearGradient id="SVGID_00000124842475968588439780000005149485103238737060_" gradientUnits="userSpaceOnUse" x1="31.976" y1="12.4824" x2="31.976" y2="21.9473" gradientTransform="matrix(1 0 0 -1 0 42)">
			<stop  offset="2.000000e-02" style="stop-color:#5BC9EC"/>
			<stop  offset="0.97" style="stop-color:#84A1FF"/>
		</linearGradient>
		<path style="fill-rule:evenodd;clip-rule:evenodd;fill:url(#SVGID_00000124842475968588439780000005149485103238737060_);" d="
			M31.3,20.1c0.5,1.3,1.5,2.4,2.7,3c2.1,0.9,2.1,2.7-0.6,3.2c-2.7,0.5-5.1,3.2-5.1,3.2s1.1-2.5,2.8-3.8c1.2-0.9,2.8-1.3,2.6-1.9
			C33.7,23.3,31.9,23.4,31.3,20.1z"/>
		<path class="st42" d="M23.4,26.2c-0.3-0.3,1.7-2.2,2.4-2c0.7,0.2,0.3,1.7-0.5,2C24.5,26.6,23.7,26.5,23.4,26.2z"/>
		<path class="st32" d="M15.1,33.6c-0.3,1-0.8,2-1.4,2.9c-0.3,0.4-0.6,0.8-1,1.1c-0.4,0.3-0.9,0.6-1.3,0.8c-0.2-0.1-0.4-0.2-0.7-0.3
			l-0.2-0.1c0.4-0.3,0.8-0.5,1.2-0.9C13.6,35.8,15.1,33.6,15.1,33.6z"/>
		<path class="st32" d="M14.8,7.5c-0.2,0.8-0.3,1.6-0.4,2.4c-0.1,1.4,0.6,2.9,0.6,2.9S13.8,11.6,14,10C14.1,9.1,14.4,8.2,14.8,7.5z"
			/>
		<path class="st32" d="M12.8,3c0,0-0.3,3.5,1.2,6C14,9.1,13.6,4.9,12.8,3z"/>
		<path class="st32" d="M16.6,12c0,0-0.9,1-1.2,1.7c-0.2,0.7,0.3,1.8,0.3,1.8C15.7,14.2,16,13,16.6,12z"/>
		<path class="st32" d="M21.6,8.1c-0.5,0.1-1,0.4-1.4,0.8c-0.5,0.7-1.3,4.7,0.3,6.7c-0.5-1.6-0.6-3.3-0.3-4.9
			C20.8,8.2,21.6,8.1,21.6,8.1z"/>
		<path class="st32" d="M14,14.9c-0.5,0.1-0.9,0.6-0.9,1.2c-0.1,1,0.5,2.2,0.5,2.2C13.2,17.2,13.4,16,14,14.9z"/>
		<path class="st32" d="M14.3,19.5c0,0.5,0,1.1,0,1.6c0.1,1,0.4,3.3,0.4,3.6c-0.1,0.3-1.9,2.2-2.1,3.3c-0.2,1.1,1.9,3.4,1.9,3.4
			s-1.3-2.4-1.1-3.6c0.2-1.1,1.9-2.5,2-3.2C15.4,24,14.2,22.1,14.3,19.5z"/>
		<path class="st30" d="M24.1,21.5c0.6-0.2,1.1-0.6,1.4-1.1c-0.6,0.4-1.3,0.6-2,0.8L24.1,21.5z"/>
		<path class="st32" d="M35.4,31.4c-0.1,0.8-0.2,1.6-0.4,2.4c-0.1,0.2-0.3,0.3-0.4,0.5l-0.3,0.3c0.1-0.2,0.2-0.3,0.2-0.4
			C34.9,33.2,35.2,32.3,35.4,31.4z"/>
		<path class="st32" d="M14.2,9.1c0,0-0.3,1.1-0.2,1.6C14,10.7,14.9,10.3,14.2,9.1z"/>
		<path class="st32" d="M15.4,13.7c0.1-0.4,0.3-0.7,0.6-0.9C16,12.8,16.2,13.7,15.4,13.7z"/>
		<path class="st32" d="M13,3.1c0,0,0.6,1.1,0.5,2c0,0.5-0.1,1-0.3,1.4C13.2,6.5,12.6,4.7,13,3.1z"/>
		<path class="st43" d="M21.5,21.4l0.1,1.1c0.8,0.4,1.7,0.5,2.5,0.5l0.2-1.1C24.3,21.8,23.3,20.8,21.5,21.4z"/>
	</g>
</g>
</svg>
