<svg xmlns="http://www.w3.org/2000/svg" xmlns:xlink="http://www.w3.org/1999/xlink" width="127.53" height="53.12" viewBox="0 0 127.53 53.12"><defs><style>.cls-1{isolation:isolate;}.cls-10,.cls-11,.cls-12,.cls-13,.cls-14,.cls-15,.cls-17,.cls-18,.cls-19,.cls-2,.cls-20,.cls-21,.cls-22,.cls-23,.cls-24,.cls-25,.cls-26,.cls-27,.cls-28,.cls-3,.cls-31,.cls-32,.cls-33,.cls-34,.cls-35,.cls-36,.cls-37,.cls-38,.cls-39,.cls-4,.cls-40,.cls-41,.cls-42,.cls-43,.cls-44,.cls-5,.cls-6,.cls-7,.cls-8,.cls-9{fill-rule:evenodd;}.cls-2{fill:url(#linear-gradient);}.cls-3{fill:url(#_ÂÁ_Ï_ÌÌ_È_ËÂÌÚ_92);}.cls-4{fill:url(#_ÂÁ_Ï_ÌÌ_È_ËÂÌÚ_77);}.cls-5{fill:url(#_ÂÁ_Ï_ÌÌ_È_ËÂÌÚ_91);}.cls-6{fill:url(#_ÂÁ_Ï_ÌÌ_È_ËÂÌÚ_101);}.cls-10,.cls-12,.cls-13,.cls-15,.cls-17,.cls-36,.cls-38,.cls-40,.cls-41,.cls-7{mix-blend-mode:multiply;}.cls-10,.cls-17,.cls-38,.cls-41,.cls-7{opacity:0.79;}.cls-7{fill:url(#_ÂÁ_Ï_ÌÌ_È_ËÂÌÚ_146);}.cls-8{fill:url(#_ÂÁ_Ï_ÌÌ_È_ËÂÌÚ_2);}.cls-9{fill:url(#_ÂÁ_Ï_ÌÌ_È_ËÂÌÚ_101-2);}.cls-10{fill:url(#_ÂÁ_Ï_ÌÌ_È_ËÂÌÚ_139);}.cls-11{fill:url(#_ÂÁ_Ï_ÌÌ_È_ËÂÌÚ_4);}.cls-12{fill:#7c4f90;opacity:0.5;}.cls-13,.cls-15,.cls-36,.cls-37,.cls-40{opacity:0.58;}.cls-13{fill:url(#_ÂÁ_Ï_ÌÌ_È_ËÂÌÚ_139-2);}.cls-14{fill:url(#_ÂÁ_Ï_ÌÌ_È_ËÂÌÚ_5);}.cls-15{fill:url(#_ÂÁ_Ï_ÌÌ_È_ËÂÌÚ_127);}.cls-16{fill:url(#_ÂÁ_Ï_ÌÌ_È_ËÂÌÚ_213);}.cls-17{fill:url(#_ÂÁ_Ï_ÌÌ_È_ËÂÌÚ_156);}.cls-18{fill:url(#_ÂÁ_Ï_ÌÌ_È_ËÂÌÚ_4-2);}.cls-19{fill:url(#_ÂÁ_Ï_ÌÌ_È_ËÂÌÚ_56);}.cls-20{fill:url(#_ÂÁ_Ï_ÌÌ_È_ËÂÌÚ_46);}.cls-21{fill:url(#_ÂÁ_Ï_ÌÌ_È_ËÂÌÚ_77-2);}.cls-22{fill:url(#_ÂÁ_Ï_ÌÌ_È_ËÂÌÚ_77-3);}.cls-23{fill:#4f5195;}.cls-24{fill:url(#_ÂÁ_Ï_ÌÌ_È_ËÂÌÚ_91-2);}.cls-25{fill:url(#_ÂÁ_Ï_ÌÌ_È_ËÂÌÚ_101-3);}.cls-26{fill:url(#_ÂÁ_Ï_ÌÌ_È_ËÂÌÚ_92-2);}.cls-27{fill:#a19ddd;}.cls-28{fill:url(#_ÂÁ_Ï_ÌÌ_È_ËÂÌÚ_118);}.cls-29{fill:url(#_ÂÁ_Ï_ÌÌ_È_ËÂÌÚ_109);}.cls-30{fill:#180833;}.cls-31{fill:#220d33;}.cls-32{fill:#b64f6d;}.cls-33,.cls-44,.cls-45{fill:#fff;}.cls-34{fill:url(#_ÂÁ_Ï_ÌÌ_È_ËÂÌÚ_101-4);}.cls-35{fill:#b5526f;}.cls-36{fill:url(#_ÂÁ_Ï_ÌÌ_È_ËÂÌÚ_29);}.cls-37{mix-blend-mode:screen;fill:url(#_ÂÁ_Ï_ÌÌ_È_ËÂÌÚ_132);}.cls-38{fill:url(#_ÂÁ_Ï_ÌÌ_È_ËÂÌÚ_139-3);}.cls-39{fill:url(#_ÂÁ_Ï_ÌÌ_È_ËÂÌÚ_3);}.cls-40{fill:url(#_ÂÁ_Ï_ÌÌ_È_ËÂÌÚ_127-2);}.cls-41{fill:url(#_ÂÁ_Ï_ÌÌ_È_ËÂÌÚ_139-4);}.cls-42{fill:url(#_ÂÁ_Ï_ÌÌ_È_ËÂÌÚ_2-2);}.cls-43{fill:#ff63b8;}.cls-44,.cls-45{mix-blend-mode:soft-light;}.cls-46{fill:#35343a;}</style><linearGradient id="linear-gradient" x1="70.59" y1="31.72" x2="53.58" y2="2.28" gradientUnits="userSpaceOnUse"><stop offset="0" stop-color="#00cdb8"/><stop offset="1" stop-color="#2ae59d"/></linearGradient><linearGradient id="_ÂÁ_Ï_ÌÌ_È_ËÂÌÚ_92" x1="58.52" y1="33.81" x2="58.52" y2="29.87" gradientUnits="userSpaceOnUse"><stop offset="0.03" stop-color="#84a1ff"/><stop offset="0.98" stop-color="#5b72ec"/></linearGradient><linearGradient id="_ÂÁ_Ï_ÌÌ_È_ËÂÌÚ_77" x1="58.71" y1="31.31" x2="58.71" y2="23.94" gradientUnits="userSpaceOnUse"><stop offset="0.02" stop-color="#ffa451"/><stop offset="0.97" stop-color="#ff515e"/></linearGradient><linearGradient id="_ÂÁ_Ï_ÌÌ_È_ËÂÌÚ_91" x1="58.37" y1="33.75" x2="58.37" y2="27.33" gradientUnits="userSpaceOnUse"><stop offset="0.03" stop-color="#d36fff"/><stop offset="0.98" stop-color="#a240ec"/></linearGradient><linearGradient id="_ÂÁ_Ï_ÌÌ_È_ËÂÌÚ_101" x1="58.54" y1="32.76" x2="58.54" y2="25.87" gradientUnits="userSpaceOnUse"><stop offset="0.02" stop-color="#ff7288"/><stop offset="0.97" stop-color="#ff11a1"/></linearGradient><linearGradient id="_ÂÁ_Ï_ÌÌ_È_ËÂÌÚ_146" x1="59.76" y1="33.81" x2="59.76" y2="24.54" gradientUnits="userSpaceOnUse"><stop offset="0" stop-color="#fff"/><stop offset="0.99" stop-color="#943bac"/></linearGradient><linearGradient id="_ÂÁ_Ï_ÌÌ_È_ËÂÌÚ_2" x1="60.9" y1="33.95" x2="60.9" y2="28.79" gradientUnits="userSpaceOnUse"><stop offset="0.02" stop-color="#5bc9ec"/><stop offset="0.97" stop-color="#84a1ff"/></linearGradient><linearGradient id="_ÂÁ_Ï_ÌÌ_È_ËÂÌÚ_101-2" x1="57.39" y1="16.28" x2="57.39" y2="10.65" xlink:href="#_ÂÁ_Ï_ÌÌ_È_ËÂÌÚ_101"/><linearGradient id="_ÂÁ_Ï_ÌÌ_È_ËÂÌÚ_139" x1="57.5" y1="16.28" x2="57.5" y2="10.81" gradientUnits="userSpaceOnUse"><stop offset="0" stop-color="#fff"/><stop offset="0.99" stop-color="#8259ac"/></linearGradient><linearGradient id="_ÂÁ_Ï_ÌÌ_È_ËÂÌÚ_4" x1="67.8" y1="34" x2="67.8" y2="17.83" gradientUnits="userSpaceOnUse"><stop offset="0.02" stop-color="#e4deec"/><stop offset="1" stop-color="#cfbfeb"/></linearGradient><linearGradient id="_ÂÁ_Ï_ÌÌ_È_ËÂÌÚ_139-2" x1="68.51" y1="32.97" x2="68.51" y2="17.83" xlink:href="#_ÂÁ_Ï_ÌÌ_È_ËÂÌÚ_139"/><linearGradient id="_ÂÁ_Ï_ÌÌ_È_ËÂÌÚ_5" x1="63.31" y1="27.24" x2="63.31" y2="10.35" gradientUnits="userSpaceOnUse"><stop offset="0" stop-color="#cfbfeb"/><stop offset="0.98" stop-color="#e4deec"/></linearGradient><linearGradient id="_ÂÁ_Ï_ÌÌ_È_ËÂÌÚ_127" x1="63.97" y1="27.24" x2="63.97" y2="10.35" gradientUnits="userSpaceOnUse"><stop offset="0" stop-color="#cad6ff"/><stop offset="0.99" stop-color="#9775ba"/></linearGradient><linearGradient id="_ÂÁ_Ï_ÌÌ_È_ËÂÌÚ_213" x1="91.76" y1="8.97" x2="91.76" y2="-2.48" gradientTransform="matrix(0.99, 0.15, -0.14, 0.93, -31.35, -8.73)" gradientUnits="userSpaceOnUse"><stop offset="0" stop-color="#ff8757"/><stop offset="0.98" stop-color="#ffb34c"/></linearGradient><linearGradient id="_ÂÁ_Ï_ÌÌ_È_ËÂÌÚ_156" x1="91.78" y1="8.97" x2="91.78" y2="-2.46" gradientTransform="matrix(0.99, 0.15, -0.14, 0.93, -31.35, -8.73)" gradientUnits="userSpaceOnUse"><stop offset="0" stop-color="#fff"/><stop offset="0.99" stop-color="#b10bac"/></linearGradient><linearGradient id="_ÂÁ_Ï_ÌÌ_È_ËÂÌÚ_4-2" x1="59.51" y1="70.53" x2="59.51" y2="63.36" gradientTransform="translate(3.43 -49.32) rotate(-6.21)" xlink:href="#_ÂÁ_Ï_ÌÌ_È_ËÂÌÚ_4"/><linearGradient id="_ÂÁ_Ï_ÌÌ_È_ËÂÌÚ_56" x1="65.28" y1="14.95" x2="65.28" y2="6.26" gradientUnits="userSpaceOnUse"><stop offset="0.02" stop-color="#a272ec"/><stop offset="0.97" stop-color="#d36fff"/></linearGradient><linearGradient id="_ÂÁ_Ï_ÌÌ_È_ËÂÌÚ_46" x1="66.53" y1="13.55" x2="66.53" y2="7.68" gradientUnits="userSpaceOnUse"><stop offset="0.02" stop-color="#5b72ec"/><stop offset="0.97" stop-color="#84a1ff"/></linearGradient><linearGradient id="_ÂÁ_Ï_ÌÌ_È_ËÂÌÚ_77-2" x1="55.63" y1="15.06" x2="55.63" y2="10.91" xlink:href="#_ÂÁ_Ï_ÌÌ_È_ËÂÌÚ_77"/><linearGradient id="_ÂÁ_Ï_ÌÌ_È_ËÂÌÚ_77-3" x1="75.52" y1="27.47" x2="75.52" y2="27.24" xlink:href="#_ÂÁ_Ï_ÌÌ_È_ËÂÌÚ_77"/><linearGradient id="_ÂÁ_Ï_ÌÌ_È_ËÂÌÚ_91-2" x1="71.42" y1="33.19" x2="71.42" y2="19.62" xlink:href="#_ÂÁ_Ï_ÌÌ_È_ËÂÌÚ_91"/><linearGradient id="_ÂÁ_Ï_ÌÌ_È_ËÂÌÚ_101-3" x1="72.09" y1="31.51" x2="72.09" y2="21.52" xlink:href="#_ÂÁ_Ï_ÌÌ_È_ËÂÌÚ_101"/><linearGradient id="_ÂÁ_Ï_ÌÌ_È_ËÂÌÚ_92-2" x1="70.91" y1="27.99" x2="70.91" y2="13.55" xlink:href="#_ÂÁ_Ï_ÌÌ_È_ËÂÌÚ_92"/><linearGradient id="_ÂÁ_Ï_ÌÌ_È_ËÂÌÚ_118" x1="63.74" y1="21.08" x2="63.74" y2="17.34" gradientUnits="userSpaceOnUse"><stop offset="0" stop-color="#fff"/><stop offset="1" stop-color="#bdbfff"/></linearGradient><linearGradient id="_ÂÁ_Ï_ÌÌ_È_ËÂÌÚ_109" x1="64.17" y1="20.74" x2="64.17" y2="17.25" gradientUnits="userSpaceOnUse"><stop offset="0.01" stop-color="#634f90"/><stop offset="1" stop-color="#3b0643"/></linearGradient><linearGradient id="_ÂÁ_Ï_ÌÌ_È_ËÂÌÚ_101-4" x1="61.45" y1="15.16" x2="65" y2="15.16" xlink:href="#_ÂÁ_Ï_ÌÌ_È_ËÂÌÚ_101"/><linearGradient id="_ÂÁ_Ï_ÌÌ_È_ËÂÌÚ_29" x1="58.22" y1="23.68" x2="59.29" y2="23.68" gradientUnits="userSpaceOnUse"><stop offset="0.01" stop-color="#9775ba"/><stop offset="1" stop-color="#ffeadb"/></linearGradient><linearGradient id="_ÂÁ_Ï_ÌÌ_È_ËÂÌÚ_132" x1="55.51" y1="22.11" x2="60.71" y2="22.11" gradientUnits="userSpaceOnUse"><stop offset="0" stop-color="#ffeadb"/><stop offset="0.99"/></linearGradient><linearGradient id="_ÂÁ_Ï_ÌÌ_È_ËÂÌÚ_139-3" x1="65.31" y1="14.95" x2="65.31" y2="6.28" xlink:href="#_ÂÁ_Ï_ÌÌ_È_ËÂÌÚ_139"/><linearGradient id="_ÂÁ_Ï_ÌÌ_È_ËÂÌÚ_3" x1="69.75" y1="14.54" x2="69.75" y2="7.8" gradientUnits="userSpaceOnUse"><stop offset="0.02" stop-color="#ff9fa6"/><stop offset="1" stop-color="#ff88c7"/></linearGradient><linearGradient id="_ÂÁ_Ï_ÌÌ_È_ËÂÌÚ_127-2" x1="69.83" y1="13.12" x2="69.83" y2="7.8" xlink:href="#_ÂÁ_Ï_ÌÌ_È_ËÂÌÚ_127"/><linearGradient id="_ÂÁ_Ï_ÌÌ_È_ËÂÌÚ_139-4" x1="72.33" y1="31.51" x2="72.33" y2="13.55" xlink:href="#_ÂÁ_Ï_ÌÌ_È_ËÂÌÚ_139"/><linearGradient id="_ÂÁ_Ï_ÌÌ_È_ËÂÌÚ_2-2" x1="72.14" y1="24.76" x2="72.14" y2="16.71" xlink:href="#_ÂÁ_Ï_ÌÌ_È_ËÂÌÚ_2"/></defs><g class="cls-1"><g id="Layer_1" data-name="Layer 1"><path class="cls-2" d="M79.09,17a16.92,16.92,0,0,1-3.53,10.36.1.1,0,0,1,0,.05l0,.06h0c-.24.31-.49.6-.74.88l0,0c-.12.14-.24.27-.37.4l-.23.24a17.13,17.13,0,0,1-2.81,2.27l-.18.11-.17.11h0a16.5,16.5,0,0,1-3,1.46l-.62.22a17.31,17.31,0,0,1-5.21.81h-.58l-.69,0-.62-.05-.69-.09-.36-.06A18,18,0,0,1,56.2,33l-.5-.2-.35-.15c-.25-.1-.49-.21-.73-.33L54.06,32l-.14-.07-.14-.09c-.3-.16-.58-.33-.87-.51h0l-.27-.17A17,17,0,1,1,79.09,17Z"/><path class="cls-3" d="M60.83,29.87h0A14.91,14.91,0,0,0,60,32c-.17.54-.35,1.17-.5,1.86l-.36-.06A18,18,0,0,1,56.2,33l.37-.3.38-.34a16.92,16.92,0,0,1,2.39-1.71,10.58,10.58,0,0,1,1.36-.69h0l.13-.05Z"/><path class="cls-4" d="M64.77,23.94l-.42.63h0l0,.06-.16.24-.05.06-.2.31-.07.11L63,26.63h0a3,3,0,0,1-1.77,1c-.31.05-.83.07-1.47.11s-1.23.09-1.9.18h0a4.75,4.75,0,0,1,.82-.72,3.28,3.28,0,0,1-.83,0c-.32.25-2,.56-2.93,1.33a10,10,0,0,0-1.93,2.83l-.27-.17A8.25,8.25,0,0,1,54.56,28a4.74,4.74,0,0,1,1.5-1h0a7.94,7.94,0,0,1,1-.35,26.41,26.41,0,0,1,3.34-.46l.54-.07h0l.29-.05h0a4.12,4.12,0,0,0,.79-.21,6.9,6.9,0,0,0,2-1.2.69.69,0,0,0,.13-.11A5.17,5.17,0,0,0,64.77,23.94Z"/><path class="cls-5" d="M62.68,27.33c-.09.2-.17.4-.25.59l0,.09h0l-.2.48h0a4.77,4.77,0,0,0-.4.3h0l0,0,0,0h0L61.6,29l0,0,0,0,0,0h0l0,0c-.12.12-.25.27-.38.43h0L61,29.6l-.06.09-.13.18h0a5.46,5.46,0,0,0-.38.59l-.12.21v0l0,.07a8.33,8.33,0,0,0-.56,1.36c-.21.62-.38,1.15-.58,1.62A18,18,0,0,1,56.2,33l-.5-.2-.35-.15c-.25-.1-.49-.21-.73-.33L54.06,32l2.56-1.35L60,28.82Z"/><path class="cls-6" d="M63.29,25.87l-.32.76h0l0,.06,0,0c-.09.2-.17.39-.25.59s-.17.4-.25.59l0,.09h0a4,4,0,0,0-1.69,1.91h0a3.73,3.73,0,0,0-.16.35,1.3,1.3,0,0,1-.08.17v0l-.12.21v0l0,.07c-.67,1.09-1.88,1.63-3.72,1.89l-.87.1-.35-.15c-.25-.1-.49-.21-.73-.33L54.06,32l-.14-.07-.14-.09.34-.22A21.09,21.09,0,0,0,57.67,28h0a.52.52,0,0,1,.1-.11,4.75,4.75,0,0,1,.82-.72h0l.08-.05h0l.14-.08a8.84,8.84,0,0,1,2-.8h0l.38-.1a11.69,11.69,0,0,1,1.36-.23h0a5.81,5.81,0,0,1,.74-.06Z"/><path class="cls-7" d="M64.18,24.54l0,.11,0,.13,0,.11v.05l-.2.31-.07.11L63,26.63h0l0,.06,0,0c-.09.2-.17.39-.25.59h0l-.25.59,0,.09h0l-.2.48h0a4.77,4.77,0,0,0-.4.3h0l0,0,0,0h0L61.6,29l0,0,0,0,0,0h0l0,0c-.12.12-.25.27-.38.43h0L61,29.6l-.06.09-.13.18h0A14.91,14.91,0,0,0,60,32c-.17.54-.35,1.17-.5,1.86l-.36-.06A18,18,0,0,1,56.2,33l-.5-.2-.35-.15c.59-.09,1.12-.17,1.6-.29a3.82,3.82,0,0,0,1.31-.52,3.64,3.64,0,0,0,1.08-1.19A4.91,4.91,0,0,0,60,28.82c.07-.51,0-.92-.21-1.07l0,0c-.62-.41-1.9.18-1.9.18a1.22,1.22,0,0,1-.15.12.52.52,0,0,1,.1-.11,4.75,4.75,0,0,1,.82-.72,3.28,3.28,0,0,1-.83,0h0l0,0a0,0,0,0,0,0,0s0-.07-.06-.1a1,1,0,0,0-.42-.12,4.63,4.63,0,0,0-1.28.12,7.94,7.94,0,0,1,1-.35,26.41,26.41,0,0,1,3.34-.46l.54-.07h0l.29-.05h0a4.12,4.12,0,0,0,.79-.21,6.9,6.9,0,0,0,2-1.2A.69.69,0,0,0,64.18,24.54Z"/><path class="cls-8" d="M60.56,32.66c.08.43.19.87.26,1.29l-.62-.05c0-.76-.18-1.35-.19-1.95a2.51,2.51,0,0,1,.29-1.19l0-.06v0c.05-.08.09-.16.13-.24s.25-.4.37-.57l.13-.18L61,29.6l.07-.07h0c.14-.17.27-.31.38-.43l0,0h0l0,0,0,0,0,0,.08-.08h0l0,0,0,0h0C61.75,28.84,60.19,30.81,60.56,32.66Z"/><path class="cls-9" d="M59,12.71a7.81,7.81,0,0,0-2.18,3.57h0v0c-.17-.26-1.52-2.47-.78-3.6a1.23,1.23,0,0,1,.27-.29,8.6,8.6,0,0,0,1.62-1.55l.11-.16.6,1.27Z"/><path class="cls-10" d="M59,12.71a7.81,7.81,0,0,0-2.18,3.57h0v0a2.86,2.86,0,0,1,0-1.73c.29-1.28,1.06-2.47.45-2.42a2.85,2.85,0,0,0-1.26.55,1.23,1.23,0,0,1,.27-.29,8.6,8.6,0,0,0,1.62-1.55l.71,1.11Z"/><path class="cls-11" d="M74.34,28.78l-.23.24a17.13,17.13,0,0,1-2.81,2.27l-.18.11-.17.11h0a16.5,16.5,0,0,1-3,1.46l-.62.22a17.31,17.31,0,0,1-5.21.81h-.58a7.87,7.87,0,0,1-.2-2.68,8.88,8.88,0,0,1,.88-2.82h0l.2-.48h0l0-.09c.08-.19.16-.39.25-.59s.16-.39.25-.59l0,0,0-.06.32-.76.22-.52.13-.3L64,25h0l.16-.06h0l.63-.27h0a10.77,10.77,0,0,0,3.49-2.89h0a16.74,16.74,0,0,0,1.65-2.39h0a14.56,14.56,0,0,0,.77-1.5l.22.58a1.12,1.12,0,0,0,0,.13h0a.78.78,0,0,0,.05.14c.23.62.55,1.52.92,2.55l.12.35h0c.09.24.18.49.26.74l0,.05c0,.13.09.26.14.4l0,.05c.06.18.12.36.19.54.18.55.37,1.1.55,1.65s.33,1,.48,1.5c.24.79.45,1.52.59,2.12A.83.83,0,0,1,74.34,28.78Z"/><path class="cls-12" d="M63.53,25.34a46.74,46.74,0,0,0,5.56,0c2.26-.2,3.09-4.26,3.09-4.26L71.12,18.2Z"/><path class="cls-13" d="M74.34,28.78l-.23.24a17.13,17.13,0,0,1-2.81,2.27l-.18.11-.17.11h0a16.5,16.5,0,0,1-3,1.46c.34-.72.71-1.47,1-2.12.6-1.18,1.09-2.07,1.09-2.07-3.53.79-7.38-1.45-7.38-1.45.08-.2.16-.39.25-.59l0,0,0-.06.32-.76.22-.52.13-.3L64,25h0l.16-.06h0l.63-.27h0a10.77,10.77,0,0,0,3.49-2.89h0a16.74,16.74,0,0,0,1.65-2.39h0a14.56,14.56,0,0,0,.77-1.5l.22.58a1.12,1.12,0,0,0,0,.13h0a.78.78,0,0,0,.05.14c.23.62.55,1.52.92,2.55l.12.35h0c.09.24.18.49.26.74l0,.05c0,.13.09.26.14.4l0,.05c.06.18.12.36.19.54.18.55.37,1.1.55,1.65s.33,1,.48,1.5c.24.79.45,1.52.59,2.12A.83.83,0,0,1,74.34,28.78Z"/><path class="cls-14" d="M68.63,24c-1.47.91-4.31,1.07-5.1,1.34s-2.2,1.64-3,1.83a3.56,3.56,0,0,1-1.62-.06,3.8,3.8,0,0,1-1.28,0c-.32-.15-2.07-1.84-2.15-3.28-.07-1.28,1.61-2.54,1.69-3.16s-.53-3-.38-4.52S59,11.66,62,10.78c4-1.21,8,.19,8.89,3.77S70.32,23,68.63,24Z"/><path class="cls-15" d="M68.63,24c-1.47.91-4.31,1.07-5.1,1.34s-2.2,1.64-3,1.83a3.56,3.56,0,0,1-1.62-.06,3.8,3.8,0,0,1-1.28,0,7.31,7.31,0,0,0,4.4-2.22c.59-.4,4.67.06,5.5-1.22s1.6-5.21-.21-6.91-6.9-2.05-8.51-1.81a3.48,3.48,0,0,0-2,1.2C57,14.68,59,11.66,62,10.78c4-1.21,8,.19,8.89,3.77S70.32,23,68.63,24Z"/><path class="cls-16" d="M62.24,12.25a3.41,3.41,0,0,1-3.57,1.32A3.32,3.32,0,0,1,57.82,11l0-.21s-1.51-.83-1-3.37a9.24,9.24,0,0,1-1-5.19l0,0c.25.16,1.87,1.31,1.84,2.65,0,0,2.83,1.38,2.08,3.54C59.79,8.41,62.21,10.4,62.24,12.25Z"/><path class="cls-17" d="M62.24,12.25a3.41,3.41,0,0,1-3.57,1.32s2.71-1.28,2.56-2.61A1.8,1.8,0,0,0,59.47,9.2C59,9.31,57.82,11,57.82,11l0-.21s1.7-2.09,1.53-3.19-1.27-2.15-1.63-2-.83,1.61-.89,1.79a11.14,11.14,0,0,0,.49-3.29,3.92,3.92,0,0,0-1.48-1.85c.25.16,1.87,1.31,1.84,2.65,0,0,2.83,1.38,2.08,3.54C59.79,8.41,62.21,10.4,62.24,12.25Z"/><path class="cls-18" d="M66.69,11.77s.41-.21.83-1.19a7.11,7.11,0,0,1,5.2-3.7s-.52,3.19-.93,4.88a4,4,0,0,1-2.7,2.73C68.5,14.55,66.53,14.5,66.69,11.77Z"/><path class="cls-19" d="M69.09,14.66c-2.1.9-6.81-.41-7.3-2a8.16,8.16,0,0,1-.25-1.41c-.18-1.73,0-3.92.84-4.43a4.36,4.36,0,0,1,2.46-.5c1.24,1.46,2.63,2.86,2.78,3a9.71,9.71,0,0,0-1.53-1.15c-.17,0-1.31,1.26-.36,3.85A3.92,3.92,0,0,0,69.09,14.66Z"/><path class="cls-20" d="M68.05,9.72S67,8.61,66,7.78s-2,3.7.65,5.77c0,0-.82-3.46-.16-4.08s1.33.51,1.33.51Z"/><path class="cls-21" d="M57.82,10.91s-.19.43-2.31.86-2.21,2-2,3.29a3.39,3.39,0,0,1,1.58-2.25C56.41,12.16,57.59,11.87,57.82,10.91Z"/><path class="cls-22" d="M75.56,27.36a.1.1,0,0,1,0,.05l0,.06,0-.18,0-.05A1.09,1.09,0,0,0,75.56,27.36Z"/><path class="cls-23" d="M68.05,9.72s-.87-.89-1.48-.89c-.82,0-.06,3.82-.06,3.82A19.63,19.63,0,0,1,68.05,9.72Z"/><path class="cls-24" d="M75.53,27.29a.49.49,0,0,1,0,.12l0,.06h0c-.24.31-.49.6-.74.88l0,0c-.12.14-.24.27-.37.4l-.23.24a17.13,17.13,0,0,1-2.81,2.27l-.18.11-.17.11h0a16.5,16.5,0,0,1-3,1.46l-.62.22a5.08,5.08,0,0,1,.33-.66A8.65,8.65,0,0,1,69,30.85c.65-.68,1.38-1.36,2-2.1h0a6.35,6.35,0,0,0,1.45-2.58,10.34,10.34,0,0,0,.26-2.05c0-.27,0-.52,0-.75s-.07-.68-.11-.93h0s0-.05,0-.07v-.07c-.06-.29-.11-.45-.11-.45l.1-1h0l.14-1.26h0s.27.35.6.85.54.83.84,1.36a11.53,11.53,0,0,1,1.27,3.28A8.83,8.83,0,0,1,75.53,27.29Z"/><path class="cls-25" d="M73.23,25a14.07,14.07,0,0,1-2.11,6.39l-.17.11h0a4.14,4.14,0,0,0,.1-1.8,7.66,7.66,0,0,1-.06-1,16.83,16.83,0,0,1,.27-2.88l0,0h0a1.74,1.74,0,0,0,.11-.18h0l.1-.19h0l.17-.32,0,0h0l0-.05h0a10.35,10.35,0,0,0,.78-2.2c0-.14.06-.27.08-.39l0-.17a5,5,0,0,0,.07-.71h0v0h0a6.08,6.08,0,0,1,.22.64A8.53,8.53,0,0,1,73.23,25Z"/><path class="cls-26" d="M72.67,21.52v0a8.11,8.11,0,0,1-.12.82A10.53,10.53,0,0,1,71.72,25l0,.06c-.06.12-.12.24-.19.36l-.12.21a1.62,1.62,0,0,1-.1.18h0l0,0A6,6,0,0,1,69.1,28h0c.06-.14,2.35-5,2-8-.08-.79-.18-1.59-.27-2.33l0-.17c-.23-1.76-.45-3.18-.5-3.53l0-.07.42-.35a29.88,29.88,0,0,0,1.71,5.25,2.15,2.15,0,0,1,.25.82A8.05,8.05,0,0,1,72.67,21.52Z"/><path class="cls-27" d="M62.22,21a4.29,4.29,0,0,0,2.28.07A2.21,2.21,0,0,0,66,19.36,10.36,10.36,0,0,1,62.22,21Z"/><path class="cls-27" d="M61.48,18.58A2.76,2.76,0,0,1,62.62,17a2.61,2.61,0,0,1,3.43,1.39A15.53,15.53,0,0,0,61.48,18.58Z"/><path class="cls-28" d="M61.74,20.77a2.94,2.94,0,0,0,2.5.11A2.61,2.61,0,0,0,66,19.62a3.08,3.08,0,0,0,.09-1.24,2.67,2.67,0,0,0-1.87-1c-.93-.08-2.32.28-2.7,1.23A3.46,3.46,0,0,0,61.74,20.77Z"/><circle class="cls-29" cx="64.17" cy="18.99" r="1.75"/><circle class="cls-30" cx="64.23" cy="18.99" r="1.24"/><path class="cls-31" d="M61.42,18.8s.19-1,1.89-1.23a3.2,3.2,0,0,1,2.74.81,2.71,2.71,0,0,0,1.17-.85,2.34,2.34,0,0,1-1.32.26,3.76,3.76,0,0,0-2.66-.54A2.29,2.29,0,0,0,61.42,18.8Z"/><path class="cls-32" d="M61.54,20.28s0,.76.15.8a7.56,7.56,0,0,0,.9,0A1.25,1.25,0,0,1,61.54,20.28Z"/><path class="cls-33" d="M62.7,19.52a.2.2,0,1,1-.2-.2A.2.2,0,0,1,62.7,19.52Z"/><path class="cls-34" d="M61.74,14.72c-.31,0-.44.61-.05.8a10.49,10.49,0,0,0,2.31,0,5.77,5.77,0,0,0,1,.08A5.43,5.43,0,0,0,61.74,14.72Z"/><path class="cls-35" d="M62.06,24.89a7.34,7.34,0,0,1-.79,1.17h0l-.08.1a2.93,2.93,0,0,1-.68.61,3.59,3.59,0,0,1-1.38.38,4.91,4.91,0,0,1-.53,0h0a3.28,3.28,0,0,1-.83,0l-.11,0h.15a7.52,7.52,0,0,0,1-.06,6.94,6.94,0,0,0,1-.25,3.14,3.14,0,0,0,1-.55h0l.17-.15h0A6.87,6.87,0,0,0,62.06,24.89Z"/><path class="cls-35" d="M58.22,24.11s-.13-.47.13-.69.94-.19.94-.19A1.22,1.22,0,0,0,58.22,24.11Z"/><path class="cls-36" d="M58.22,24.11a.91.91,0,0,0,1.07-.88S58.26,23.24,58.22,24.11Z"/><path class="cls-37" d="M55.51,23.52a16.1,16.1,0,0,0,3.23-.78,3.94,3.94,0,0,0,2-2,30.73,30.73,0,0,0-3.32,0A9,9,0,0,0,55.51,23.52Z"/><path class="cls-38" d="M69.09,14.66c-2.1.9-6.81-.41-7.3-2a8.16,8.16,0,0,1-.25-1.41,3.13,3.13,0,0,0,3.74,2.9,4,4,0,0,1-1.16-3.37,26.45,26.45,0,0,1,.72-4.46c1.24,1.46,2.63,2.86,2.78,3A13.15,13.15,0,0,0,66,7.86c-.43.1-1.39,1.57-.44,4.16A4.05,4.05,0,0,0,69.09,14.66Z"/><path class="cls-39" d="M72.1,10a22.46,22.46,0,0,1-.53,2.35c-.26.8-1.82,2.34-3.21,2.15-1.12-.15-1.24-.81-1.24-.81s0-.22.15-.57v0A9.35,9.35,0,0,1,69.2,9.48a5,5,0,0,1,3.13-1.67A6.88,6.88,0,0,1,72.1,10Z"/><path class="cls-40" d="M72.1,10c-.1-.26-.4-.92-.8-1s-3,1.41-4,4.08A9.35,9.35,0,0,1,69.2,9.48a5,5,0,0,1,3.13-1.67A6.88,6.88,0,0,1,72.1,10Z"/><path class="cls-41" d="M75.56,27.36a.1.1,0,0,1,0,.05l0,.06h0c-.24.31-.49.6-.74.88.38-1.43.44-2.82,0-2.81s-.72.48-1,1a11.52,11.52,0,0,0-.6,1.12,12.58,12.58,0,0,1-1.81,3.66l-.18.11-.17.11a29.17,29.17,0,0,0,1.42-3.75c.68-2.31.68-3.7.32-3.65s-1.18,1.36-1.39,1.68h0v0h0A5.34,5.34,0,0,1,69.12,28h0a9.74,9.74,0,0,0,3.21-5.61.13.13,0,0,0,0-.06A5.19,5.19,0,0,0,72.37,21h0a5.1,5.1,0,0,0-1.28-3.07h0a2.38,2.38,0,0,0-.24-.23l0-.17-.49-3.44h0l0-.15h0l.22-.18.13-.11h0l0,0h0v.13l0,.05v0l0,.1v0h0v0h0l0,.08v.14l0,.06v0c0,.09,0,.19.08.3l0,.09.06.19,0,.1a.83.83,0,0,1,0,.15l0,.11,0,.08,0,.07.06.22,0,.1s0,.06,0,.09l0,.07.06.18v.05l0,.15v0l0,.11,0,.13,0,.07,0,.07h0v0l0,.06,0,.11v0l0,.1,0,.09,0,.06,0,.06,0,.1s0,0,0,.05a.88.88,0,0,1,0,.15h0l0,.09v0l0,.08a.78.78,0,0,1,.05.14l.06.14a.36.36,0,0,0,0,.09v0l0,.09,0,.08,0,.06a.56.56,0,0,0,0,.08.2.2,0,0,0,0,.08v0l0,0,0,.05,0,0h0v0l0,0a.43.43,0,0,1,0,.07l0,0,0,0h0v.11l0,0v0h0v.07h0v.06s0,0,0,.06v.05c0,.08,0,.17.05.26s.27.35.6.85.54.83.84,1.36a11.53,11.53,0,0,1,1.27,3.28,8.83,8.83,0,0,1,.14,2.18l0-.05A1.09,1.09,0,0,0,75.56,27.36Z"/><path class="cls-42" d="M71.59,16.71a4.56,4.56,0,0,0,2.32,2.58c1.79.81,1.79,2.28-.5,2.74a9.53,9.53,0,0,0-4.32,2.73,9.61,9.61,0,0,1,2.41-3.24c1-.79,2.38-1.12,2.21-1.65S72,19.55,71.59,16.71Z"/><path class="cls-43" d="M64.88,22c-.29-.29,1.43-1.86,2-1.72s.3,1.44-.4,1.72A1.83,1.83,0,0,1,64.88,22Z"/><path class="cls-44" d="M57.77,28.2a9,9,0,0,1-1.15,2.44,4.49,4.49,0,0,1-.85.94,5.06,5.06,0,0,1-1.15.7L54.06,32l-.14-.07q.51-.33,1.08-.75A14.5,14.5,0,0,0,57.77,28.2Z"/><path class="cls-44" d="M57.56,6a15.46,15.46,0,0,0-.31,2.07,5.48,5.48,0,0,0,.52,2.45,3.1,3.1,0,0,1-.9-2.38A5.84,5.84,0,0,1,57.56,6Z"/><path class="cls-44" d="M55.87,2.22a9.79,9.79,0,0,0,1,5.14A26.59,26.59,0,0,0,55.87,2.22Z"/><path class="cls-44" d="M59,9.83a5.55,5.55,0,0,0-1,1.41,2.31,2.31,0,0,0,.28,1.51A6.57,6.57,0,0,1,59,9.83Z"/><path class="cls-44" d="M63.31,6.55a2,2,0,0,0-1.17.71c-.4.57-1.1,4,.24,5.73a8,8,0,0,1-.24-4.16C62.64,6.64,63.31,6.55,63.31,6.55Z"/><path class="cls-44" d="M56.82,12.35a1.1,1.1,0,0,0-.81,1,3.87,3.87,0,0,0,.4,1.9A4.15,4.15,0,0,1,56.82,12.35Z"/><path class="cls-44" d="M57.08,16.28a10,10,0,0,0,0,1.39c.05.87.37,2.78.31,3.07s-1.61,1.89-1.76,2.78,1.58,2.91,1.58,2.91-1.13-2.07-.94-3,1.63-2.11,1.69-2.7S57,18.46,57.08,16.28Z"/><path class="cls-31" d="M65.47,18A2.22,2.22,0,0,0,66.68,17a5.73,5.73,0,0,1-1.68.69Z"/><path class="cls-44" d="M75.05,26.34a14.73,14.73,0,0,1-.34,2c-.12.14-.24.27-.37.4l-.23.24a3.49,3.49,0,0,0,.19-.39A8.38,8.38,0,0,0,75.05,26.34Z"/><path class="cls-33" d="M57,7.38a4.69,4.69,0,0,0-.15,1.39S57.62,8.43,57,7.38Z"/><path class="cls-33" d="M58,11.28a1.38,1.38,0,0,1,.52-.74S58.69,11.3,58,11.28Z"/><path class="cls-33" d="M56,2.28A4.21,4.21,0,0,1,56.46,4a2.81,2.81,0,0,1-.29,1.23A5.92,5.92,0,0,1,56,2.28Z"/><path class="cls-45" d="M63.23,17.83l.08.9a4.74,4.74,0,0,0,2.15.39l.16-.92A2.35,2.35,0,0,0,63.23,17.83Z"/><path class="cls-46" d="M0,48.68,3.6,33.12H8.76l.15,9.23h.42l4.43-9.23h5.51l-3.6,15.56H12.22l2.54-11H14.4L10,46.64H6.56L6.33,37.7H6l-2.54,11Z"/><path class="cls-46" d="M20,48.68l-1.58-2L19.27,43l2.13-1.73H26l.22-1-.33-.42H21.11l.6-2.58H28l1.69,2.2-2.11,9.16H25l.2-.82h-.25l-1.13.82Zm2.11-2.53h2.11l.74-.51.51-2.2H22.82l-.42.35-.49,2.09Z"/><path class="cls-46" d="M29.24,53.12l.63-2.68h5.31l.42-.34.47-2h-.14l-.84.58H32l-1.86-2.42,1.6-6.89,2.53-2h7.65l-3.23,14-2.24,1.8ZM34,46h1.73l.94-.62L37.91,40H35.42l-.71.57L33.6,45.44Z"/><path class="cls-46" d="M41.47,48.68l2.62-11.36h3.33L44.8,48.68Zm3-13.11.58-2.45h3.29l-.58,2.45Z"/><path class="cls-46" d="M49.29,48.68l-1.87-2.42L49,39.37l2.53-2h6.27L57.2,40H52.75l-.71.57-1.11,4.83.42.53h4.47l-.62,2.71Z"/><path class="cls-46" d="M59,48.68l-1.86-2.42,1.6-6.89,2.53-2H66.6l1.87,2.43-1.58,6.86-2.54,2.07ZM61,46h2.11l.71-.58L65,40.57l-.4-.53H62.42l-.71.57L60.6,45.44Z"/><path class="cls-46" d="M68.47,48.68l2.62-11.36h2.64l-.2.78h.25l1.11-.78h3l-.62,2.78H74.47l-.83.56-1.84,8Z"/><path class="cls-46" d="M76.33,48.68,79,37.32H81.6l-.2.78h.24l1.11-.78h3.54l1.8,2.32-2.09,9H82.69l1.89-8.22L84.24,40H82.35l-.82.55-1.86,8.09Z"/><path class="cls-46" d="M93.73,48.68l.65-2.8h2.24l2.31-10H96.69l.64-2.8h8.07l-.67,2.8h-2.24l-2.29,10h2.24l-.64,2.8Z"/><path class="cls-46" d="M103.75,48.68l2.63-11.36H109l-.2.78h.25l1.11-.78h3.53l1.8,2.32-2.09,9h-3.31L112,40.46l-.33-.42h-1.89l-.83.55-1.86,8.09Z"/><path class="cls-46" d="M117.8,48.68,116,46.35l2.09-9h3.33l-1.91,8.23.36.42h1.64l.82-.56,1.89-8.09h3.31l-2.62,11.36h-2.62l.18-.78h-.25l-1.09.78Z"/></g></g></svg>
